<svg xmlns="http://www.w3.org/2000/svg" viewBox="0 0 120 120"><title>CAEM</title><g id="Capa_24" data-name="Capa 24"><path d="M41.1,109.6c1.9,0,3.7.1,5.5,0a2.4,2.4,0,0,1,2.5,1.5,3.8,3.8,0,0,0,3.8,2.4H86.7a3.7,3.7,0,0,0,4-3.6,3.9,3.9,0,0,0-3.7-4,1.9,1.9,0,0,1-2-2,2,2,0,0,1,2.2-1.8h3.5a3.9,3.9,0,0,0,.3-7.7c-1.4-.1-2.2-.9-2.2-2s1-1.8,2.4-1.8h1.6a3.9,3.9,0,0,0,3.7-3.7,4,4,0,0,0-3.4-3.9h-.8a1.7,1.7,0,0,1-1.5-1.9,1.7,1.7,0,0,1,1.7-1.8h1.9a4,4,0,0,0,4-3.7,4,4,0,0,0-3.7-4H67.5c-2.3,0-3.1-1.1-2.3-3.3,2.5-6.2,2.9-12.7,2.6-19.3a6.6,6.6,0,0,0-7.6-6v3.8c0,2.7.1,5.5-.1,8.2a5,5,0,0,1-.8,2.7,108.3,108.3,0,0,0-9,15.9c-.5,1.2-.9,2.4-1.4,3.7s-1.3,2.2-2.5,1.9-1.6-1.4-1.1-3a54.5,54.5,0,0,1,5.8-12.5c1.5-2.6,3.2-5.1,4.7-7.7a3,3,0,0,0,.5-1.6c.1-4.3.1-8.5.1-12.8,0-1.9.6-2.5,2.4-2.5s4.7-.1,6.8,1a10.1,10.1,0,0,1,6,9.3c.2,6.2,0,12.3-2.2,18.4H94.1a7.7,7.7,0,0,1,8,6.3,7.4,7.4,0,0,1-2.7,7.2l-.8.7c3,4.4,1.7,8.8-1.9,11.5a7.5,7.5,0,0,1,1.4,6.8,7.9,7.9,0,0,1-4.8,5.3,7.8,7.8,0,0,1,1.1,5.9,7.6,7.6,0,0,1-7.2,5.9H52.4a7.2,7.2,0,0,1-6-3.1,2,2,0,0,0-1.2-.6H41.1v1.4c0,1.8-.7,2.5-2.6,2.5H12.8c-1,0-1.8-.3-2-1.2a2.4,2.4,0,0,1,.2-1.9,3.1,3.1,0,0,1,2.1-.7H37.2V75.2H4.6a1.8,1.8,0,0,1-1.7-1.9,1.8,1.8,0,0,1,1.6-1.9H38.3c2.2,0,2.8.6,2.8,2.8v35.4Z" style="fill:#fff"/><path d="M71.9,34.4c0,1.8-1.4,2.7-2.9,1.9s-5.3-2.5-7.8-3.9a2.1,2.1,0,0,0-1.9,0l-7.6,3.8a2.1,2.1,0,0,1-2.4,0,2.1,2.1,0,0,1-.7-2.4c.4-2.8.9-5.6,1.2-8.5a2,2,0,0,0-.5-1.4l-6-6.2a1.8,1.8,0,0,1-.7-2.3,3.5,3.5,0,0,1,2-1.3L53,12.6a1.9,1.9,0,0,0,1.2-.9c1.4-2.5,2.8-5,4.1-7.6a2.2,2.2,0,0,1,2-1.4c.9,0,1.4.6,1.9,1.4C63.4,6.6,64.7,9,66,11.5a2,2,0,0,0,1.6,1.2c2.8.4,5.7.9,8.5,1.5a2.5,2.5,0,0,1,1.7,1.3,2.7,2.7,0,0,1-.6,2.1c-2,2.2-4.1,4.2-6.1,6.4a1.7,1.7,0,0,0-.5,1.4C71,28.5,71.5,31.5,71.9,34.4Zm-4.3-3c-.3-2.2-.6-4.1-.9-6a3.7,3.7,0,0,1,1.1-3.7c1.5-1.3,2.8-2.8,4.3-4.3-2-.4-3.9-.8-5.7-1a4,4,0,0,1-3.6-2.7c-.7-1.6-1.6-3.2-2.6-5-1.1,2.1-2.1,3.9-3,5.8a3.1,3.1,0,0,1-2.5,1.8l-6.4,1.1L53,22.2a2.5,2.5,0,0,1,.8,2.5c-.3,2.1-.6,4.3-.9,6.7l5.7-2.9a3.2,3.2,0,0,1,3.3,0Z" style="fill:#fff"/><path d="M83.6,39.4l5.1-2.5a2.7,2.7,0,0,1,2.6-.1l5.1,2.6c-.3-1.9-.4-3.5-.8-5a3.1,3.1,0,0,1,1.2-3.5l3.6-3.3-.3-.4c-1.7-.3-3.4-.7-5.2-.9a2.8,2.8,0,0,1-2.3-1.6c-.8-1.6-1.6-3.2-2.6-5-.8,1.6-1.5,2.9-2.3,4.3a8.3,8.3,0,0,1-.7,1.3,1.9,1.9,0,0,1-2.5.7,1.9,1.9,0,0,1-.8-2.5c1.5-3,3.1-5.9,4.7-8.9.7-1.3,2.6-1.1,3.4.3l3.5,6.7a1.6,1.6,0,0,0,1.5,1.1l7.3,1.3a2,2,0,0,1,2,1.4,2.3,2.3,0,0,1-.8,2.2L100.1,33a1.7,1.7,0,0,0-.5,1.5c.3,2.5.7,5,1.1,7.5a2.3,2.3,0,0,1-.8,2.3,2,2,0,0,1-2.2,0l-6.9-3.4a2.2,2.2,0,0,0-1.6,0c-2.3,1.1-4.5,2.3-6.9,3.3a2.8,2.8,0,0,1-2.2,0c-.8-.3-.9-1.3-.8-2.1.4-2.4.7-4.8,1.1-7.1a2.2,2.2,0,0,0-.7-2.3c-1.1-1-2.1-2.1-3.1-3.2s-1.1-2.1-.2-2.9,1.9-.7,2.9.3l4.4,4.4a2.5,2.5,0,0,1,.7,2.5C84.1,35.5,83.9,37.3,83.6,39.4Z" style="fill:#fff"/><path d="M30.7,19.7c-1,1.8-1.8,3.3-2.6,5a3,3,0,0,1-2.3,1.6c-1.8.2-3.5.6-5.2.9l-.4.5,3.9,3.4a2.9,2.9,0,0,1,1,2.9c-.3,1.7-.5,3.4-.8,5.4,1.6-.8,3.1-1.4,4.4-2.2a3.5,3.5,0,0,1,4,0c1.3.8,2.8,1.4,4.3,2.2-.2-2-.5-3.9-.8-5.7a2.7,2.7,0,0,1,.8-2.4c1.5-1.4,2.9-2.9,4.3-4.4s2.2-1.2,3.1-.3.7,1.9-.3,2.9-2.3,2.3-3.4,3.6a2.2,2.2,0,0,0-.5,1.4c.3,2.4.7,4.7,1.1,7.1a6.1,6.1,0,0,1-.1,1.9,1.9,1.9,0,0,1-2.8.8L31.7,41a2,2,0,0,0-2.1,0l-6.5,3.2a2.3,2.3,0,0,1-2.4.1A2.4,2.4,0,0,1,20,42c.4-2.5.7-5,1.1-7.4a1.5,1.5,0,0,0-.5-1.7c-1.8-1.7-3.4-3.5-5.1-5.2a2.3,2.3,0,0,1-.9-2.4c.4-1,1.2-1.2,2.1-1.4,2.4-.4,4.9-.7,7.3-1.2a1.9,1.9,0,0,0,1.2-.9c1.2-2.2,2.4-4.4,3.5-6.6a2,2,0,0,1,1.9-1.4,2,2,0,0,1,2,1.4c1.4,2.6,2.8,5.2,4.1,7.8s.5,2.5-.6,3-2.1.1-2.8-1.3Z" style="fill:#fff"/><path d="M4.6,17.1l4.9,1.7a1.7,1.7,0,0,1,.7,2.2,1.6,1.6,0,0,1-1.9,1.2,22.5,22.5,0,0,1-4.4-1.4A1.5,1.5,0,0,1,3,18.7,6.1,6.1,0,0,1,4.6,17.1Z" style="fill:#fff"/><path d="M111.7,22.5a7.5,7.5,0,0,1-1.5-1.6,1.5,1.5,0,0,1,.8-2.1,22.5,22.5,0,0,1,4.4-1.4,1.5,1.5,0,0,1,1.9,1.1,1.5,1.5,0,0,1-.7,2.2A46,46,0,0,1,111.7,22.5Z" style="fill:#fff"/><path d="M4.5,37.9A11.4,11.4,0,0,1,3,36.2a1.4,1.4,0,0,1,.8-2,39.6,39.6,0,0,1,4.5-1.5A1.6,1.6,0,0,1,10.2,34a1.6,1.6,0,0,1-.7,2.1Z" style="fill:#fff"/><path d="M117.5,35.4c0,1.6-1.1,2.5-2.3,2.2l-4-1.3a1.8,1.8,0,0,1-1.1-2.2,1.7,1.7,0,0,1,2.1-1.4,30.9,30.9,0,0,1,4.3,1.4A3.8,3.8,0,0,1,117.5,35.4Z" style="fill:#fff"/><path d="M14.8,3.9a4.4,4.4,0,0,1,1.3.9,16.1,16.1,0,0,1,2.1,3,1.8,1.8,0,0,1-.4,2.7,1.8,1.8,0,0,1-2.6-.5,35.5,35.5,0,0,1-2.3-3.1C12.1,5.6,13,4,14.8,3.9Z" style="fill:#fff"/><path d="M107.9,5.6a5.3,5.3,0,0,1-.5,1.4l-2.2,3a1.9,1.9,0,0,1-2.7.4,1.8,1.8,0,0,1-.4-2.6,35.5,35.5,0,0,1,2.3-3.1,1.6,1.6,0,0,1,2.2-.6A9.3,9.3,0,0,1,107.9,5.6Z" style="fill:#fff"/><path d="M4.6,117.3a2,2,0,0,1-2.1-2,2.1,2.1,0,0,1,2-1.9,2,2,0,0,1,2.2,1.9A2,2,0,0,1,4.6,117.3Z" style="fill:#fff"/></g></svg>