<svg xmlns="http://www.w3.org/2000/svg" viewBox="0 0 120 120"><title>CAEM</title><g id="Capa_20" data-name="Capa 20"><circle cx="60" cy="60" r="59.5" style="fill:#f3f3f3"/><path d="M103.9,45.4c-.1.6-.3,1.2-.4,1.8C102.1,52.5,98,56,92.2,57v3H89.3V57.6a1.8,1.8,0,0,0-.5-.7,13.5,13.5,0,0,1-7.1-3.4c0-.1-.1-.1-.2-.1L78,56c3.8,7.8,3.3,15.3-1.8,22.4l3.9,2.9a13.6,13.6,0,0,1,9.2-3.8V74.7h2.9v2.5c0,.5.2.7.7.9a13,13,0,0,1,9.4,10.6c1.5,8.5-6.1,16.3-14.7,15.1a12.9,12.9,0,0,1-11-9.5c0-.1-.1-.2-.1-.4v-.2H73.3v-3h2.6c.3-1.3.4-2.6.8-3.8a30.7,30.7,0,0,1,1.4-3.4l-3.9-2.9a20.4,20.4,0,0,1-13.8,5.7,20.2,20.2,0,0,1-14.1-5.2l-4.4,2.6a13.9,13.9,0,0,1,2,7h2.9v2.9H43.6a2.5,2.5,0,0,0-.2.7,13.2,13.2,0,0,1-25.7-1.7,13.1,13.1,0,0,1,9.2-14.4c.7-.2,1-.5.9-1.2a17.7,17.7,0,0,1,0-2.3h2.9v2.8A13.5,13.5,0,0,1,40,81.4l4.1-2.5c-5.3-7.2-6-14.8-2.1-22.9l-3.4-2.5c-1.5.9-2.9,1.8-4.3,2.5a9.2,9.2,0,0,1-2.7.8c-.7.1-1,.4-.9,1.1a13.3,13.3,0,0,1,0,2H27.8V57a13.3,13.3,0,0,1-7.4-3.4A13.1,13.1,0,0,1,37.8,34a1.4,1.4,0,0,0,2,.2l2.1-.8L43,36l-2.5,1.1a12.5,12.5,0,0,1,1.9,7,12.7,12.7,0,0,1-2.1,7l3.3,2.5a21.1,21.1,0,0,1,6.6-5.7,21.7,21.7,0,0,1,8.3-2.5v-3A13.9,13.9,0,0,1,52,39.7,13.1,13.1,0,0,1,47.7,34l-2.2,1-1.2-2.7,2.4-1a27.5,27.5,0,0,1,.6-5.2A12.7,12.7,0,0,1,58,16.3l.5-.2h3.3A13.2,13.2,0,0,1,73.1,30.7a1,1,0,0,0,.4.7l1.8,1L74,34.9l-1.7-.8a13.6,13.6,0,0,1-10.8,8.3v3a21.7,21.7,0,0,1,8.3,2.5,21.1,21.1,0,0,1,6.6,5.7l3.3-2.5a13.3,13.3,0,0,1-.6-13.5l-2.2-1.2,1.3-2.6L81,35.2a2.1,2.1,0,0,1,.4-.6,13.2,13.2,0,0,1,22.1,5.9c.1.6.3,1.2.4,1.8ZM52.6,64.9C50.4,60.1,51,56,54.4,53.2A8.6,8.6,0,0,1,65.2,53c3.7,2.7,4.4,6.7,2.2,11.9l.6.3a8.4,8.4,0,0,1,4.9,6.1,29.7,29.7,0,0,1,.3,4.2v1.8A17.5,17.5,0,1,0,45.8,55.5c-5.7,7.8-3.3,17.6,1,21.7V75.4a27.3,27.3,0,0,1,.3-4.1A8.5,8.5,0,0,1,52.6,64.9Zm13-35.1a5.6,5.6,0,0,1,3.2,4.5,9.9,9.9,0,0,0-2.1-12.7,10.2,10.2,0,0,0-13.6.1,10,10,0,0,0-1.9,12.6,5.7,5.7,0,0,1,3.2-4.5c-.7-2.9,0-5.3,2.5-6.9a5.3,5.3,0,0,1,6.2,0C65.6,24.5,66.3,26.9,65.6,29.8ZM23.7,44.3c-.7-2.8,0-5.2,2.5-6.8a5.4,5.4,0,0,1,6.2,0,5.8,5.8,0,0,1,2.4,6.9A5.9,5.9,0,0,1,38.1,49,10.2,10.2,0,0,0,21.4,37.4c-3.2,3.8-2.8,9.1-.9,11.5C20.9,46.7,21.4,46,23.7,44.3ZM81.9,49a5.8,5.8,0,0,1,3.3-4.6c-.1-.3-.1-.5-.2-.8a5.9,5.9,0,0,1,7.5-6.8,6.1,6.1,0,0,1,4,6.9c-.1.2-.1.7.1.8a5.9,5.9,0,0,1,2.9,4.4,9.9,9.9,0,0,0-1.6-12.3,10.4,10.4,0,0,0-13.6-.7A10.2,10.2,0,0,0,81.9,49ZM25.2,91.2a3.7,3.7,0,0,1-.2-.9,5.8,5.8,0,0,1,4.9-6.8,5.7,5.7,0,0,1,6.6,5.4c.1.7-.4,1.6-.1,2.2s1.2.9,1.6,1.5a21.9,21.9,0,0,1,1.7,2.9c2.1-3.1,1.9-9-2.3-12.6a10.4,10.4,0,0,0-14,.6c-3.9,4-3.3,9.8-1.4,12.2A5.6,5.6,0,0,1,25.2,91.2ZM98,95.8c2.8-4.1,1.5-10.1-2.5-13.2a10.2,10.2,0,0,0-14,1.5c-3.3,3.8-2.9,9.2-1,11.6A5.8,5.8,0,0,1,83,91.6a1,1,0,0,0,.6-1.2,5.8,5.8,0,0,1,11.2-2.8,22.2,22.2,0,0,1,.3,3.7A5.9,5.9,0,0,1,98,95.8ZM59.9,68.4l4.6-4.7a5.8,5.8,0,0,0-.5-8,6,6,0,0,0-8.2.2,5.8,5.8,0,0,0-.1,8ZM96.6,50.8V49.5a2.7,2.7,0,0,0-2.5-2.7c-1.5-.2-2-1.3-1.1-2.6a2.9,2.9,0,0,0-.4-4,3,3,0,0,0-3.8,0,3,3,0,0,0-.3,4.1c.9,1.3.4,2.3-1.2,2.5a2.6,2.6,0,0,0-2.4,2.7v2.1c-.1.5.1.8.6,1.1a10.2,10.2,0,0,0,9.3.6C96,52.8,97.1,52.2,96.6,50.8Zm-73.2-.3h0c0,.2.1.4,0,.6s.3,1.5,1.2,1.9a10.5,10.5,0,0,0,9,.2c1.1-.5,1.8-1.1,1.5-2.4V49.5a2.6,2.6,0,0,0-2.4-2.7c-1.7-.2-2.1-1.2-1.2-2.6a2.7,2.7,0,0,0-.3-3.9,2.9,2.9,0,0,0-3.9,0,2.8,2.8,0,0,0-.3,3.9,1.6,1.6,0,0,1-1.2,2.7c-1.5,0-2.3,1.1-2.4,2.6Zm1.5,46.9c0,1.9,0,1.9,1.7,2.7a10.4,10.4,0,0,0,8.3,0c1.2-.5,2-1.1,1.7-2.6a4,4,0,0,1,0-1.1,2.8,2.8,0,0,0-2.5-2.8c-1.6-.2-2-1.2-1.1-2.5a2.8,2.8,0,0,0-.4-4,2.8,2.8,0,0,0-3.8,0,2.8,2.8,0,0,0-.4,3.9c1,1.4.6,2.4-1.1,2.7a2.5,2.5,0,0,0-2.4,2.7ZM54.2,35.9h0v.6c-.2.9.2,1.4,1,1.8a10.1,10.1,0,0,0,9.4.1,1.8,1.8,0,0,0,1.3-2c-.1-.5,0-1-.1-1.6a2.5,2.5,0,0,0-2.4-2.6c-1.5-.2-2.1-1.3-1.2-2.6a2.8,2.8,0,0,0-.3-4,2.8,2.8,0,0,0-3.8,0,2.9,2.9,0,0,0-.4,4c1,1.3.5,2.4-1.2,2.6a2.5,2.5,0,0,0-2.3,2.6A4.1,4.1,0,0,0,54.2,35.9ZM95.1,97.7V96.4a2.7,2.7,0,0,0-2.4-2.8c-1.6-.2-2.1-1.2-1.2-2.5a2.8,2.8,0,0,0-.3-4,2.9,2.9,0,0,0-3.9,0A2.8,2.8,0,0,0,87,91c.9,1.4.5,2.4-1.2,2.7a2.5,2.5,0,0,0-2.4,2.6,14.7,14.7,0,0,1,0,2.1,1.1,1.1,0,0,0,.6,1.1,10.4,10.4,0,0,0,9.4.6C94.6,99.6,95.6,99,95.1,97.7ZM57.6,83.2l-1.8-6.1a2.8,2.8,0,0,1,.2-2.2c.7-1.3,1.3-2.5,1.9-3.8s.2-.7-.2-1.1l-2.2-2.2a1.3,1.3,0,0,0-1-.3,5.6,5.6,0,0,0-4.7,5.7q-.1,3.1,0,6.3c0,.2,0,.6.2.7A16.5,16.5,0,0,0,57.6,83.2Zm4.9-.1c.1,0,.2.1.2,0a15.1,15.1,0,0,0,7.2-2.8,1.1,1.1,0,0,0,.3-.8c.1-2.1.1-4.2,0-6.4a5.7,5.7,0,0,0-4.7-5.6,1.3,1.3,0,0,0-1,.3L62.2,70c-.4.4-.3.7-.1,1.2s1,2.2,1.7,3.2a3.6,3.6,0,0,1,.2,3.2C63.4,79.4,63,81.2,62.5,83.1Zm-2.6-2.5h.2c.3-1,.5-2.1.9-3.1s-.4-2.6-1-4l-.9,1.8c-.2.4-.5.8-.4,1.1Z" style="fill:#20427c"/><path d="M27.8,65.8V63h2.9v2.8Z" style="fill:#20427c"/><path d="M89.3,65.8V63h2.8v2.8Z" style="fill:#20427c"/><path d="M27.8,68.8h2.9v2.8H27.8Z" style="fill:#20427c"/><path d="M89.3,71.6V68.8h2.9v2.8Z" style="fill:#20427c"/><path d="M49.8,93.6V90.8h2.8v2.8Z" style="fill:#20427c"/><path d="M70.2,90.8v2.8H67.4V90.8Z" style="fill:#20427c"/><path d="M55.7,90.7h2.8v2.9H55.7Z" style="fill:#20427c"/><path d="M61.5,90.7h2.8v2.9H61.5Z" style="fill:#20427c"/></g></svg>