<svg xmlns="http://www.w3.org/2000/svg" viewBox="0 0 120 120"><title>CAEM</title><g id="Capa_19" data-name="Capa 19"><circle cx="60" cy="60" r="59.5" style="fill:#f3f3f3"/><path d="M34.7,71.2c-2.1,0-4.2-.1-6.2.1a8.7,8.7,0,0,1-6.2-1.9c-2.3-1.7-2-1-2-3.9-.1-5.8-.1-11.6-.1-17.4,0-1.5.4-1.8,1.9-1.8H25a8.6,8.6,0,0,0,4.7-.9,6.4,6.4,0,0,1,2.4-.4h2.6v-18c0-2.7,1.6-4.3,4.4-4.3h8.7V21.3a4,4,0,0,1,4-3.9H67.6a3.9,3.9,0,0,1,3.9,3.9v1.3H80c3.2,0,4.6,1.5,4.6,4.7V50.8h.2l.4-.7c2.4-4.1,4.7-8.3,7.2-12.4a3.8,3.8,0,0,1,6.5-.5,3.9,3.9,0,0,1,.2,4.6L92.1,54c-2.4,4.1-4.7,8.2-7,12.3a2.3,2.3,0,0,0-.4,1.4c-.1,8-.1,16.1-.1,24.1,0,2.8-1.5,4.4-4.4,4.4H39.1c-2.8,0-4.4-1.6-4.4-4.4V71.2ZM41.3,45c1.3,0,2.6-.1,3.8,0A5,5,0,0,1,50,48.2a1.1,1.1,0,0,0,1.2.7H74.1v2.6H50.9a1,1,0,0,0-.7.4,5.4,5.4,0,0,1-5.5,3.6c-1.1-.1-2.2,0-3.4,0V89.6H78V75l-2.2,2a1.4,1.4,0,0,1-1.7.2,1.3,1.3,0,0,1-.6-1.5c.2-1,.5-2,.6-3a22.1,22.1,0,0,1,3.6-9.5,3.7,3.7,0,0,0,.4-1.4V29.2H71.5c-.3,2.4-1.7,3.9-3.8,3.9h-16a3.7,3.7,0,0,1-3.7-3,2.9,2.9,0,0,1-.2-.9H41.3ZM28.5,56.9a3,3,0,0,0,3.6-2.5c.2-1.4.5-1.6,1.9-1.6H45a2.6,2.6,0,1,0,0-5.2H33.1a7.1,7.1,0,0,0-3.8.8,5.9,5.9,0,0,1-1.9.5H23a.3.3,0,0,0-.1.2v17a.8.8,0,0,0,.4.7,6.5,6.5,0,0,0,5.5,1.8h5.8V55.3c-1.8,3.8-4.2,5.1-6.8,4ZM59.7,30.5h7.5c1.2,0,1.7-.5,1.7-1.7V21.6c0-1.2-.5-1.6-1.7-1.6H52.1c-1.2,0-1.6.4-1.6,1.6v7.3c0,1.1.4,1.6,1.6,1.6Zm33,12L95,43.8l1.9-3.3a1.3,1.3,0,0,0-.5-1.9,1.3,1.3,0,0,0-1.8.5ZM77.4,70l-.5,2.5,1.9-1.7Z" style="fill:#20427c"/><path d="M45.3,67.2V64.7H74.1v2.5Z" style="fill:#20427c"/><path d="M45.3,75.1V72.6H67.5v2.5Z" style="fill:#20427c"/><path d="M70.2,41.1v2.5h-21V41.1Z" style="fill:#20427c"/><path d="M54.5,59.3V56.8H74.1v2.5Z" style="fill:#20427c"/><path d="M57,80.5V83H45.3V80.5Z" style="fill:#20427c"/><path d="M74.1,83H62.4V80.5H74.1Z" style="fill:#20427c"/><path d="M54.4,38.3V35.8H64.9v2.5Z" style="fill:#20427c"/><path d="M45.3,59.3V56.8h5.1v2.5Z" style="fill:#20427c"/></g></svg>