<svg xmlns="http://www.w3.org/2000/svg" viewBox="0 0 120 120"><title>CAEM</title><g id="Capa_18" data-name="Capa 18"><circle cx="60" cy="60" r="59.5" style="fill:#f3f3f3"/><path d="M27.6,77.9H92.5V39.4c0-1.5,0-1.5-1.5-1.5H87.3V57.3c0,1.8-.5,2.2-2.2,2.2H50.9v1.8c0,2,.1,3.9,0,5.9a4.2,4.2,0,0,1-4.4,4.5H42a3.9,3.9,0,0,1-3.8-3.9c-.1-8.1,0-16.3,0-24.4a1.4,1.4,0,0,1,1.4-1.6c.8-.1,1.4.5,1.5,1.5a3.4,3.4,0,0,1,0,1V66.7c0,1.7.3,2,2,2h3.1c1.4,0,1.7-.4,1.7-1.8V43.3c.1-1,.6-1.6,1.5-1.6s1.5.6,1.5,1.7v13H84.2V25.8H52.7a1.3,1.3,0,0,0-1.4.9,7.3,7.3,0,0,1-8.9,3.8,7.4,7.4,0,0,1-5.3-8.1,7.5,7.5,0,0,1,7.2-6.6,7.7,7.7,0,0,1,7.6,5.8,5.3,5.3,0,0,0,.3,1.2H88.8a1.4,1.4,0,0,1,1.5,1.3A1.4,1.4,0,0,1,89,25.7H87.3v9.1h3.4c3.2-.3,4.9,1.6,4.8,4.8-.1,12.7,0,25.3,0,38a3.5,3.5,0,0,0,.8,2.4c2.1,2.8,4.1,5.7,6.1,8.5a3.4,3.4,0,0,1-2.9,5.7h-79A3.5,3.5,0,0,1,17,92.5c-.7-1.4-.2-2.7.6-3.9,2.2-2.9,4.3-5.9,6.4-8.9a3.1,3.1,0,0,0,.5-1.7c.1-12.9.1-25.8.1-38.7,0-3.1,1.3-4.5,4.4-4.4a24.3,24.3,0,0,1,2.7,0c1.6,0,3,0,4.4-1.2a6.3,6.3,0,0,1,3.1-1c3.3-.1,6.6-.1,10,0a6.9,6.9,0,0,1,2.8.8l11.7,6.1c1,.6,1.4,1.4.9,2.2s-1.3,1-2.3.5l-11.4-6a6.6,6.6,0,0,0-2.5-.7H40a4.2,4.2,0,0,0-4.4,4.5V53.8a3.3,3.3,0,0,1,0,1c-.4.5-.9,1.1-1.4,1.2a2.2,2.2,0,0,1-1.4-1c-.3-.2-.2-.8-.2-1.2V40.6a26.5,26.5,0,0,1,.2-2.7H28.3c-.3,0-.5.4-.7.7s0,.4,0,.6V77.9Zm-8,13.3h80.8a3.6,3.6,0,0,1-.3-.7c-2.2-3-4.3-6.1-6.6-9.1a1.3,1.3,0,0,0-1-.4H27.7a1.6,1.6,0,0,0-1.4.7l-6.1,8.6A6.4,6.4,0,0,0,19.6,91.2Zm25-63.5a4.4,4.4,0,0,0,4.5-4.5,4.5,4.5,0,0,0-4.5-4.5,4.4,4.4,0,0,0-4.5,4.5A4.4,4.4,0,0,0,44.6,27.7Z" style="fill:#20427c"/><path d="M75.9,46.7h.9a1.5,1.5,0,0,1,.2,2.9H71.9a1.4,1.4,0,0,1-1.3-1.5A1.5,1.5,0,0,1,72,46.8h.8V35.6h-.2c-1.4-.1-2-.7-2-1.7s.9-1.3,2.1-1.3c3.1,0,3.2,0,3.2,3.1V46.7Z" style="fill:#20427c"/></g></svg>