<svg xmlns="http://www.w3.org/2000/svg" viewBox="0 0 120 120"><title>CAEM</title><g id="Capa_22" data-name="Capa 22"><path d="M44.9,2.5A29.6,29.6,0,0,1,50,3.9,19.9,19.9,0,0,1,62.9,22.4v3.8a10.1,10.1,0,0,0,.8,4.8c1.2,2.2.6,4.5-1,6.4a2.2,2.2,0,0,0-.4,1.9c.4,2.6,2.3,4.1,4.5,5.2a2.9,2.9,0,0,0,1.3.1h39.6c3,0,5,1.5,5.6,4.1a4.9,4.9,0,0,1,.1,1.2c.1,8.5.1,17.1.1,25.6a1.3,1.3,0,0,1-.1.6,1.5,1.5,0,0,1-1.5,1.5,1.7,1.7,0,0,1-1.8-1.4,4.8,4.8,0,0,1,0-1.2V50.6c0-2.1-.6-2.6-2.6-2.6H67c-2,0-2.6.5-2.6,2.5v61.1c0,2,.6,2.5,2.5,2.5H96.4v-7.7a16,16,0,0,1,.3-2.3,5.2,5.2,0,0,1,5.2-3.6h8.2V83.6a1.7,1.7,0,0,1,1.7-1.5,1.6,1.6,0,0,1,1.6,1.6,12.7,12.7,0,0,1,.1,2c0,5.2-.1,10.5,0,15.8a3,3,0,0,1-1,2.3L99.8,116.6a3.3,3.3,0,0,1-2.3.9H66.7c-3.5,0-5.6-2.1-5.7-5.7v-22H46.6A1.7,1.7,0,0,1,45.1,88a1.5,1.5,0,0,1,1.7-1.5H61V68.2l-.3-.2c-.2.2-.2.5-.4.7a23.8,23.8,0,0,1-7.1,5.5A5.2,5.2,0,0,1,46,71.9l-2.4-4.7c-.2-.3-.5-.6-.8-.6a1,1,0,0,0-.7.6c-.8,1.5-1.6,3-2.3,4.5-1.6,3-4.4,4-7.5,2.4A21.9,21.9,0,0,1,21.6,62.8l-.5-1.1c-3.2,1.3-6.6,2-8.8,4.9a11,11,0,0,0-2.4,6.7V84.9c0,1.1.4,1.6,1.4,1.6h6V72.1a1.7,1.7,0,0,1,1-1.8c1.2-.6,2.4.3,2.4,1.8V86.5H39.2a1.3,1.3,0,0,1,1.3,1.4,1.5,1.5,0,0,1-1,1.7,3.2,3.2,0,0,1-1.4.2H11.6q-5.1,0-5.1-5.1v-11a14.3,14.3,0,0,1,9.4-13.6l3.3-1.3a11.2,11.2,0,0,1-2.8-8.1c.2-3.1,1.2-5.7,4.2-7.2s2.6-2.9,2.9-4.9c.1-.3-.1-.6-.3-.9a6.3,6.3,0,0,1-.7-7.9,5.8,5.8,0,0,0,.3-1.4,72.3,72.3,0,0,1,.4-9.3A19.6,19.6,0,0,1,40.1,2.7l.6-.2ZM59.5,26.8c0-1.4.1-3,0-4.5A16.5,16.5,0,0,0,36.1,7.4c-8.2,3.7-10.7,11.1-9.9,19.4h3.6l5-.2a6.2,6.2,0,0,0,6.3-4.7A1.8,1.8,0,0,1,44,21a2.4,2.4,0,0,1,.7,1.2c1,2.6,2.7,4.2,5.5,4.4l4,.2ZM31.2,30.3V38A11.6,11.6,0,0,0,41.4,49.4c6,.7,11.6-3,12.7-8.9.6-3.3.3-6.7.4-10.1l-.2-.3c-4.3.1-8.6,0-11.4-4.2a9.1,9.1,0,0,1-5.2,3.7A64.7,64.7,0,0,1,31.2,30.3Zm5.7,21.4c1,4.4-2.5,4.7-5.1,5.9,4.6,6.9,16.5,8,22,0a27.6,27.6,0,0,1-3.9-1.8c-1.5-.8-1.2-2.5-1.2-4A16.6,16.6,0,0,1,36.9,51.7ZM26.7,40c0,.2-.1.3-.1.4a9.4,9.4,0,0,1-4.9,6.4,2.5,2.5,0,0,0-1,.8c-1.8,2.5-1,7.5,1.6,9.4a1.3,1.3,0,0,0,1.2.1c3.2-1.1,6.3-2.4,9.5-3.6.2-.1.5-.2.6-.4s-.1-3.4-.7-3.9a14,14,0,0,1-4.7-8.1C28,40.2,27.7,39.8,26.7,40ZM59,40c-.9-.2-1.3.1-1.5,1a12.6,12.6,0,0,1-4,7.4,3.6,3.6,0,0,0-1.4,3.7v.3c-.1.6.1.9.7,1.1l7.4,2.9.8.2c0-2,.1-3.8,0-5.7s.2-3.6,1.7-5A9.6,9.6,0,0,1,59,40ZM24.3,60.5a19.4,19.4,0,0,0,9.6,10.7,1.9,1.9,0,0,0,2.6-.6l2.3-4.5a17.2,17.2,0,0,1-10.4-7.2Zm32.9-1.7a17.3,17.3,0,0,1-10.3,7.3Q48,68.4,49,70.3a1.9,1.9,0,0,0,2.8.9l2.7-1.7a19.7,19.7,0,0,0,6.3-7.7c.5-1.1.4-1.4-.8-1.9Zm50.5,45h-6.1a1.6,1.6,0,0,0-1.7,1.4c-.1,2,0,4.1,0,6.3l.8-.7ZM27.8,30.2c-2,.4-3,1.4-3,3.1a3.3,3.3,0,0,0,3,3.2Zm30.1,6.3a3.3,3.3,0,0,0,3-3.7,2.8,2.8,0,0,0-3-2.4Z" style="fill:#20427c"/><path d="M86.9,71.2,90.1,68c.9-1,1.9-1.1,2.6-.3s.7,1.7-.3,2.7l-3.9,3.9c-1.1,1.1-1.9,1.1-2.9.1l-3-3a1.7,1.7,0,0,1-.1-2.5A1.8,1.8,0,0,1,85,69Z" style="fill:#20427c"/><path d="M87.2,93.3l-4.3,3.4c-1.3,1-2.5,1.6-4.1.8s-1.8-2-1.7-3.6c0-4.3,0-8.7-.1-13.1a3.1,3.1,0,0,0-.5-1.7,13.8,13.8,0,1,1,24.4-10.6A13.6,13.6,0,0,1,98.1,79a3.3,3.3,0,0,0-.6,1.9c-.1,4.4-.1,8.9-.1,13.3a3.5,3.5,0,0,1-1.2,3,3.2,3.2,0,0,1-4-.1ZM76.8,70.4a10.5,10.5,0,1,0,20.9.1,10.5,10.5,0,1,0-20.9-.1ZM93.9,94.2V82.8l-4.4,1.3a1.1,1.1,0,0,0-.5.9,36.8,36.8,0,0,0,0,4.7,1.7,1.7,0,0,0,.3,1ZM80.5,82.8V94.3l4.7-3.7a.8.8,0,0,0,.4-.7c0-1.7,0-3.4-.1-5.1a.8.8,0,0,0-.5-.7Z" style="fill:#20427c"/></g></svg>