<svg xmlns="http://www.w3.org/2000/svg" viewBox="0 0 120 120"><title>CAEM</title><g id="Capa_23" data-name="Capa 23"><path d="M8.6,117.5a4.4,4.4,0,0,1-3-5c.1-1.4,0-2.7,0-4.1a7.1,7.1,0,0,1,4.7-7l7.4-3a1.4,1.4,0,0,0,.9-1.3c.2-2.5,0-4.9-2.2-6.7a7.4,7.4,0,0,1-1.7-2.5A34.8,34.8,0,0,0,12,83.5c-1.1-1.4-1.5-3.6-1.9-5.5a15.5,15.5,0,0,1,.2-7.4c.4-1.2,1.2-1.8,2.1-1.5s1.5,1.1,1.2,2.4a13.8,13.8,0,0,0,.2,7.8l.4-.2a21.2,21.2,0,0,1,7.4-4.7,9,9,0,0,0,5.1-4.7c1.3-2.9.2-5-3-5.1-1.6,0-3.3.7-4.9,1l-1,.5a1.5,1.5,0,0,1-2.1-.7,1.5,1.5,0,0,1,.6-2.2,12.2,12.2,0,0,1,9.5-1.6,6.7,6.7,0,0,1,3.9,2.7,1.4,1.4,0,0,0,1,.5c6.4-.7,9.4,4.4,9.7,8.5a16.8,16.8,0,0,1-2.3,9.8c-.1.2-.2.5-.4.5s-1.3,2.1-2,3.1-2.6,3.7-3.9,5.6a2.4,2.4,0,0,0-.5,1.3c-.1,1.5-.5,3.2.1,4.2s2.5,1.2,3.7,1.8,3.1,1.3,4.7-.4,2.6-1.3,4-1.9L51.7,94a1.2,1.2,0,0,0,.9-1.3c-.1-1.5,0-3-.1-4.6a2.5,2.5,0,0,0-.6-1.3c-.6-.8-1.3-1.4-1.9-2.2s-.8-2,.1-2.6,1.7-.5,2.5.5l.9,1c3.8,4.2,9.4,4.2,13.1,0s4.6-8.2,4.8-13a3.4,3.4,0,0,0-.9-1.8c-1-1.1-2.1-2.1-3.2-3.1a.7.7,0,0,0-.6-.4l-4.4-1a9.3,9.3,0,0,1-6.5,3.9A5.9,5.9,0,0,0,52,69.7,8.6,8.6,0,0,1,49.7,71a1.4,1.4,0,0,0-.8,1.7c.2,1,.3,1.9.5,2.9s-.2,2-1.2,2.2a1.8,1.8,0,0,1-2.1-1.5v-.2A5.7,5.7,0,0,0,43.8,72c-1.9-1.7-2.4-4.1-2.4-6.5a6.6,6.6,0,0,0-.9-3.3,8.4,8.4,0,0,1,4.9-11.9,2.1,2.1,0,0,0,1.4-1.2,6.4,6.4,0,0,1,8.9-2.6,2,2,0,0,0,1.3.2,7.4,7.4,0,0,1,9.3,2.8l.2.3a17.3,17.3,0,0,1,3.9-.2A6.1,6.1,0,0,1,75.7,56a1.5,1.5,0,0,0,.7,1.5,6,6,0,0,1,2.5,6.9,14.5,14.5,0,0,1-3.8,7.1,3.3,3.3,0,0,0-.5,1.5,23.8,23.8,0,0,1-4.7,11.9,1.3,1.3,0,0,1-.5.6,4.5,4.5,0,0,0-1.8,4.8c.1,1.1-.3,2.5.2,3.3s1.9,1,2.9,1.4l6.1,2.5V80.1a17.8,17.8,0,0,1,3.1-10.2c.7-1.1,1.6-1.4,2.5-.8s1,1.5.3,2.6a15,15,0,0,0-2.5,9V98.1a2.3,2.3,0,0,0,3.1,2.2L88,98.4c.5-.3.8-.5.8-1.2a5.4,5.4,0,0,0-1.3-4,18.2,18.2,0,0,1-4.4-10.9c-.1-1.7.3-2.2,2-2.6l3.5-.8a11.6,11.6,0,0,0,8.7-8.4c.7-2.2,1.6-2.5,3.6-1.4,3.6,2.1,5.4,5.4,6,9.5,1,5.9-1,10.9-4.8,15.3-1,1.3-.5,2.6-.6,3.9s.2.3.4.4l8.1,3.3c0-.4.1-.7.1-1V80.2A15,15,0,0,0,97.6,65.3,14.1,14.1,0,0,0,89,66.4l-.7.3a1.7,1.7,0,0,1-2.3-.8,1.7,1.7,0,0,1,.9-2.3,18.3,18.3,0,0,1,26.5,16.5c.1,7.8,0,15.5.1,23.3a13.8,13.8,0,0,0,.3,2c.2,1,.5,2,.6,3s-.1,2.7,0,4.1a4.4,4.4,0,0,1-3,5Zm65.7-50a37.3,37.3,0,0,0,1.4-4.4,2.6,2.6,0,0,0-2.1-3.2c-1.8-.6-2.1-1.1-1.5-3A2.9,2.9,0,0,0,71,53.4a2.9,2.9,0,0,0-3.8.3c-1.6,1.4-2.7,1-3.2-1a4.1,4.1,0,0,0-6.4-2.5c-1.3.9-1.8.9-2.9-.2a3,3,0,0,0-5.2,1.4,2,2,0,0,1-2.1,1.9,4.9,4.9,0,0,0-3.7,7.5,6.2,6.2,0,0,1,1,3.9,12.4,12.4,0,0,0,.3,2.7,12.1,12.1,0,0,0,.9,2l3.5-2a5.7,5.7,0,0,0,1.5-1.6,1.8,1.8,0,0,1,2.1-1c3.6.5,5.8-.8,7.3-4.2.7-1.4,2-1.7,3.1-.4a3.7,3.7,0,0,0,4.2,1.4c1.2-.3,1.8.2,2.3,1.4a9.1,9.1,0,0,0,1.7,2.3A16,16,0,0,0,74.3,67.5Zm25.9,5.2c-2.6,6.1-7.3,9.3-13.7,10.1a16.5,16.5,0,0,0,5.6,10.4c2.2,1.8,4,1.9,6.1-.1,4.1-3.8,6.3-8.5,5.4-14.3A9.9,9.9,0,0,0,100.2,72.7ZM13.4,103.8c2.5,3.4,4.9,6.6,7.4,9.8a1.4,1.4,0,0,0,1.1.5,58,58,0,0,0,5.9,0,2.1,2.1,0,0,0,1.5-.7c2-2.2,4-4.5,5.9-6.8a13.6,13.6,0,0,0,1.5-2.7l-6.4-2.6a1.1,1.1,0,0,0-.9.2,7.8,7.8,0,0,1-9,0c-.3-.1-.7-.3-.9-.2ZM26.1,75.9c-1.5.7-3.3,1.4-4.9,2.3a48.4,48.4,0,0,0-4.6,3.3,1.5,1.5,0,0,0-.4,1.3,15,15,0,0,0,5.3,8c2.4,2,4.4,2,6.8,0a16,16,0,0,0,5.2-7.5,1.6,1.6,0,0,0-.6-2Zm36.8,38.2A34.1,34.1,0,0,1,69.2,98a6.9,6.9,0,0,1-1.5-.7,2.1,2.1,0,0,0-2.4.2,8.8,8.8,0,0,1-9.8.4,3.5,3.5,0,0,0-4-.2l-.7.4a33.3,33.3,0,0,1,6.3,16Zm9.6-14.8A29,29,0,0,0,66.4,114H80.6v-8.2a4.7,4.7,0,0,0-2.6-4.1C76.2,100.8,74.4,100.1,72.5,99.3ZM53.7,114.1a30.3,30.3,0,0,0-5.6-14c-.3-.5-.6-.8-1.2-.5l-4.4,1.9a4.2,4.2,0,0,0-2.8,3.6c-.2,3-.1,6-.1,9Zm44.9,0h11.5c.7,0,1-.3,1-.9s0-3.2,0-4.8a4.1,4.1,0,0,0-2.7-3.9l-6.2-2.5-.8-.2C101.3,106.1,100.9,110.2,98.6,114.1ZM92.1,97.2c.2,5.6-.5,11.2,3,16.1,3.5-5,2.8-10.5,3-16.1A6.7,6.7,0,0,1,92.1,97.2Zm-.5,16.9c-2.4-3.9-2.6-8.1-2.8-12.4l-4.9,2v10.4h7.7ZM36.1,79.5a12.5,12.5,0,0,0,1-6c-.3-3.3-2.7-5.6-5.6-5.4a1,1,0,0,0-1.1.9,13.3,13.3,0,0,1-1.1,3c-.7,1-.4,1.6.3,2.4l1,.9Zm19.8,9.8v4.4c0,.3.3.6.5.8a6,6,0,0,0,7.3.1,1.8,1.8,0,0,0,.5-.8c.1-1.5,0-2.9,0-4.5A13.1,13.1,0,0,1,55.9,89.3Zm-39,24.8L10.1,105A14.6,14.6,0,0,0,9,107.8a50.4,50.4,0,0,0,0,5.5c0,.3.4.8.6.8ZM27.9,95a7.4,7.4,0,0,1-6,0v1.9c0,1.8.6,2.5,2.4,2.6a5.8,5.8,0,0,0,2.3-.3,1.6,1.6,0,0,0,1.3-1.9A17.6,17.6,0,0,1,27.9,95Zm8.2,15.7L33.3,114h2.8Z" style="fill:#fff"/><path d="M60.1,40.3l3.5-3.9a5.3,5.3,0,0,1,4.5-2h6.5c3-.1,4.7-1.8,4.7-4.8v-19c0-3-1.7-4.7-4.7-4.7H61.7a2.6,2.6,0,0,1-1.9-.9c-.7-1,.2-2.3,1.6-2.4H74.7a7.7,7.7,0,0,1,8,8V21.9h23.1c4.5,0,6.9,2.4,6.9,6.9v14c0,4.4-2.5,7.1-6.8,6.7s-6.2.7-8.4,3.5-3.4,1.9-4.9,0a8.6,8.6,0,0,0-8.5-3.4A5.7,5.7,0,0,1,78.5,47a5.6,5.6,0,0,1-1.1-3.9V37.7H68.5a3.2,3.2,0,0,0-2.6,1.2c-1,1.2-2.1,2.4-3.2,3.5a3.3,3.3,0,0,1-5.2,0c-1-1.1-2-2.1-2.9-3.3a3.2,3.2,0,0,0-3.1-1.4H46.9l-4.3-.2v6a6,6,0,0,1-6.2,6.1H32a2.9,2.9,0,0,0-1.8.7c-1.1.9-2,1.9-3.1,2.9a2.9,2.9,0,0,1-4.4,0c-1-1-2-2.1-3.1-3a2.3,2.3,0,0,0-1.4-.7H13.7a6,6,0,0,1-6.4-6.4c-.1-4.9-.1-9.9,0-14.8s2.5-6.5,6.4-6.5H37.5V10.3a7.6,7.6,0,0,1,7.9-7.8h7.7c1.3,0,2,.7,2,1.7a1.8,1.8,0,0,1-2,1.7H45.4a4.3,4.3,0,0,0-4.5,4.6V29.8a4.4,4.4,0,0,0,4.5,4.6h6.7a5.8,5.8,0,0,1,4.7,2.1C57.8,37.8,58.9,39,60.1,40.3ZM37.5,25.4h-24a2.7,2.7,0,0,0-2.9,3V43.2c0,2,1.1,3,3.1,3h4.6A4.7,4.7,0,0,1,22,47.8l3,3.3,3.2-3.6a4.2,4.2,0,0,1,3.1-1.3h4.5c2.4,0,3.4-.9,3.4-3.3V35.8a4.3,4.3,0,0,0-.5-1.6,20.8,20.8,0,0,1-1.1-4.1A36.5,36.5,0,0,1,37.5,25.4Zm45.2-.1v4.1a8,8,0,0,1-1.6,5.4,2.1,2.1,0,0,0-.4,1.1v7.3c.1,2,1.1,3,3.1,3h4.6a4.7,4.7,0,0,1,3.7,1.6l3,3.2c1.1-1.2,2-2.1,2.8-3.1a5,5,0,0,1,4.1-1.7h3.7c2.7,0,3.6-.8,3.6-3.5V28.8c0-2.6-.9-3.5-3.5-3.5H82.7Z" style="fill:#fff"/><path d="M72.6,18.8a10.2,10.2,0,0,1-2.4,5.7,26.7,26.7,0,0,1-9,7,2.8,2.8,0,0,1-2,.1c-4.1-2-7.9-4.5-10.3-8.5S48.2,12.4,53.5,11a6.7,6.7,0,0,1,5.5.7,1.8,1.8,0,0,0,2.2-.1A7.9,7.9,0,0,1,72.6,18.8ZM51,18.4a6.6,6.6,0,0,0,1.9,4.5A20.9,20.9,0,0,0,59.6,28a.9.9,0,0,0,1,0,21.3,21.3,0,0,0,6.5-5.1,12,12,0,0,0,1.8-3.1,4.1,4.1,0,0,0-1.6-4.9,4.4,4.4,0,0,0-5.2.1c-1.7,1.3-2.2,1.3-4.1-.1a4.3,4.3,0,0,0-4.6-.3A4.5,4.5,0,0,0,51,18.4Z" style="fill:#fff"/><path d="M16.2,35.6a5.7,5.7,0,0,1,7.9-5.4,2,2,0,0,0,1.7,0,5.6,5.6,0,0,1,7.5,7.1,11.7,11.7,0,0,1-4.4,5.2c-3.7,2.7-4.1,2.8-7.9.1-2.1-1.5-4-3.3-4.6-6A5.8,5.8,0,0,1,16.2,35.6Zm4.3-1.9a2.6,2.6,0,0,0-.4,3.3.3.3,0,0,1,.1.2,11.5,11.5,0,0,0,2.2,2.2c3,2.1,2.1,2.2,5,0A11,11,0,0,0,30,36.3a2,2,0,0,0-.6-2.7,2,2,0,0,0-2.7-.1c-1.2,1-2.3.9-3.6,0a2.8,2.8,0,0,0-2.2-.1Z" style="fill:#fff"/><path d="M89.3,30.5a6.4,6.4,0,0,1,4.1-.5,18.5,18.5,0,0,0,4.7-.2,5.4,5.4,0,0,1,5.3,7.2,10.5,10.5,0,0,1-2.3,3.6,29.5,29.5,0,0,1-4.9,3.6,2,2,0,0,1-2,.2c-2.8-1.3-5.4-3-7-5.8s-1.1-5.7,1.2-7.5Zm10.4,6.7a2.9,2.9,0,0,0-.5-3.8h-.1a2,2,0,0,0-2.4.1c-1.1,1-2.2.9-3.4,0a2.4,2.4,0,0,0-3,3.6c1.3,1.3,2.8,2.5,4.3,3.8a1.4,1.4,0,0,0,.9-.1c1.3-1.1,2.7-2.1,3.9-3.2Z" style="fill:#fff"/></g></svg>