<svg xmlns="http://www.w3.org/2000/svg" viewBox="0 0 120 120"><title>ICONO</title><g id="Capa_3" data-name="Capa 3"><path d="M60,118a58,58,0,1,1,58-58A58,58,0,0,1,60,118ZM60,8a52,52,0,1,0,52,52A52,52,0,0,0,60,8Z" style="fill:#fff"/><path d="M20,70a5.1,5.1,0,0,1,2.7-3.4L44.2,52.2,45.5,51,68.1,22.1A5.5,5.5,0,0,1,71,20h1.4c.8.5,1.7.9,2.5,1.5L98.1,39.6c2.2,1.7,2.5,3.9.7,6.1s-2.8,3.7-4.3,5.5c-.3.3-.3.6,0,1l3.7,5.5A3.8,3.8,0,0,1,97,63.4L72.4,79.9A5.7,5.7,0,0,0,71,81.2L59.4,95.9c-1.7,2.3-3.9,2.5-6.1.7l-2.7-2.1L43.9,99c-2.5,1.7-4.6,1.3-6.2-1.2l-16.8-25a12.1,12.1,0,0,1-.9-2ZM92.8,49.6l4.3-5.5a1.5,1.5,0,0,0-.3-2.5L73,23c-1.3-1-1.9-.9-2.9.3L52.4,45.9l-.9,1.2a1.1,1.1,0,0,0,.6-.2l6.5-4.4,1.3-.8a1,1,0,0,1,1.5.3,1.1,1.1,0,0,1-.1,1.6l-.7.4L32.3,62.9l-.9.7a12.8,12.8,0,0,1-3.1,16l6.1,9c6.1-2.7,11.4-1.6,16,3.2L87.6,66.9c-2.8-6.2-1.7-11.5,3.2-16l-6.1-9.1c-6.1,2.7-11.4,1.7-16.1-3.1a13.2,13.2,0,0,1-2,1.2,1.5,1.5,0,0,1-1.3,0,2.1,2.1,0,0,1-.4-1.2c0-.3.4-.6.7-.8l9.8-6.6c2.2-1.5,4.4-1,5.9,1.2l5.1,7.7Zm-.6,3.3c-3.7,2.7-4.9,8.8-2.5,12.6L96,61.2a1.3,1.3,0,0,0,.4-1.9ZM70.7,37.3c2.5,3.5,8.5,4.7,12.6,2.4L79,33.4a1.4,1.4,0,0,0-2.1-.3ZM48.4,93.2c-2.8-3.7-9-4.8-12.6-2.5L40,97a1.4,1.4,0,0,0,2,.4ZM26.9,77.5a10.2,10.2,0,0,0,2.5-12.6l-6.5,4.4a1.3,1.3,0,0,0-.2,1.9ZM65,85h-.1c-4.1,2.7-8.1,5.5-12.3,8.2l1.6,1.3c2,1.6,2.3,1.5,3.8-.5Z" style="fill:#fff"/><path d="M74.9,65.3A15.4,15.4,0,0,1,64.1,79.9c-.6.2-1.2.3-1.6-.4s-.1-1.5.8-1.8A12.7,12.7,0,0,0,68.1,75c4-3.7,5.4-8.3,3.9-13.5a12.5,12.5,0,0,0-10.7-9.2A13,13,0,0,0,46.5,64.8,13.1,13.1,0,0,0,56.7,78a2.1,2.1,0,0,1,1.1.7,1.6,1.6,0,0,1-.2,1.2,1.5,1.5,0,0,1-1.3.3,14.7,14.7,0,0,1-8.8-5.4,15.4,15.4,0,1,1,27.4-9.5Z" style="fill:#fff"/><path d="M65,71.4c1,1.6,1,2.1.3,2.6s-1,.3-2.1-1a21.7,21.7,0,0,1-3.3.7c-.9.1-1.4-.4-1.4-1.1s.4-1.1,1.2-1.2l2.2-.4-1-1.5a8,8,0,0,1-1.3-1.9c-.7-1.3-1.4-1.9-3-1.7a3.5,3.5,0,0,1-3.7-2.1,4.2,4.2,0,0,1,.2-4.6c.3-.5.4-.7.1-1.2s-.5-1.4.1-1.8,1.2-.3,1.8.5l.3.4,2.7-.4c.8,0,1.3.5,1.2,1.2S58.8,59,58,59.1H56.8l2.5,3.7.6.2,1.2-.2c2-.1,3.7.4,4.6,2.3a5,5,0,0,1-.2,5.6Zm-4.2-6.1,2.8,4a2.9,2.9,0,0,0,0-3.2C63,65.2,62.1,65,60.8,65.3Zm-5.9-4.7a2.2,2.2,0,0,0,.3,2.5c.4.5.8.6,1.6.4Z" style="fill:#fff"/><path d="M42.8,77.4a2.1,2.1,0,0,1-.6.8l-5.3,3.6a1.2,1.2,0,0,1-1.7-.3,1.1,1.1,0,0,1,.3-1.6L41,76.2C41.8,75.7,42.8,76.2,42.8,77.4Z" style="fill:#fff"/><path d="M77.2,54.5a3.4,3.4,0,0,1-.9-.8,1,1,0,0,1,.5-1.4l3.1-2.1,2.2-1.5a1.3,1.3,0,0,1,1.8.2,1.3,1.3,0,0,1-.4,1.7L78,54.2Z" style="fill:#fff"/></g></svg>