<svg xmlns="http://www.w3.org/2000/svg" viewBox="0 0 120 120"><title>ICONO</title><g id="Capa_4" data-name="Capa 4"><path d="M60,118a58,58,0,1,1,58-58A58,58,0,0,1,60,118ZM60,8a52,52,0,1,0,52,52A52,52,0,0,0,60,8Z" style="fill:#fff"/><path d="M20,73.5a6,6,0,0,1,3.8-4.2l2.8-1.4a1.5,1.5,0,0,0,.9-1.4v-.2a3.5,3.5,0,0,0-1.3-3.5,6.4,6.4,0,0,1-2.3-4.5c-.3-2.6-.5-5.3.8-7.7a17.9,17.9,0,0,1,2.5-3.1c.3-.3.5-.5.4-1a5,5,0,0,1,7.6-5,5,5,0,0,1,2.1,5.1.8.8,0,0,0,.3.9,8.1,8.1,0,0,1,3.5,6.8,29.5,29.5,0,0,1-.2,4.2,7.2,7.2,0,0,1-3,5.1,1.1,1.1,0,0,0-.5,1.2v.6a2.3,2.3,0,0,0,1.7,2.9,1.1,1.1,0,0,1,.6,1.7c-.3.6-.9.7-1.7.4l-1.6-.8-2.6,2.6a2.4,2.4,0,0,0-.2.9V84.5c-.1.7-.5,1.1-1.1,1.1a1.1,1.1,0,0,1-1.2-1v-.8c0-3.6,0-7.2-.1-10.7a2.1,2.1,0,0,0-.4-1.1,26.1,26.1,0,0,0-2.3-2.4l-5.4,2.7,2.3,2.2a5.9,5.9,0,0,1,2,4.6c-.1,1.7,0,3.4-.1,5s-.4,1.5-1.1,1.5S25,85.1,25,84.1V78.9a3.3,3.3,0,0,0-1-2.5l-1.6-1.7c0,.5-.1.8-.1,1V84c0,.6,0,1.2-.7,1.5s-1.2-.1-1.6-.6ZM38.7,57.4H36.2a9.6,9.6,0,0,1-5.8-2.3,1.4,1.4,0,0,0-.9-.1l-3.4,1.8a6.4,6.4,0,0,0,6.4,6.3C35.8,63.2,38.8,60.4,38.7,57.4Zm0-2.6a6.3,6.3,0,1,0-12.5-.5l2.4-1.5c1.2-1.1,1.6-1,2.7.1A7.2,7.2,0,0,0,38.7,54.8ZM35,65.4H29.9c0,.6-.1,1.3-.1,1.9a.7.7,0,0,0,.1.5l2.5,2.5L35,67.8a.7.7,0,0,0,.1-.5C35.1,66.6,35,66,35,65.4Zm0-19.5a2.5,2.5,0,0,0-4.1-2.3,2.1,2.1,0,0,0-.9,2.3Z" style="fill:#fff"/><path d="M75.1,68.7c-1.2,1.1-2.3,2.1-3.3,3.2a3.4,3.4,0,0,0-.6,2v9.9q0,1.8-1.2,1.8c-.8,0-1.1-.6-1.1-1.8,0-3.2,0-6.5-.1-9.7a6,6,0,0,1,1.9-4.6l3.4-3.3-1.4-.8-6-2.7a.8.8,0,0,0-1,.2l-4,4a1.4,1.4,0,0,0-.5,1.3V83.7c0,1.3-.4,1.9-1.2,1.9s-1.2-.6-1.2-1.9V68.2a1.7,1.7,0,0,0-.5-1.4l-4-3.9c-.3-.3-.5-.4-.9-.2l-6.1,2.7-1.4.8,3.3,3.3a6,6,0,0,1,2,4.7c-.1,3.2-.1,6.4-.1,9.6,0,.3.1.7,0,.9a2.3,2.3,0,0,1-1.1.9,1.9,1.9,0,0,1-1.1-.8c-.2-.2-.1-.6-.1-1V73.9a3.4,3.4,0,0,0-1.1-2.6c-.9-.8-1.7-1.7-2.6-2.6h-.2V83.8a2.5,2.5,0,0,1-.1.8.9.9,0,0,1-1,1,1.1,1.1,0,0,1-1.2-.8c0-.3-.1-.6-.1-.9V69.4a6.4,6.4,0,0,1,4.1-6.3l6-2.7a1.6,1.6,0,0,0,1.2-1.7,2.7,2.7,0,0,0-.9-2.4A10.1,10.1,0,0,1,50,49.5a1.8,1.8,0,0,0-.4-.9c-.2-.5-.6-.9-.7-1.3-.3-2.8-.2-5.5,1.3-8a9.4,9.4,0,0,1,7.3-4.7c2.7-.3,5.5-.5,8.1.9a9.8,9.8,0,0,1,5.6,8.9,2.9,2.9,0,0,1-.9,2.1,1.4,1.4,0,0,0-.3.9c-.2,1.6-.2,3.2-.5,4.7a8.9,8.9,0,0,1-2.8,4.6,2.4,2.4,0,0,0,.6,3.7l6.2,2.7a6.6,6.6,0,0,1,4,6.2V84c0,.2-.1.5-.1.7a1.2,1.2,0,0,1-1.2.9,1.1,1.1,0,0,1-1.1-1V68.7ZM67.6,47.5c-1.9-.1-3.6-.1-5.3-.3a12.1,12.1,0,0,1-6.7-3c-.6-.6-.7-1.3-.2-1.8s1.1-.6,1.8,0c3.4,3,7.4,3,11.6,2.3a7.7,7.7,0,0,0-5-7.5,14.6,14.6,0,0,0-5.5-.4c-5.1.5-7.9,4.8-7,9.9h.5l1.2-.9a1.1,1.1,0,0,1,1.6.2,1.2,1.2,0,0,1-.2,1.7l-1.5,1a1.6,1.6,0,0,0-.5.9,11,11,0,0,0,.6,2.6,7.5,7.5,0,0,0,11.6,3.3C67.2,53.3,67.8,50.5,67.6,47.5ZM56.3,58.7a18,18,0,0,0-.5,1.9.7.7,0,0,0,.1.5L60,65.3l4.1-4.2c.1-.1.2-.3.1-.4a11.7,11.7,0,0,0-.5-2C60.2,59.6,59,59.5,56.3,58.7Z" style="fill:#fff"/><path d="M96.1,69.4,89,65.8l-2.6,2.7a1.3,1.3,0,0,0-.2.9V83.8c0,1.2-.4,1.8-1.1,1.8s-1.2-.5-1.2-1.7V69.4a1.3,1.3,0,0,0-.5-1.2l-2.3-2.4-.7.4a1.2,1.2,0,0,1-1.5-.5.9.9,0,0,1,.3-1.4c1.1-.7.9-1.8.9-2.9a.8.8,0,0,0-.2-.4,7.5,7.5,0,0,1-2.3-5.8.8.8,0,0,0-.6-1.1.9.9,0,0,1-.6-.7c-.1-2.1-.2-4.2.8-6.2a7.6,7.6,0,0,1,6.7-4,19.8,19.8,0,0,1,4.3.3,7.2,7.2,0,0,1,5.5,7.3v2a1.2,1.2,0,0,1-1.1,1.5c-.1.9-.1,1.7-.2,2.5a6.7,6.7,0,0,1-2,4,2.3,2.3,0,0,0,.6,3.4l5.9,3a5,5,0,0,1,3.1,4.9V83.9a1.9,1.9,0,0,1-.1.8,1,1,0,0,1-1.1.9,1.1,1.1,0,0,1-1.1-.9,2.1,2.1,0,0,1,0-.8c-.1-3.9,0-7.8,0-11.6v-1c-1.4,1.1-2.9,2.1-2.7,4.2s0,5.7,0,8.6a2.5,2.5,0,0,1-.4,1.2,1.5,1.5,0,0,1-1.1.2,1.6,1.6,0,0,1-.8-1,16.2,16.2,0,0,1-.1-2.2c0-2.3.1-4.7,0-7a5.6,5.6,0,0,1,1.9-4.4Zm-6-14.1c.1-1.1,0-1-1-1.3a36.9,36.9,0,0,1-4.5-1.1c-1.2-.5-2.3-.9-3.4.3h-.3a1.1,1.1,0,0,0-.9,1.5V56a5.1,5.1,0,0,0,7.1,4.3A5,5,0,0,0,90.1,55.3ZM78.8,51.7A6.9,6.9,0,0,0,81.5,50a1.5,1.5,0,0,1,1.9-.2,17.2,17.2,0,0,0,5.4,1.8l2.6.4a9,9,0,0,0-.2-2.4,4.8,4.8,0,0,0-4-3.9,25.4,25.4,0,0,0-3.9-.1A5,5,0,0,0,78.8,51.7Zm3.6,10.9c0,.6-.1,1.1.2,1.4a30.1,30.1,0,0,0,2.5,2.6,20.3,20.3,0,0,1,2-2.1,1.3,1.3,0,0,0,.4-1.8A8.1,8.1,0,0,1,82.4,62.6Z" style="fill:#fff"/></g></svg>