<svg xmlns="http://www.w3.org/2000/svg" viewBox="0 0 120 120"><title>ICONO</title><g id="Capa_5_copia" data-name="Capa 5 copia"><path d="M60,115a55,55,0,1,1,55-55A55.1,55.1,0,0,1,60,115ZM60,10a50,50,0,1,0,50,50A50,50,0,0,0,60,10Z" style="fill:#333"/><path d="M94.7,60.7A8.3,8.3,0,0,0,94,62a3.6,3.6,0,0,1-3.1,1.5H87.8c-.7-.1-1.1.2-1.4.9l-1.1,2.7a1.4,1.4,0,0,0,.3,1.7L87.8,71a3.5,3.5,0,0,1,0,5.3l-4.6,4.6a3.6,3.6,0,0,1-5.2,0l-3.4-3.5a1.1,1.1,0,0,1-.2-1.8c.5-.5,1.2-.4,1.8.2l3.3,3.3a1.3,1.3,0,0,0,2.2,0l4.4-4.4c.8-.8.8-1.3,0-2.1l-2.2-2.2a3.5,3.5,0,0,1-.8-4.1l1.2-2.8a3.3,3.3,0,0,1,3.3-2.3h3.3c1,0,1.4-.4,1.4-1.5s.1-4.1,0-6.2-.4-1.5-1.5-1.5H87.7a3.4,3.4,0,0,1-3.4-2.3l-1.2-2.9a3.5,3.5,0,0,1,.7-4c.8-.8,1.6-1.5,2.3-2.3s.8-1.3,0-2l-4.5-4.5c-.7-.8-1.3-.8-2,0l-2.3,2.2a3.4,3.4,0,0,1-4,.8l-2.8-1.2a3.3,3.3,0,0,1-2.4-3.4V29.1c0-1-.4-1.4-1.4-1.4H60.3c-1,0-1.4.4-1.4,1.4s0,2.1-.1,3.1a3.5,3.5,0,0,1-2.4,3.6l-2.8,1.1a3.4,3.4,0,0,1-3.9-.7l-2.4-2.3c-.7-.8-1.3-.8-2,0l-4.5,4.5a1.2,1.2,0,0,0,0,2l3.3,3.3.4.5a1.1,1.1,0,0,1-.1,1.4,1.1,1.1,0,0,1-1.4.2l-.5-.4L39.1,42a3.6,3.6,0,0,1,0-5.2l4.6-4.6a3.5,3.5,0,0,1,5.3,0l2.1,2.2c.7.6,1,.7,1.8.3l2.6-1.1a1.2,1.2,0,0,0,1-1.5v-3a3.6,3.6,0,0,1,2.7-3.6.1.1,0,0,1,.1-.1h8.3c2.1.6,3,2.2,2.8,4.4v2.5a1.4,1.4,0,0,0,.9,1.3,23.6,23.6,0,0,1,2.8,1.2,1.5,1.5,0,0,0,1.7-.4L78,32.2a3.4,3.4,0,0,1,5.2,0l4.6,4.6a3.4,3.4,0,0,1,0,5.2l-2.2,2.2a1.4,1.4,0,0,0-.3,1.7c.4.9.7,1.8,1.1,2.8a1.4,1.4,0,0,0,1.4.9H91a3.3,3.3,0,0,1,3,1.5c.3.4.4.9.7,1.3Z" style="fill:#333"/><path d="M29.3,83.8l.9-2.1.6-.7c1.1-1.1,1.2-2,.2-3.2a1.6,1.6,0,0,0-1-.5H28.7A3.5,3.5,0,0,1,25.4,74a40.1,40.1,0,0,1,0-4.9,3.3,3.3,0,0,1,3.3-3.3h.4c1.8-.1,1.9-.1,2.5-1.8a1.2,1.2,0,0,0-.3-1.4l-1-1.1a3.3,3.3,0,0,1,0-4.4c1.2-1.3,2.4-2.5,3.7-3.7a3.4,3.4,0,0,1,4.5,0c.1.2.3.3.5.5s2,1.2,3.2.2a3.1,3.1,0,0,0,.5-1,5.7,5.7,0,0,0,0-1.3A3.3,3.3,0,0,1,46,48.5a41.7,41.7,0,0,1,5,0,3.2,3.2,0,0,1,3.2,3.2v.5c0,1.7.1,1.8,1.7,2.5a1.6,1.6,0,0,0,1.6-.3,5.7,5.7,0,0,1,1.1-1.1,3.3,3.3,0,0,1,4.3.1,45.4,45.4,0,0,1,3.8,3.8,3.3,3.3,0,0,1,0,4.2l-1.1,1.2a1.1,1.1,0,0,0-.3,1.3l.4.9a1.3,1.3,0,0,0,1.4,1H69A3.2,3.2,0,0,1,71.5,69a41.7,41.7,0,0,1,0,5,3.4,3.4,0,0,1-3.2,3.3h-.5c-1.8,0-2.2.3-2.5,2a1.7,1.7,0,0,0,.3,1.2c.2.4.7.7,1,1a3.4,3.4,0,0,1,0,4.5,33.2,33.2,0,0,1-3.8,3.7,3.2,3.2,0,0,1-4.3,0l-1.1-1a1.2,1.2,0,0,0-1.4-.3l-.7.3a1.4,1.4,0,0,0-1.1,1.6,10.3,10.3,0,0,1-.1,1.7,3.2,3.2,0,0,1-3.2,2.6,40.1,40.1,0,0,1-4.9,0,3.4,3.4,0,0,1-3.3-3.2v-.5c0-1.8-.1-1.8-1.7-2.5a1.4,1.4,0,0,0-1.6.3l-1,1a3.3,3.3,0,0,1-4.4,0L30.3,86A7.4,7.4,0,0,1,29.3,83.8ZM65.2,59.3a7.3,7.3,0,0,0-.5-.9l-3.1-3.1a1.2,1.2,0,0,0-1.8,0,9.4,9.4,0,0,1-1,1,3.5,3.5,0,0,1-3.4.6l-1.2-.5A3.6,3.6,0,0,1,51.9,53v-.9c0-.9-.4-1.3-1.3-1.3H47.4c-2.3,0-2.4,0-2.4,2.3a3.2,3.2,0,0,1-2.1,3.2l-1.4.6a3.3,3.3,0,0,1-3.4-.7l-1.1-1a1.1,1.1,0,0,0-1.6,0l-3.2,3.3a1,1,0,0,0,0,1.6l.8.9c2.3,2.1.2,6.5-2,6.9l-1.9.2c-1,0-1.4.4-1.4,1.4v4.1c0,1,.4,1.4,1.4,1.4h1.7c2,.3,3,2.4,3.2,4.4s-.7,2.3-1.6,3.2-.8,1.4,0,2.1L35,87.5c1,.9,1.5,1,2.4-.1A3.7,3.7,0,0,1,40.6,86a6.1,6.1,0,0,1,3.3,1.4A3.4,3.4,0,0,1,45,89.8v1.1c0,1,.4,1.4,1.4,1.4h3.4c1.9,0,2.1-.1,2.1-2.1a3.6,3.6,0,0,1,2.4-3.6l.8-.3a3.4,3.4,0,0,1,4,.8l.6.6a1.3,1.3,0,0,0,2,0l2.9-3c.7-.6.7-1.2,0-1.9a4.6,4.6,0,0,0-.7-.7c-2.3-2.1-.2-6.6,2.1-7h2c.8,0,1.2-.5,1.2-1.3a32.3,32.3,0,0,0,0-4.4A1.1,1.1,0,0,0,68,68.1h-.8a4.6,4.6,0,0,1-4.3-5.2,4.7,4.7,0,0,1,1.5-2.4A4.2,4.2,0,0,0,65.2,59.3Z" style="fill:#333"/><path d="M63.5,41.5A15,15,0,0,1,78.2,53.8a14.8,14.8,0,0,1-4,13.2,1.2,1.2,0,0,1-1.7.2,1.3,1.3,0,0,1,0-1.8A11.8,11.8,0,0,0,76,58.6,12.6,12.6,0,0,0,55,47.1a1.8,1.8,0,0,1-.7.5,1.1,1.1,0,0,1-1.4-1.7A21.1,21.1,0,0,1,55.2,44,15.3,15.3,0,0,1,63.5,41.5Z" style="fill:#333"/><path d="M48.5,61.2A10.2,10.2,0,0,1,58.8,71.6c-.1,6.5-4.8,10.2-10.4,10.3a10.4,10.4,0,1,1,.1-20.7Zm8,10.3a7.9,7.9,0,0,0-8.1-8,8.1,8.1,0,1,0,8.1,8Z" style="fill:#333"/></g></svg>