<svg xmlns="http://www.w3.org/2000/svg" viewBox="0 0 120 120"><title>ICONO</title><g id="Capa_7" data-name="Capa 7"><path d="M41.8,96.5a1.8,1.8,0,0,1-1-2V88.9c0-1.2.5-1.7,1.7-1.7h2.3c-.4-1.7-.7-3.5-1-5.2-1.5-8.2-2.9-16.5-4.4-24.8a1.3,1.3,0,0,1-.1-.6v-12c0-1.4.5-1.8,1.9-1.8h2.4l-6-5.8-2.9,2.1a1.5,1.5,0,0,1-2.2-.2,1.4,1.4,0,0,1,.5-2.1l9.6-7.1c.4-.3.6-.5.4-1A4.2,4.2,0,0,1,45.3,24a4.2,4.2,0,0,1,5.4,6.1,4,4,0,0,1-4.9,1.7,1.5,1.5,0,0,0-1.7.3l-3.7,2.8h-.2l.4.5c2.3,2.3,4.5,4.6,6.8,6.8a1.2,1.2,0,0,0,1,.4h3.1V38.7a1.4,1.4,0,0,1,1.6-1.6H66.9c1.1,0,1.6.5,1.7,1.6v4.1H72l.5-.3c2.4-2.4,4.8-4.8,7.1-7.3.1,0,.1-.1.2-.2l-4.6-3.3c-.1-.1-.5,0-.7.1a4.4,4.4,0,0,1-5.7-2.5,4.3,4.3,0,0,1,2.6-5.5,4,4,0,0,1,4.3.8A4.2,4.2,0,0,1,77,28.7a.8.8,0,0,0,.4,1l9.2,6.8.6.4a1.4,1.4,0,0,1,.3,2,1.4,1.4,0,0,1-2,.3l-3-2.2h-.2l-6.1,5.9H79c1.1,0,1.7.5,1.7,1.6,0,4.1.1,8.2-.1,12.3a33.1,33.1,0,0,1-.8,5.5l-.3,1.4a1.4,1.4,0,1,1-2.8-.5c.3-1.5.5-3,.8-4.6H71.4v3.8c0,1.3-.5,1.8-1.8,1.8H50.4c-1.3,0-1.8-.5-1.8-1.7V58.5H42.5c1.4,7.7,2.7,15.3,4.1,23H60a1.5,1.5,0,0,1,1.4,1.4A1.5,1.5,0,0,1,60,84.4H47.2l.5,2.8H72.4c.4-2.5.8-4.9,1.3-7.4s.4-2.4.7-3.7.8-1.5,1.6-1.4a1.4,1.4,0,0,1,1.1,1.9L75.3,87.2h2.3a1.4,1.4,0,0,1,1.6,1.6c0,1.9,0,3.8.1,5.7a2,2,0,0,1-1.1,2Zm36-50.8H42.2v9.8h6.4V51.7c0-1.3.5-1.8,1.8-1.8H69.7c1.2,0,1.7.5,1.7,1.6v4h6.4ZM43.6,93.6H76.4V90.1H43.6Zm7.9-32.4h17V52.8h-17Zm2.9-21.3v2.8H65.6V39.9ZM48.6,27.8a1.4,1.4,0,1,0-2.8,0,1.4,1.4,0,0,0,1.3,1.4A1.4,1.4,0,0,0,48.6,27.8Zm24.2-1.4a1.4,1.4,0,0,0-1.4,1.4,1.4,1.4,0,1,0,1.4-1.4Z" style="fill:#333"/><path d="M78.4,69.8a1.5,1.5,0,0,1-1.5,1.4,1.4,1.4,0,0,1-1.4-1.4A1.5,1.5,0,0,1,77,68.4,1.4,1.4,0,0,1,78.4,69.8Z" style="fill:#333"/><path d="M60,58.4H56c-1,0-1.7-.5-1.7-1.4s.6-1.4,1.7-1.4h8.1a1.4,1.4,0,1,1,0,2.8Z" style="fill:#333"/><path d="M60,115a55,55,0,1,1,55-55A55.1,55.1,0,0,1,60,115ZM60,10a50,50,0,1,0,50,50A50,50,0,0,0,60,10Z" style="fill:#333"/></g></svg>