<svg xmlns="http://www.w3.org/2000/svg" viewBox="0 0 120 120"><title>ICONO</title><g id="Capa_5" data-name="Capa 5"><path d="M60,115a55,55,0,1,1,55-55A55.1,55.1,0,0,1,60,115ZM60,10a50,50,0,1,0,50,50A50,50,0,0,0,60,10Z" style="fill:#333"/><path d="M60.5,17.5a2.1,2.1,0,0,1,.9,2.1V24a2.5,2.5,0,0,1-.2,1.2c-.2.6-.7.8-1.4.8a1.3,1.3,0,0,1-1.2-1.3c0-2,0-3.9.1-5.9,0-.4.5-.9.8-1.3Z" style="fill:#333"/><path d="M52.9,79.8v1.1c0,1.2.5,1.8,1.7,1.8h5.2a1.4,1.4,0,1,1,0,2.8H54.1A1.2,1.2,0,0,0,53,86.9a1.1,1.1,0,0,0,.9,1.3h5.8c1.1,0,1.7.5,1.7,1.4s-.6,1.4-1.7,1.4H54.5c-1.2,0-1.9,1-1.4,1.9a2.3,2.3,0,0,0,1.2.9c1,.3,1.5.8,1.4,1.7s-.9,1.2-1.9,1.1a4.2,4.2,0,0,1-2.7-7,4.4,4.4,0,0,1,.1-5.7A5.6,5.6,0,0,1,50,80c.1-.2-.2-.5-.4-.6a4.4,4.4,0,0,1-2.4-4.1V72.8A4.5,4.5,0,0,0,45.6,69a24.3,24.3,0,0,1-4.7-5.4,22,22,0,0,1-3.4-14.3A22,22,0,0,1,47.8,32.4a21.6,21.6,0,0,1,20-2.1A22.3,22.3,0,0,1,82.1,46.6,21.5,21.5,0,0,1,78.8,64a27.1,27.1,0,0,1-4.2,4.7,5.3,5.3,0,0,0-1.8,4.2v2.5a4.5,4.5,0,0,1-2.4,4,1,1,0,0,0-.4.8,5.7,5.7,0,0,1-1.2,3.9,4.2,4.2,0,0,1,0,5.7,4.2,4.2,0,0,1-1.3,6.6,1.8,1.8,0,0,0-.7.8A7,7,0,0,1,55,100.4c-.7-.7-.9-1.5-.3-2.1s1.4-.6,2.2.1c2.6,2.1,5.9,1.5,7-1.5H58.8c-1,0-1.6-.5-1.6-1.3s.6-1.5,1.7-1.5H66c.7-.1,1-.6,1.1-1.4a1.5,1.5,0,0,0-1.3-1.3H64.4a1.6,1.6,0,0,1-1.6-1.5,1.5,1.5,0,0,1,1.6-1.3h1.5a1.5,1.5,0,0,0,1.2-1.4,1.4,1.4,0,0,0-1.3-1.3H64.4c-1-.1-1.6-.6-1.6-1.4s.6-1.3,1.6-1.4h.4c2,0,2.6-.7,2.2-2.9a26.2,26.2,0,0,1-2.8,0,1.4,1.4,0,0,1-1.4-1.4A1.7,1.7,0,0,1,64.2,77H68c1.4,0,1.9-.5,1.9-1.9V72.7a7.5,7.5,0,0,1,2.7-5.9,19,19,0,0,0,5-6.2c3.4-6.9,3-13.7-1.3-20.1a18.8,18.8,0,0,0-15.1-8.7,18.9,18.9,0,0,0-15.3,5.9,18.7,18.7,0,0,0-5.6,15.5,18,18,0,0,0,6,12.5c2.8,2.4,4.2,5.2,3.8,8.9v.5c0,1.4.5,1.9,1.8,1.9H60a1.4,1.4,0,0,1,1.4,1.4,1.4,1.4,0,0,1-1.5,1.4c-1.8.1-3.6,0-5.4,0Z" style="fill:#333"/><path d="M55.7,57.2H52.9a5.6,5.6,0,0,1-5.3-3.9A5.5,5.5,0,0,1,49.5,47a5.6,5.6,0,0,1,5.7-.7A5.4,5.4,0,0,1,58.5,51c.1,1,0,2.2,0,3.3h3c0-1.1-.1-2.2,0-3.4a5.6,5.6,0,0,1,5.4-5,5.5,5.5,0,0,1,5.7,4.7A5.6,5.6,0,0,1,67,57.2H64.3V72.3q-.1,1.8-1.5,1.8c-.9,0-1.4-.6-1.4-1.8V57.2H58.6V72.5c-.1,1.1-.6,1.6-1.4,1.6s-1.4-.6-1.5-1.6V57.2Zm0-2.9a28,28,0,0,0,0-2.9A2.7,2.7,0,0,0,53,48.7a2.8,2.8,0,0,0-.5,5.6C53.5,54.4,54.6,54.3,55.7,54.3Zm8.6.1c1.3-.1,2.5,0,3.6-.2a2.7,2.7,0,0,0,2-3.1A2.8,2.8,0,0,0,67,48.7a2.7,2.7,0,0,0-2.7,2.5C64.2,52.2,64.3,53.2,64.3,54.4Z" style="fill:#333"/><path d="M77.7,23.4a9.4,9.4,0,0,0-.3.9c-.9,1.4-1.7,2.8-2.5,4.3s-1.4,1.2-2.1.8-.9-1.3-.4-2.2L75,22.7c.4-.6.9-1,1.6-.8A1.5,1.5,0,0,1,77.7,23.4Z" style="fill:#333"/><path d="M31.5,33.7l1.2.4,4.4,2.6c1,.5,1.2,1.3.8,2s-1.2,1-2.2.4l-4.5-2.6a1.3,1.3,0,0,1-.7-1.7A5.2,5.2,0,0,1,31.5,33.7Z" style="fill:#333"/><path d="M44,21.9a3.1,3.1,0,0,1,1,.8l2.7,4.7a1.5,1.5,0,0,1-.4,2,1.4,1.4,0,0,1-2-.6l-2.8-4.7A1.5,1.5,0,0,1,44,21.9Z" style="fill:#333"/><path d="M89.6,35.5a3.1,3.1,0,0,1-.8,1L84,39.2a1.4,1.4,0,0,1-1.9-.4,1.3,1.3,0,0,1,.5-1.9l5-2.9C88.6,33.5,89.6,34.2,89.6,35.5Z" style="fill:#333"/><path d="M38.1,65.3c-.2.2-.4.7-.8.9s-3.2,1.9-4.8,2.8a1.3,1.3,0,0,1-1.9-.5,1.4,1.4,0,0,1,.5-1.9A47.6,47.6,0,0,1,36,63.8C37,63.2,38.1,63.9,38.1,65.3Z" style="fill:#333"/><path d="M88,69.2l-.8-.4-4.3-2.4c-1-.6-1.3-1.4-.8-2.2a1.5,1.5,0,0,1,2.2-.3l4.5,2.6a1.4,1.4,0,0,1,.7,1.8C89.3,68.9,88.9,69.2,88,69.2Z" style="fill:#333"/><path d="M30.2,52.9H27.5A1.4,1.4,0,0,1,26,51.5a1.3,1.3,0,0,1,1.3-1.4h5.8a1.4,1.4,0,0,1,1.4,1.5A1.4,1.4,0,0,1,33,52.9Z" style="fill:#333"/><path d="M89.7,52.9H87a1.4,1.4,0,0,1-1.5-1.3A1.4,1.4,0,0,1,87,50.1a50.5,50.5,0,0,1,5.5,0A1.5,1.5,0,0,1,94,51.6c0,.7-.6,1.3-1.6,1.3Z" style="fill:#333"/></g></svg>