<svg xmlns="http://www.w3.org/2000/svg" viewBox="0 0 120 120"><title>ICONO</title><g id="Capa_2" data-name="Capa 2"><path d="M56.5,115.1l-6-.9c-18.6-3.7-32.2-14-40-31.4A54,54,0,0,1,80,10.8l.9.3c.9-1.6,1.7-3.1,2.7-4.6a6.1,6.1,0,0,1,.7-1c.6-.6,1.2-.5,1.7.2a3.1,3.1,0,0,1,.5,1c1.6,4.4,3.1,8.8,4.7,13.3.7,2,0,3.3-2.1,3.7L74.9,25.9c-.6.1-1.5,0-1.7-.3a2.2,2.2,0,0,1,.2-1.9c.9-1.7,1.9-3.3,3-5.1-2.9-.8-5.7-1.7-8.6-2.3a45,45,0,0,0-15.1-.1A46.5,46.5,0,0,0,30.9,26,44.7,44.7,0,0,0,15.1,53.9c-2.1,13,1.1,24.9,9.3,35.3a44,44,0,0,0,28.2,16.6,45.3,45.3,0,0,0,49.5-28.2,45.8,45.8,0,0,0,3.1-19.7,44.3,44.3,0,0,0-2.7-12.5,4.7,4.7,0,0,1,.2-4.2,4,4,0,0,1,4.1-2.1,4,4,0,0,1,3.7,2.9,63.2,63.2,0,0,1,2.4,8.5c3.2,16.7-.7,31.9-11.5,45.1-8,9.8-18.5,15.8-30.9,18.4-2.1.5-4.4.6-6.5.9l-.9.2Z" style="fill:#fff"/><path d="M54.5,46.9V30.1c0-2.4,1.5-3.9,3.7-3.8a3.3,3.3,0,0,1,3.2,2.9,8.6,8.6,0,0,1,.1,1.6V59.3a1.8,1.8,0,0,0,1.2,1.9c8.9,4.5,17.7,9.1,26.5,13.7a3.7,3.7,0,0,1,2.3,2.4,3.3,3.3,0,0,1-.9,3.5,3.1,3.1,0,0,1-3.4.9L85.8,81,55.5,65.4a1.6,1.6,0,0,1-1-1.6Z" style="fill:#fff"/></g></svg>