<svg id="Capa_1" data-name="Capa 1" xmlns="http://www.w3.org/2000/svg" viewBox="0 0 120 120"><title>ICONO</title><path d="M60,118a58,58,0,1,1,58-58A58,58,0,0,1,60,118ZM60,8a52,52,0,1,0,52,52A52,52,0,0,0,60,8Z" style="fill:#fff"/><path d="M36,25H70.6a8.9,8.9,0,0,1,7.1,7.8c.1,3.3,0,6.5,0,9.8a2.6,2.6,0,0,1-1.8,2.5,2.9,2.9,0,0,1-4-2.6V34.2c0-2.2-1.1-3.4-3.3-3.4H55.9c3.2,1.4,4.3,3,4.3,6.5V80.4h.9c2.3,0,4.7-.1,7,0s3.9-1.5,3.8-3.7,0-7,0-10.5a3.7,3.7,0,0,1,.1-1.1,3,3,0,0,1,3.1-2.2,2.8,2.8,0,0,1,2.6,2.9c0,3.9.1,7.8,0,11.7a8.7,8.7,0,0,1-8.9,8.8H60.2v2.5a7.6,7.6,0,0,1-.1,1.5c-.7,3.6-4.2,5.5-7.8,4.4L35.5,89a5.8,5.8,0,0,1-4.4-6.1V31.4c0-.2-.1-.4,0-.6a5.7,5.7,0,0,1,3.5-5.3Z" style="fill:#fff"/><path d="M101.1,54.8c-.6.7-1,1.5-1.6,2.2-3.6,3.6-7.2,7.1-10.7,10.7a3,3,0,0,1-2.8,1,2.8,2.8,0,0,1-2.4-3V57.1H72.1a2.8,2.8,0,0,1-3-2.3A2.8,2.8,0,0,1,72,51.3H83.6V42.8a3,3,0,0,1,1.8-3,2.9,2.9,0,0,1,3.3.8L100.1,52a11.2,11.2,0,0,1,1,1.6Z" style="fill:#fff"/></svg>