<svg xmlns="http://www.w3.org/2000/svg" viewBox="0 0 150 134"><title>ICONO</title><g id="Capa_11" data-name="Capa 11"><path d="M10.5,108.2H10v-4.6h1.5a1.4,1.4,0,1,1,0,2.8h-1Zm0-4.1v1.8h1l.6-.2a1,1,0,0,0,0-1.4l-.6-.2Z" style="fill:#20427c"/><path d="M13.6,107.4v-3.8h.5v3.7c0,.2,0,.4.1.4s.1.2.3.2.2,0,.2-.1v.5h-.8l-.2-.3A.9.9,0,0,1,13.6,107.4Z" style="fill:#20427c"/><path d="M16.7,104.8h.7c.2.2.4.3.5.5v-.5h.4v2.9c0,.1.1.1.2.1h.2v.3h-.7a.8.8,0,0,1-.2-.5,1.4,1.4,0,0,1-1.2.6,1.3,1.3,0,0,1-1.2-.5,1.3,1.3,0,0,1-.5-1.2,1.5,1.5,0,0,1,.5-1.3A1.7,1.7,0,0,1,16.7,104.8Zm0,3.1a1.8,1.8,0,0,0,.9-.4,1.6,1.6,0,0,0,.3-.9,1.7,1.7,0,0,0-.3-1,1.8,1.8,0,0,0-.9-.4,1.3,1.3,0,0,0-.9.4,1.7,1.7,0,0,0-.3,1,1.6,1.6,0,0,0,.3.9A1.3,1.3,0,0,0,16.7,107.9Z" style="fill:#20427c"/><path d="M19.8,108.2h-.5v-3.3h.5v.5c.1-.1.2-.3.4-.4l.6-.2a1,1,0,0,1,.9.4,1.2,1.2,0,0,1,.3.9v1.6h.3v.4h-.5l-.2-.2a.3.3,0,0,1-.1-.2v-1.6a.9.9,0,0,0-.3-.7.8.8,0,0,0-.6-.2.9.9,0,0,0-.7.3,1.1,1.1,0,0,0-.2.6Z" style="fill:#20427c"/><path d="M25.5,109.5v-.4h.6l.3-.4v-.4l-1.3-3.4h.5l1.1,2.8,1-2.8h.5l-1.5,3.9-.3.5a.9.9,0,0,1-.7.3Z" style="fill:#20427c"/><path d="M31.6,107.8a1.7,1.7,0,0,1-.5-1.2,1.7,1.7,0,0,1,.5-1.3,1.9,1.9,0,0,1,2.6,0,1.7,1.7,0,0,1,.5,1.3,1.8,1.8,0,0,1-3.1,1.2Zm.4-2.2a1.3,1.3,0,0,0-.4,1,1.2,1.2,0,0,0,.4.9,1.2,1.2,0,0,0,1.8,0,1.2,1.2,0,0,0,.4-.9,1.3,1.3,0,0,0-.4-1,1.2,1.2,0,0,0-1.8,0Z" style="fill:#20427c"/><path d="M35.8,108.2h-.5v-4.6h.5v1.8l.4-.5h.7a1.7,1.7,0,0,1,1.2.5,1.5,1.5,0,0,1,.5,1.3,1.7,1.7,0,0,1-1.7,1.7h-.7l-.4-.5Zm1.1-.3a1.3,1.3,0,0,0,.9-.4,1.6,1.6,0,0,0,.3-.9,1.7,1.7,0,0,0-.3-1,1.3,1.3,0,0,0-.9-.4,1.2,1.2,0,0,0-.8.4,1.3,1.3,0,0,0-.4,1,1.2,1.2,0,0,0,.4.9A1.2,1.2,0,0,0,36.9,107.9Z" style="fill:#20427c"/><path d="M39.2,108.6v-3.7h.5v3.7a.9.9,0,0,1-1,1h-.2v-.5h.6C39.2,108.9,39.2,108.8,39.2,108.6Zm.5-4.4h-.4c-.1,0-.1-.1-.1-.2s0-.2.1-.2h.4c.1,0,.1.1.1.2S39.8,104.2,39.7,104.2Z" style="fill:#20427c"/><path d="M40.3,106.6h0a1.7,1.7,0,0,1,.5-1.3,1.3,1.3,0,0,1,1.2-.5,1.2,1.2,0,0,1,1.1.5,1.5,1.5,0,0,1,.4,1.1v.3H40.8a1.2,1.2,0,0,0,.4.8.9.9,0,0,0,.8.4h.6l.4-.4.4.3a1.8,1.8,0,0,1-1.4.6,1.7,1.7,0,0,1-1.7-1.7Zm.6-.4H43a1.1,1.1,0,0,0-.3-.7.9.9,0,0,0-.7-.3,1.1,1.1,0,0,0-.8.3A1.1,1.1,0,0,0,40.9,106.2Z" style="fill:#20427c"/><path d="M44.3,107.3v-2h-.4v-.4h.4v-1.3h.5v1.3h.8v.4h-.8v2c0,.2.1.3.1.4l.4.2h.3v.5h-.4C44.6,108.3,44.3,108,44.3,107.3Z" style="fill:#20427c"/><path d="M46.6,104.2h-.4c-.1,0-.1-.1-.1-.2s0-.2.1-.2h.4c.1,0,.1.1.1.2S46.7,104.2,46.6,104.2Zm-.4,3.4v-2.7h.5v2.9h.4v.4h-.3C46.4,108.3,46.2,108.1,46.2,107.6Z" style="fill:#20427c"/><path d="M48.9,108.2h-.4l-1.4-3.3h.5l1.1,2.5,1.1-2.5h.5Z" style="fill:#20427c"/><path d="M50.9,107.8a1.7,1.7,0,0,1-.5-1.2,1.7,1.7,0,0,1,.5-1.3,2.1,2.1,0,0,1,1.3-.5,1.7,1.7,0,0,1,1.2.5,1.4,1.4,0,0,1,.5,1.3,1.7,1.7,0,0,1-1.7,1.7A1.7,1.7,0,0,1,50.9,107.8Zm.4-2.2a1.3,1.3,0,0,0-.4,1,1.2,1.2,0,0,0,.4.9,1.3,1.3,0,0,0,.9.4,1.5,1.5,0,0,0,.9-.4,1.8,1.8,0,0,0,.4-.9,1.8,1.8,0,0,0-.4-1,1.5,1.5,0,0,0-.9-.4A1.3,1.3,0,0,0,51.3,105.6Z" style="fill:#20427c"/><path d="M54.3,107.5l.4-.2.3.4h1.1a.5.5,0,0,0,.2-.4c0-.1-.1-.3-.2-.3l-.6-.4c-.4-.1-.6-.2-.7-.4s-.2-.3-.2-.5a.8.8,0,0,1,.2-.7l.8-.2a1,1,0,0,1,.9.6l-.4.2a.5.5,0,0,0-.5-.4h-.4a.5.5,0,0,0-.2.4l.2.3.6.3.7.4a.9.9,0,0,1,.3.6.9.9,0,0,1-.3.7,1.6,1.6,0,0,1-.9.3l-.9-.2A1.3,1.3,0,0,1,54.3,107.5Z" style="fill:#20427c"/><path d="M61.4,104.8h.8l.4.5v-1.8h.5v3.9a.4.4,0,0,0,.1.3c0,.1.1.1.2.1h.1v.3h-.6c-.2-.1-.2-.3-.3-.5a1.2,1.2,0,0,1-1.2.6,1.6,1.6,0,0,1-1.2-.5,1.7,1.7,0,0,1-.5-1.2,1.9,1.9,0,0,1,.5-1.3A2.1,2.1,0,0,1,61.4,104.8Zm0,3.1a1.3,1.3,0,0,0,.9-.4,1.2,1.2,0,0,0,.4-.9,1.3,1.3,0,0,0-.4-1,1.3,1.3,0,0,0-.9-.4,1.2,1.2,0,0,0-.8.4,1.3,1.3,0,0,0-.4,1,1.2,1.2,0,0,0,.4.9A1.2,1.2,0,0,0,61.4,107.9Z" style="fill:#20427c"/><path d="M63.8,106.6h0a1.7,1.7,0,0,1,.5-1.3,1.3,1.3,0,0,1,1.2-.5,1.2,1.2,0,0,1,1.1.5,1.5,1.5,0,0,1,.4,1.1v.3H64.3a1.2,1.2,0,0,0,.4.8.9.9,0,0,0,.8.4h.6l.4-.4.4.3a1.8,1.8,0,0,1-1.4.6,1.7,1.7,0,0,1-1.7-1.7Zm.6-.4h2.1a1.1,1.1,0,0,0-.3-.7.9.9,0,0,0-.7-.3,1.1,1.1,0,0,0-.8.3A1.1,1.1,0,0,0,64.4,106.2Z" style="fill:#20427c"/><path d="M71.8,104.8h.8l.4.5v-.5h.5v2.6a.4.4,0,0,0,.1.3.1.1,0,0,0,.1.1h.2v.3h-.6c-.2-.1-.2-.3-.3-.5a1.2,1.2,0,0,1-1.2.6,1.3,1.3,0,0,1-1.2-.5,1.7,1.7,0,0,1-.5-1.2,1.9,1.9,0,0,1,.5-1.3A2.1,2.1,0,0,1,71.8,104.8Zm0,3.1a1.3,1.3,0,0,0,.9-.4,1.8,1.8,0,0,0,.4-.9,1.8,1.8,0,0,0-.4-1,1.3,1.3,0,0,0-.9-.4,1.2,1.2,0,0,0-.8.4,1.3,1.3,0,0,0-.4,1,1.2,1.2,0,0,0,.4.9A1.2,1.2,0,0,0,71.8,107.9Z" style="fill:#20427c"/><path d="M74.9,109.5h-.5v-4.6h.5v.5c.1-.2.3-.3.5-.5h.7a1.7,1.7,0,0,1,1.2.5,1.9,1.9,0,0,1,.5,1.3,1.7,1.7,0,0,1-.5,1.2,1.3,1.3,0,0,1-1.2.5h-.7c-.2-.2-.4-.3-.5-.5Zm1.2-1.6a1.5,1.5,0,0,0,.9-.4,1.6,1.6,0,0,0,.3-.9,1.7,1.7,0,0,0-.3-1,1.5,1.5,0,0,0-.9-.4,1.8,1.8,0,0,0-.9.4,1.7,1.7,0,0,0-.3,1,1.6,1.6,0,0,0,.3.9A1.8,1.8,0,0,0,76.1,107.9Z" style="fill:#20427c"/><path d="M78.9,108.2h-.5v-3.3h.5v.5c.1-.1.2-.3.4-.4l.6-.2h.2v.6h-.3a.9.9,0,0,0-.7.3,1.4,1.4,0,0,0-.2.7Z" style="fill:#20427c"/><path d="M80.4,106.6h0a1.7,1.7,0,0,1,.4-1.3,1.3,1.3,0,0,1,1.2-.5,1.2,1.2,0,0,1,1.1.5,1.6,1.6,0,0,1,.5,1.1.4.4,0,0,1-.1.3H80.8a2,2,0,0,0,.4.8.9.9,0,0,0,.8.4h.6l.5-.4.3.3a1.8,1.8,0,0,1-1.4.6,1.7,1.7,0,0,1-1.2-.5A1.6,1.6,0,0,1,80.4,106.6Zm.5-.4H83a1.1,1.1,0,0,0-.3-.7.9.9,0,0,0-.7-.3,1.3,1.3,0,0,0-.8.3A1.1,1.1,0,0,0,80.9,106.2Z" style="fill:#20427c"/><path d="M84.6,108.2h-.5v-3.3h.5v.5l.4-.4.7-.2a1.1,1.1,0,0,1,.9.4,1.2,1.2,0,0,1,.3.9v1.6h.4v.4h-.6V108c-.1,0-.1-.1-.1-.2a.4.4,0,0,1-.1-.3v-1.3a1.4,1.4,0,0,0-.2-.7l-.6-.2a.9.9,0,0,0-.7.3.7.7,0,0,0-.3.6Z" style="fill:#20427c"/><path d="M89.3,104.8H90c.2.2.4.3.5.5v-1.8H91v4.2c0,.1.1.1.2.1h.2v.3h-.7a.8.8,0,0,1-.2-.5,1.4,1.4,0,0,1-1.2.6,1.3,1.3,0,0,1-1.2-.5,1.7,1.7,0,0,1-.5-1.2,1.9,1.9,0,0,1,.5-1.3A1.7,1.7,0,0,1,89.3,104.8Zm0,3.1a1.8,1.8,0,0,0,.9-.4,1.6,1.6,0,0,0,.3-.9,1.7,1.7,0,0,0-.3-1,1.8,1.8,0,0,0-.9-.4,1.5,1.5,0,0,0-.9.4,1.7,1.7,0,0,0-.3,1,1.6,1.6,0,0,0,.3.9A1.5,1.5,0,0,0,89.3,107.9Z" style="fill:#20427c"/><path d="M92.4,104.2h-.5v-.4h.5v.4Zm-.5,3.4v-2.7h.5v2.6a.4.4,0,0,0,.1.3h.3v.4h-.3C92.1,108.3,91.9,108.1,91.9,107.6Z" style="fill:#20427c"/><path d="M96,108.2H93.1v-.3l2-2.6H93.3v-.4h2.5v.3l-2,2.6H96Z" style="fill:#20427c"/><path d="M97.9,104.8h.7c.2.2.4.3.5.5v-.5h.5v2.9h.4v.3h-.7a.8.8,0,0,1-.2-.5,1.2,1.2,0,0,1-1.2.6,1.3,1.3,0,0,1-1.2-.5,1.7,1.7,0,0,1-.5-1.2,1.9,1.9,0,0,1,.5-1.3A1.7,1.7,0,0,1,97.9,104.8Zm0,3.1a1.3,1.3,0,0,0,.9-.4,1.6,1.6,0,0,0,.3-.9,1.7,1.7,0,0,0-.3-1,1.3,1.3,0,0,0-.9-.4,1.8,1.8,0,0,0-.9.4,1.7,1.7,0,0,0-.3,1,1.6,1.6,0,0,0,.3.9A1.8,1.8,0,0,0,97.9,107.9Z" style="fill:#20427c"/><path d="M100.5,108.6v-3.7h.5v3.7a.9.9,0,0,1-1,1h-.2v-.5h.6C100.5,108.9,100.5,108.8,100.5,108.6Zm.5-4.4h-.5v-.4h.5c.1,0,.1.1.1.2S101.1,104.2,101,104.2Z" style="fill:#20427c"/><path d="M101.6,106.6h0a1.7,1.7,0,0,1,.5-1.3,1.3,1.3,0,0,1,1.2-.5,1.3,1.3,0,0,1,1.1.5,1.5,1.5,0,0,1,.4,1.1v.3h-2.7a1.4,1.4,0,0,0,1.2,1.2h.6l.4-.4.4.3a2,2,0,0,1-1.4.6,1.7,1.7,0,0,1-1.7-1.7Zm.5-.4h2.2a1.1,1.1,0,0,0-.3-.7.9.9,0,0,0-.7-.3,1.1,1.1,0,0,0-.8.3A2.5,2.5,0,0,0,102.1,106.2Z" style="fill:#20427c"/><path d="M107.9,107.5l.4-.2c0,.2.1.3.3.4h1.1a.5.5,0,0,0,.2-.4c0-.1-.1-.3-.2-.3l-.7-.4-.7-.4a.8.8,0,0,1-.2-.5.9.9,0,0,1,.3-.7l.7-.2a1,1,0,0,1,1,.6l-.4.2a.5.5,0,0,0-.6-.4h-.3a.5.5,0,0,0-.2.4l.2.3.5.3.8.4a.9.9,0,0,1,.3.6,1,1,0,0,1-.4.7,1.2,1.2,0,0,1-.9.3l-.8-.2C108.1,107.9,107.9,107.8,107.9,107.5Z" style="fill:#20427c"/><path d="M110.7,106.6h0a1.7,1.7,0,0,1,.5-1.3,1.3,1.3,0,0,1,1.2-.5,1.3,1.3,0,0,1,1.1.5,1.5,1.5,0,0,1,.4,1.1v.3h-2.7a1.4,1.4,0,0,0,1.2,1.2h.6l.4-.4.4.3a2,2,0,0,1-1.4.6,1.7,1.7,0,0,1-1.7-1.7Zm.5-.4h2.2a1.1,1.1,0,0,0-.3-.7.9.9,0,0,0-.7-.3,1.1,1.1,0,0,0-.8.3A2.5,2.5,0,0,0,111.2,106.2Z" style="fill:#20427c"/><path d="M115,108.2h-.5v-3.3h.5v.5c.1-.1.2-.3.4-.4l.5-.2a1.1,1.1,0,0,1,1,.7,1.2,1.2,0,0,1,1.1-.7.7.7,0,0,1,.7.4,1.2,1.2,0,0,1,.3.9v1.6h.3v.4h-.5l-.2-.2a.3.3,0,0,1-.1-.2v-1.6a1.5,1.5,0,0,0-.1-.7l-.6-.2a.5.5,0,0,0-.5.3.7.7,0,0,0-.3.6v2h-.5v-2a.8.8,0,0,0-.2-.7l-.5-.2a.9.9,0,0,0-.6.3,1.1,1.1,0,0,0-.2.6Z" style="fill:#20427c"/><path d="M121.4,104.8h.8l.4.5v-.5h.5v2.6a.4.4,0,0,0,.1.3.1.1,0,0,0,.1.1h.2v.3h-.6c-.2-.1-.2-.3-.3-.5a1.2,1.2,0,0,1-1.2.6,1.3,1.3,0,0,1-1.2-.5,1.7,1.7,0,0,1-.5-1.2,1.9,1.9,0,0,1,.5-1.3A1.7,1.7,0,0,1,121.4,104.8Zm0,3.1a1.3,1.3,0,0,0,.9-.4,1.8,1.8,0,0,0,.4-.9,1.8,1.8,0,0,0-.4-1,1.3,1.3,0,0,0-.9-.4,1.2,1.2,0,0,0-.8.4,1.3,1.3,0,0,0-.4,1,1.2,1.2,0,0,0,.4.9A1.2,1.2,0,0,0,121.4,107.9Z" style="fill:#20427c"/><path d="M124.5,108.2H124v-3.3h.5v.5l.4-.4.7-.2a1.1,1.1,0,0,1,.9.4,1.2,1.2,0,0,1,.3.9v1.6h.4v.4h-.6V108l-.2-.2v-1.6a1.4,1.4,0,0,0-.2-.7l-.6-.2a.9.9,0,0,0-.7.3.7.7,0,0,0-.3.6Z" style="fill:#20427c"/><path d="M129.2,104.8h.7c.2.2.4.3.5.5v-.5h.4v2.9c0,.1.1.1.2.1h.2v.3h-.7a.8.8,0,0,1-.2-.5,1.4,1.4,0,0,1-1.2.6,1.3,1.3,0,0,1-1.2-.5,1.7,1.7,0,0,1-.5-1.2,1.9,1.9,0,0,1,.5-1.3A1.7,1.7,0,0,1,129.2,104.8Zm0,3.1a1.8,1.8,0,0,0,.9-.4,1.6,1.6,0,0,0,.3-.9,1.7,1.7,0,0,0-.3-1,1.8,1.8,0,0,0-.9-.4,1.5,1.5,0,0,0-.9.4,1.7,1.7,0,0,0-.3,1,1.6,1.6,0,0,0,.3.9A1.5,1.5,0,0,0,129.2,107.9Z" style="fill:#20427c"/><path d="M131.8,107.4v-3.8h.5v3.7c0,.2,0,.4.1.4l.3.2c.1,0,.2,0,.2-.1v.5h-.8l-.2-.3A.9.9,0,0,1,131.8,107.4Z" style="fill:#20427c"/><path d="M133.2,106.6h0a1.7,1.7,0,0,1,.5-1.3,1.3,1.3,0,0,1,1.2-.5,1.3,1.3,0,0,1,1.1.5,1.5,1.5,0,0,1,.4,1.1v.3h-2.7a1.1,1.1,0,0,0,.3.8,1.1,1.1,0,0,0,.9.4h.5a1,1,0,0,0,.5-.4l.3.3a1.6,1.6,0,0,1-1.3.6,1.7,1.7,0,0,1-1.7-1.7Zm.5-.4h2.2a1,1,0,0,0-1-1,1.1,1.1,0,0,0-.8.3A1.3,1.3,0,0,0,133.7,106.2Z" style="fill:#20427c"/><path d="M136.7,107.5l.5-.2a.5.5,0,0,0,.2.4h1.1c.2-.1.2-.2.2-.4s0-.3-.2-.3l-.6-.4c-.3-.1-.6-.2-.7-.4a.8.8,0,0,1-.2-.5.9.9,0,0,1,.3-.7l.7-.2a1.1,1.1,0,0,1,1,.6l-.4.2c-.2-.3-.3-.4-.6-.4h-.4c-.1.1-.1.2-.1.4a.4.4,0,0,0,.1.3l.6.3.8.4a1.4,1.4,0,0,1,.2.6.9.9,0,0,1-.3.7,1.2,1.2,0,0,1-.9.3l-.8-.2A1,1,0,0,1,136.7,107.5Z" style="fill:#20427c"/><path d="M139.7,108.2c0-.1-.1-.2-.1-.3s.1-.1.1-.2h.5c.1.1.1.1.1.2a.4.4,0,0,1-.1.3h-.5Z" style="fill:#20427c"/><path d="M22.6,115.2h-.5v-4.6h.5Z" style="fill:#20427c"/><path d="M24.1,115.2h-.5v-3.3h.5v.5c.1-.1.2-.3.4-.4l.7-.2a.9.9,0,0,1,.8.4,1,1,0,0,1,.4.9v1.6h.3v.4h-.5L26,115v-1.8a1.4,1.4,0,0,0-.2-.7l-.7-.2a1.1,1.1,0,0,0-.9.9Z" style="fill:#20427c"/><path d="M27,114.5l.4-.2.3.4h1.1a.5.5,0,0,0,.2-.4c0-.1-.1-.3-.2-.3l-.6-.4c-.3-.1-.6-.2-.7-.4s-.2-.3-.2-.5a.9.9,0,0,1,.3-.7l.7-.2a1,1,0,0,1,.9.6l-.4.2a.5.5,0,0,0-.5-.4h-.4c-.1.1-.1.2-.1.4a.4.4,0,0,0,.1.3l.6.3.8.4a1.4,1.4,0,0,1,.2.6.9.9,0,0,1-.3.7,1.2,1.2,0,0,1-.9.3,1.5,1.5,0,0,1-.8-.2A1,1,0,0,1,27,114.5Z" style="fill:#20427c"/><path d="M30.2,114.3v-2h-.4v-.4h.4v-1.3h.5v1.3h.8v.4h-.8v2c0,.2,0,.3.1.4l.4.2h.3v.5h-.4C30.5,115.3,30.2,115,30.2,114.3Z" style="fill:#20427c"/><path d="M32.5,115.2H32v-3.3h.5v.5l.4-.4.7-.2h.2v.6h-.4l-.6.3a.9.9,0,0,0-.3.7Z" style="fill:#20427c"/><path d="M34.4,114v-2.1h.5v2a1.4,1.4,0,0,0,.2.7l.6.2.7-.2a1.4,1.4,0,0,0,.2-.7v-2h.5v2.5c0,.2,0,.3.1.4h.3v.4h-.3a.5.5,0,0,1-.4-.2.4.4,0,0,1-.1-.3,1.4,1.4,0,0,1-1.1.5,1,1,0,0,1-.9-.4A1.2,1.2,0,0,1,34.4,114Z" style="fill:#20427c"/><path d="M39.6,111.8a1.9,1.9,0,0,1,1.3.5l-.3.3a1.8,1.8,0,0,0-1-.4,1.3,1.3,0,0,0-.9.4,1.3,1.3,0,0,0-.4,1,1.2,1.2,0,0,0,.4.9,1.3,1.3,0,0,0,.9.4,1.8,1.8,0,0,0,1-.4l.3.3a1.5,1.5,0,0,1-1.3.5,1.3,1.3,0,0,1-1.2-.5,1.4,1.4,0,0,1-.6-1.2,1.5,1.5,0,0,1,.6-1.3A1.7,1.7,0,0,1,39.6,111.8Z" style="fill:#20427c"/><path d="M43,111.8a1.7,1.7,0,0,1,1.2.5l-.3.3a1.3,1.3,0,0,0-.9-.4,1.8,1.8,0,0,0-1,.4,1.7,1.7,0,0,0-.3,1,1.6,1.6,0,0,0,.3.9,1.8,1.8,0,0,0,1,.4,1.3,1.3,0,0,0,.9-.4l.3.3a1.3,1.3,0,0,1-1.2.5,1.5,1.5,0,0,1-1.3-.5,1.7,1.7,0,0,1-.5-1.2,1.7,1.7,0,0,1,.5-1.3A1.9,1.9,0,0,1,43,111.8Z" style="fill:#20427c"/><path d="M45.2,111.2h-.4c-.1,0-.1-.1-.1-.2s0-.2.1-.2h.4c.1,0,.1.1.1.2S45.3,111.2,45.2,111.2Zm-.4,3.4v-2.7h.4v2.9h.4v.4h-.3C45,115.3,44.8,115.1,44.8,114.6Z" style="fill:#20427c"/><path d="M46.5,114.8a1.4,1.4,0,0,1-.6-1.2,1.5,1.5,0,0,1,.6-1.3,1.7,1.7,0,0,1,1.2-.5,2.1,2.1,0,0,1,1.3.5,1.7,1.7,0,0,1,.5,1.3,1.7,1.7,0,0,1-1.8,1.7A1.3,1.3,0,0,1,46.5,114.8Zm.3-2.2a1.8,1.8,0,0,0-.4,1,1.8,1.8,0,0,0,.4.9,1.2,1.2,0,0,0,1.8,0,1.2,1.2,0,0,0,.4-.9,1.3,1.3,0,0,0-.4-1,1.2,1.2,0,0,0-1.8,0Z" style="fill:#20427c"/><path d="M50.6,115.2h-.5v-3.3h.5v.5c.1-.1.2-.3.4-.4l.6-.2a1,1,0,0,1,.9.4,1.3,1.3,0,0,1,.4.9v1.6h.3v.4h-.5l-.2-.2a.3.3,0,0,1-.1-.2v-1.6a.9.9,0,0,0-.3-.7l-.6-.2a.9.9,0,0,0-.7.3,1.1,1.1,0,0,0-.2.6Z" style="fill:#20427c"/><path d="M53.6,113.6h0a1.7,1.7,0,0,1,.4-1.3,1.6,1.6,0,0,1,1.2-.5,1.3,1.3,0,0,1,1.2.5,2.1,2.1,0,0,1,.4,1.1v.3H54.1a1.1,1.1,0,0,0,.3.8,1,1,0,0,0,.9.4h.5l.5-.4.3.3a1.6,1.6,0,0,1-1.3.6,2.1,2.1,0,0,1-1.3-.5A1.6,1.6,0,0,1,53.6,113.6Zm.5-.4h2.2a1.1,1.1,0,0,0-.3-.7,1.1,1.1,0,0,0-.8-.3.9.9,0,0,0-.7.3A.9.9,0,0,0,54.1,113.2Z" style="fill:#20427c"/><path d="M57.1,114.5l.4-.2.3.4h1.1a.5.5,0,0,0,.2-.4c0-.1-.1-.3-.2-.3l-.6-.4c-.3-.1-.6-.2-.7-.4s-.2-.3-.2-.5a1.4,1.4,0,0,1,.2-.7l.8-.2a1,1,0,0,1,.9.6l-.4.2a.5.5,0,0,0-.5-.4H58a.5.5,0,0,0-.2.4l.2.3.6.3.7.4a.9.9,0,0,1,.3.6.9.9,0,0,1-.3.7,1.4,1.4,0,0,1-.9.3l-.9-.2A1.3,1.3,0,0,1,57.1,114.5Z" style="fill:#20427c"/><path d="M64.3,111.8a1.9,1.9,0,0,1,1.3.5l-.3.3a1.8,1.8,0,0,0-1-.4,1.8,1.8,0,0,0-.9.4,1.8,1.8,0,0,0-.4,1,1.4,1.4,0,0,0,1.3,1.3,1.8,1.8,0,0,0,1-.4l.3.3a1.5,1.5,0,0,1-1.3.5,1.7,1.7,0,0,1-1.7-1.7,1.4,1.4,0,0,1,.5-1.3A1.7,1.7,0,0,1,64.3,111.8Z" style="fill:#20427c"/><path d="M66.1,114.4v-3.8h.5v3.7c0,.2,0,.4.1.4l.3.2h.3v.5h-.9l-.2-.3A.9.9,0,0,1,66.1,114.4Z" style="fill:#20427c"/><path d="M69.2,111.8h.7l.5.5v-.5h.5v2.9h.4v.3h-.7a.8.8,0,0,1-.2-.5,1.2,1.2,0,0,1-1.2.6,1.3,1.3,0,0,1-1.2-.5,1.7,1.7,0,0,1-.5-1.2,1.9,1.9,0,0,1,.5-1.3A1.7,1.7,0,0,1,69.2,111.8Zm0,3.1a1.3,1.3,0,0,0,.9-.4,1.8,1.8,0,0,0,.4-.9,1.8,1.8,0,0,0-.4-1,1.3,1.3,0,0,0-.9-.4,1.8,1.8,0,0,0-.9.4,1.7,1.7,0,0,0-.3,1,1.6,1.6,0,0,0,.3.9A1.8,1.8,0,0,0,69.2,114.9Z" style="fill:#20427c"/><path d="M72.3,115.2h-.5v-3.3h.5v.5c.1-.1.2-.3.4-.4l.6-.2h.2v.6h-.3a.7.7,0,0,0-.6.3.9.9,0,0,0-.3.7Z" style="fill:#20427c"/><path d="M75.5,111.8h.7l.4.5v-.5h.5v2.6a.4.4,0,0,0,.1.3c0,.1.1.1.2.1h.2v.3h-.7a.8.8,0,0,1-.2-.5,1.4,1.4,0,0,1-1.2.6,1.7,1.7,0,0,1-1.7-1.7,1.5,1.5,0,0,1,.5-1.3A1.7,1.7,0,0,1,75.5,111.8Zm0,3.1a1.2,1.2,0,0,0,.8-.4,1.2,1.2,0,0,0,.4-.9,1.3,1.3,0,0,0-.4-1,1.2,1.2,0,0,0-.8-.4,1.3,1.3,0,0,0-.9.4,1.7,1.7,0,0,0-.3,1,1.6,1.6,0,0,0,.3.9A1.3,1.3,0,0,0,75.5,114.9Z" style="fill:#20427c"/><path d="M77.8,114.5l.4-.2.3.4h1.1a.5.5,0,0,0,.2-.4c0-.1-.1-.3-.2-.3l-.6-.4c-.3-.1-.6-.2-.7-.4s-.2-.3-.2-.5a.9.9,0,0,1,.3-.7l.7-.2a1,1,0,0,1,.9.6l-.4.2a.5.5,0,0,0-.5-.4h-.4c-.1.1-.1.2-.1.4a.4.4,0,0,0,.1.3l.6.3.8.4a1.4,1.4,0,0,1,.2.6.9.9,0,0,1-.3.7,1.2,1.2,0,0,1-.9.3l-.8-.2A1,1,0,0,1,77.8,114.5Z" style="fill:#20427c"/><path d="M80.6,116.1h-.4l.6-1.6h.6Z" style="fill:#20427c"/><path d="M86.3,111.8H87c.2.2.4.3.5.5v-.5H88v2.9c0,.1.1.1.2.1h.2v.3h-.7a.8.8,0,0,1-.2-.5,1.4,1.4,0,0,1-1.2.6,1.3,1.3,0,0,1-1.2-.5,1.7,1.7,0,0,1-.5-1.2,1.9,1.9,0,0,1,.5-1.3A1.7,1.7,0,0,1,86.3,111.8Zm0,3.1a1.8,1.8,0,0,0,.9-.4,1.6,1.6,0,0,0,.3-.9,1.7,1.7,0,0,0-.3-1,1.8,1.8,0,0,0-.9-.4,1.5,1.5,0,0,0-.9.4,1.7,1.7,0,0,0-.3,1,1.6,1.6,0,0,0,.3.9A1.5,1.5,0,0,0,86.3,114.9Z" style="fill:#20427c"/><path d="M88.6,114.5l.5-.2a.5.5,0,0,0,.2.4h1.2c.1-.1.1-.2.1-.4s0-.3-.2-.3l-.6-.4c-.3-.1-.6-.2-.7-.4a.8.8,0,0,1-.2-.5.9.9,0,0,1,.3-.7l.7-.2a1.1,1.1,0,0,1,1,.6l-.4.2c-.2-.3-.3-.4-.6-.4h-.4c-.1.1-.1.2-.1.4a.4.4,0,0,0,.1.3l.6.3.8.4a1.4,1.4,0,0,1,.2.6.9.9,0,0,1-.3.7,1.2,1.2,0,0,1-.9.3l-.8-.2A1,1,0,0,1,88.6,114.5Z" style="fill:#20427c"/><path d="M92.1,111.2h-.4c-.1,0-.1-.1-.1-.2s0-.2.1-.2h.4c.1,0,.1.1.1.2S92.2,111.2,92.1,111.2Zm-.5,3.4v-2.7h.5v2.6a.4.4,0,0,0,.1.3h.3v.4h-.3C91.8,115.3,91.6,115.1,91.6,114.6Z" style="fill:#20427c"/><path d="M93,116.2l.2-.4a2,2,0,0,0,1.3.4,1.5,1.5,0,0,0,.8-.2,1.2,1.2,0,0,0,.4-1.1v-.2l-.5.4-.7.2a1.7,1.7,0,0,1-1.2-.5,2.1,2.1,0,0,1-.5-1.3,1.7,1.7,0,0,1,1.7-1.7h.7l.5.5v-.5h.5v2.8c0,.4-.1.7-.1,1a2.1,2.1,0,0,1-.4.6,1.6,1.6,0,0,1-1.2.4A2.7,2.7,0,0,1,93,116.2Zm1.5-1.4a1,1,0,0,0,.9-.4,1.3,1.3,0,0,0,.4-.9,1.8,1.8,0,0,0-.4-.9,1.3,1.3,0,0,0-.9-.4,1.2,1.2,0,0,0-.8.4,1.2,1.2,0,0,0-.4.9,1,1,0,0,0,.4.9A.9.9,0,0,0,94.5,114.8Z" style="fill:#20427c"/><path d="M97.4,115.2h-.5v-3.3h.5v.5l.4-.4.7-.2a1.2,1.2,0,0,1,1.2,1.3v1.6h.3v.4h-.5V115c-.1,0-.1-.1-.2-.2v-1.6a1.4,1.4,0,0,0-.2-.7l-.7-.2a.9.9,0,0,0-.6.3.7.7,0,0,0-.3.6Z" style="fill:#20427c"/><path d="M102.1,111.8h.7c.2.2.4.3.5.5v-.5h.4v2.9c0,.1.1.1.2.1h.2v.3h-.7a.8.8,0,0,1-.2-.5,1.4,1.4,0,0,1-1.2.6,1.7,1.7,0,0,1-1.7-1.7,1.5,1.5,0,0,1,.5-1.3A1.7,1.7,0,0,1,102.1,111.8Zm0,3.1a1.8,1.8,0,0,0,.9-.4,1.6,1.6,0,0,0,.3-.9,1.7,1.7,0,0,0-.3-1,1.8,1.8,0,0,0-.9-.4,1.3,1.3,0,0,0-.9.4,1.7,1.7,0,0,0-.3,1,1.6,1.6,0,0,0,.3.9A1.3,1.3,0,0,0,102.1,114.9Z" style="fill:#20427c"/><path d="M106.2,111.8a2.1,2.1,0,0,1,1.3.5l-.3.3a1.8,1.8,0,0,0-1-.4,1.3,1.3,0,0,0-.9.4,1.3,1.3,0,0,0-.4,1,1.2,1.2,0,0,0,.4.9,1.3,1.3,0,0,0,.9.4,1.8,1.8,0,0,0,1-.4l.3.3a1.8,1.8,0,0,1-3.1-1.2,1.7,1.7,0,0,1,.5-1.3A2.1,2.1,0,0,1,106.2,111.8Z" style="fill:#20427c"/><path d="M108.5,111.2H108c-.1,0-.1-.1-.1-.2s0-.2.1-.2h.5v.4Zm-.5,3.4v-2.7h.5v2.9h.4v.4h-.3C108.2,115.3,108,115.1,108,114.6Z" style="fill:#20427c"/><path d="M109.7,114.8a1.3,1.3,0,0,1-.5-1.2,1.4,1.4,0,0,1,.5-1.3,1.7,1.7,0,0,1,1.2-.5,1.9,1.9,0,0,1,1.3.5,1.7,1.7,0,0,1,.5,1.3,1.7,1.7,0,0,1-.5,1.2,1.5,1.5,0,0,1-1.3.5A1.3,1.3,0,0,1,109.7,114.8Zm.3-2.2a1.7,1.7,0,0,0-.3,1,1.6,1.6,0,0,0,.3.9,1.8,1.8,0,0,0,.9.4,1.8,1.8,0,0,0,1-.4,1.6,1.6,0,0,0,.3-.9,1.7,1.7,0,0,0-.3-1,1.8,1.8,0,0,0-1-.4A1.8,1.8,0,0,0,110,112.6Z" style="fill:#20427c"/><path d="M113.8,115.2h-.5v-3.3h.5v.5c.1-.1.2-.3.4-.4l.7-.2a.9.9,0,0,1,.8.4,1,1,0,0,1,.4.9v1.6h.3v.4h-.5l-.2-.2v-1.8a1.4,1.4,0,0,0-.2-.7l-.7-.2a1.1,1.1,0,0,0-.9.9Z" style="fill:#20427c"/><path d="M116.8,113.6h0a1.7,1.7,0,0,1,.5-1.3,1.3,1.3,0,0,1,1.2-.5,1.3,1.3,0,0,1,1.1.5,1.5,1.5,0,0,1,.4,1.1v.3h-2.7a1.1,1.1,0,0,0,.3.8,1.1,1.1,0,0,0,.9.4h.5a1,1,0,0,0,.5-.4l.3.3a1.6,1.6,0,0,1-1.3.6,1.7,1.7,0,0,1-1.7-1.7Zm.5-.4h2.2a1,1,0,0,0-1-1,1.1,1.1,0,0,0-.8.3A1.3,1.3,0,0,0,117.3,113.2Z" style="fill:#20427c"/><path d="M120.3,114.5l.5-.2a.5.5,0,0,0,.2.4h1.1c.2-.1.2-.2.2-.4s0-.3-.2-.3l-.6-.4c-.3-.1-.6-.2-.7-.4a.8.8,0,0,1-.2-.5.9.9,0,0,1,.3-.7l.7-.2a1.1,1.1,0,0,1,1,.6l-.4.2c-.2-.3-.3-.4-.6-.4h-.4c-.1.1-.1.2-.1.4a.4.4,0,0,0,.1.3l.6.3.8.4a1.4,1.4,0,0,1,.2.6.9.9,0,0,1-.3.7,1.2,1.2,0,0,1-.9.3l-.8-.2A1,1,0,0,1,120.3,114.5Z" style="fill:#20427c"/><path d="M125.8,116.5v-.4h.7l.2-.4.2-.4-1.4-3.4h.5l1.1,2.8,1.1-2.8h.4l-1.5,3.9-.3.5-.6.3Z" style="fill:#20427c"/><path d="M59.3,118.8H60c.2.2.4.3.5.5v-.5H61v2.9h.4v.3h-.7a.8.8,0,0,1-.2-.5,1.2,1.2,0,0,1-1.2.6,1.3,1.3,0,0,1-1.2-.5,1.7,1.7,0,0,1-.5-1.2,1.9,1.9,0,0,1,.5-1.3A1.7,1.7,0,0,1,59.3,118.8Zm0,3.1a1.3,1.3,0,0,0,.9-.4,1.6,1.6,0,0,0,.3-.9,1.7,1.7,0,0,0-.3-1,1.3,1.3,0,0,0-.9-.4,1.8,1.8,0,0,0-.9.4,1.7,1.7,0,0,0-.3,1,1.6,1.6,0,0,0,.3.9A1.8,1.8,0,0,0,59.3,121.9Z" style="fill:#20427c"/><path d="M63.4,118.8a1.9,1.9,0,0,1,1.3.5l-.3.3a1.8,1.8,0,0,0-1-.4,1.3,1.3,0,0,0-.9.4,1.3,1.3,0,0,0-.4,1,1.2,1.2,0,0,0,.4.9,1.3,1.3,0,0,0,.9.4,1.8,1.8,0,0,0,1-.4l.3.3a1.5,1.5,0,0,1-1.3.5,1.3,1.3,0,0,1-1.2-.5,1.4,1.4,0,0,1-.6-1.2,1.5,1.5,0,0,1,.6-1.3A1.7,1.7,0,0,1,63.4,118.8Z" style="fill:#20427c"/><path d="M65.4,121.3v-2H65v-.4h.4v-1.3h.5v1.3h.8v.4h-.8v2c0,.2,0,.3.1.4l.4.2h.3v.5h-.4C65.7,122.3,65.4,122,65.4,121.3Z" style="fill:#20427c"/><path d="M67.7,118.2h-.4c-.1,0-.1-.1-.1-.2s0-.2.1-.2h.4c.1,0,.1.1.1.2S67.8,118.2,67.7,118.2Zm-.5,3.4v-2.7h.5v2.6a.4.4,0,0,0,.1.3h.4v.4h-.4C67.4,122.3,67.2,122.1,67.2,121.6Z" style="fill:#20427c"/><path d="M69.9,122.2h-.3l-1.4-3.3h.5l1.1,2.5,1-2.5h.6Z" style="fill:#20427c"/><path d="M72.3,118.2h-.5v-.4h.5c.1,0,.1.1.1.2S72.4,118.2,72.3,118.2Zm-.5,3.4v-2.7h.5v2.6a.4.4,0,0,0,.1.3h.3v.4h-.3C72,122.3,71.8,122.1,71.8,121.6Z" style="fill:#20427c"/><path d="M74.7,118.8h.7l.5.5v-1.8h.5v4.2h.4v.3h-.7a.8.8,0,0,1-.2-.5,1.2,1.2,0,0,1-1.2.6,1.3,1.3,0,0,1-1.2-.5,1.7,1.7,0,0,1-.5-1.2,1.9,1.9,0,0,1,.5-1.3A1.7,1.7,0,0,1,74.7,118.8Zm0,3.1a1.3,1.3,0,0,0,.9-.4,1.6,1.6,0,0,0,.3-.9,1.7,1.7,0,0,0-.3-1,1.3,1.3,0,0,0-.9-.4,1.8,1.8,0,0,0-.9.4,1.7,1.7,0,0,0-.3,1,1.6,1.6,0,0,0,.3.9A1.8,1.8,0,0,0,74.7,121.9Z" style="fill:#20427c"/><path d="M78.8,118.8h.7l.4.5v-.5h.5v2.9c0,.1.1.1.2.1h.2v.3h-.7a.8.8,0,0,1-.2-.5,1.4,1.4,0,0,1-1.2.6,1.7,1.7,0,0,1-1.7-1.7,1.5,1.5,0,0,1,.5-1.3A1.7,1.7,0,0,1,78.8,118.8Zm0,3.1a1.2,1.2,0,0,0,.8-.4,1.2,1.2,0,0,0,.4-.9,1.3,1.3,0,0,0-.4-1,1.2,1.2,0,0,0-.8-.4,1.3,1.3,0,0,0-.9.4,1.7,1.7,0,0,0-.3,1,1.6,1.6,0,0,0,.3.9A1.3,1.3,0,0,0,78.8,121.9Z" style="fill:#20427c"/><path d="M82.8,118.8h.8l.4.5v-1.8h.5v3.9a.4.4,0,0,0,.1.3.1.1,0,0,0,.1.1h.2v.3h-.6c-.2-.1-.2-.3-.3-.5a1.2,1.2,0,0,1-1.2.6,1.3,1.3,0,0,1-1.2-.5,1.7,1.7,0,0,1-.5-1.2,1.9,1.9,0,0,1,.5-1.3A1.8,1.8,0,0,1,82.8,118.8Zm0,3.1a1.3,1.3,0,0,0,.9-.4,1.8,1.8,0,0,0,.4-.9,1.8,1.8,0,0,0-.4-1,1.3,1.3,0,0,0-.9-.4,1.2,1.2,0,0,0-.8.4,1.3,1.3,0,0,0-.4,1,1.2,1.2,0,0,0,.4.9A1.2,1.2,0,0,0,82.8,121.9Z" style="fill:#20427c"/><path d="M85.2,120.6h0a1.7,1.7,0,0,1,.5-1.3,1.3,1.3,0,0,1,1.2-.5,1.3,1.3,0,0,1,1.1.5,1.5,1.5,0,0,1,.4,1.1v.3H85.7a1.4,1.4,0,0,0,1.2,1.2h.6l.4-.4.4.3a1.8,1.8,0,0,1-1.4.6,1.7,1.7,0,0,1-1.7-1.7Zm.6-.4h2.1a1.1,1.1,0,0,0-.3-.7.9.9,0,0,0-.7-.3,1.1,1.1,0,0,0-.8.3A1.1,1.1,0,0,0,85.8,120.2Z" style="fill:#20427c"/><path d="M88.8,121.5l.4-.2c0,.2.1.3.3.4h1.1c.1-.1.1-.2.1-.4s0-.3-.1-.3l-.7-.4-.7-.4a.8.8,0,0,1-.2-.5.9.9,0,0,1,.3-.7l.7-.2a1,1,0,0,1,1,.6l-.4.2a.5.5,0,0,0-.6-.4h-.4c-.1.1-.1.2-.1.4l.2.3.5.3.8.4a.7.7,0,0,1,.2.6.9.9,0,0,1-.3.7,1.2,1.2,0,0,1-.9.3l-.8-.2C89,121.9,88.8,121.8,88.8,121.5Z" style="fill:#20427c"/><path d="M91.8,122.2a.4.4,0,0,1-.1-.3c0-.1,0-.1.1-.2s.1-.1.2-.1.2,0,.2.1.1.1.1.2a.4.4,0,0,1-.1.3h-.4Z" style="fill:#20427c"/><g id="svg_3" data-name="svg 3"><path d="M101.8,95.4H44.2a4.9,4.9,0,0,1-4.9-4.9V84.7H36.1a3.6,3.6,0,1,1,0-7.1h3.2v-7H36.1a3.6,3.6,0,1,1,0-7.1h3.2V56.4H36.1a3.6,3.6,0,1,1,0-7.1h3.2v-7H36.1a3.6,3.6,0,1,1,0-7.1h3.2v-7H36.1a3.6,3.6,0,1,1,0-7.1h3.2V15.2a4.8,4.8,0,0,1,4.9-4.7h57.6a1,1,0,0,1,1,.9V28.6a1,1,0,0,1-1,.9.9.9,0,0,1-.9-.9V12.3H72V46a.8.8,0,0,1-.6.8.8.8,0,0,1-1-.2l-4.6-4.2-4.6,4.2a.8.8,0,0,1-1,.2.9.9,0,0,1-.5-.8V12.3H44.2a3,3,0,0,0-3,2.9v5.9h3.3A3.6,3.6,0,0,1,48,24.7a2.9,2.9,0,0,1-.9,2.4,3.6,3.6,0,0,1-2.5,1.1H41.2v7h3.3A3.6,3.6,0,0,1,48,38.8a2.9,2.9,0,0,1-.9,2.4,3.6,3.6,0,0,1-2.5,1.1H41.2v7h3.3A3.6,3.6,0,0,1,48,52.9a2.9,2.9,0,0,1-.9,2.4,3.4,3.4,0,0,1-2.5,1.1H41.2v7.1h3.3A3.6,3.6,0,0,1,48,67.1a2.9,2.9,0,0,1-.9,2.4,3.6,3.6,0,0,1-2.5,1.1H41.2v7h3.3A3.6,3.6,0,0,1,48,81.2a2.9,2.9,0,0,1-.9,2.4,3.6,3.6,0,0,1-2.5,1.1H41.2v5.8a3,3,0,0,0,3,3h56.7V58.1a.9.9,0,0,1,.9-.9,1,1,0,0,1,1,.9V94.5A1,1,0,0,1,101.8,95.4ZM36.1,79.5a1.6,1.6,0,0,0-1.7,1.7,1.7,1.7,0,0,0,1.7,1.7h8.5a1.7,1.7,0,0,0,1.2-.6,2.1,2.1,0,0,0,.4-1.1,1.7,1.7,0,0,0-1.7-1.7Zm0-14.1a1.6,1.6,0,0,0-1.7,1.7,1.7,1.7,0,0,0,1.7,1.7h8.5a1.7,1.7,0,0,0,1.2-.6,2.1,2.1,0,0,0,.4-1.1,1.7,1.7,0,0,0-1.7-1.7Zm0-14.2a1.6,1.6,0,0,0-1.7,1.7,1.7,1.7,0,0,0,1.7,1.7h8.5a1.8,1.8,0,0,0,1.2-.5,1.9,1.9,0,0,0,.4-1.2,1.7,1.7,0,0,0-1.7-1.7ZM61.5,12.3V43.8l3.7-3.4a1.1,1.1,0,0,1,1.3,0l3.6,3.4V12.3ZM36.1,37.1a1.6,1.6,0,0,0-1.7,1.7,1.7,1.7,0,0,0,1.7,1.7h8.5a1.7,1.7,0,0,0,1.2-.6,2.1,2.1,0,0,0,.4-1.1,1.7,1.7,0,0,0-1.7-1.7Zm0-14.1a1.6,1.6,0,0,0-1.7,1.7,1.7,1.7,0,0,0,1.7,1.7h8.5a1.7,1.7,0,0,0,1.2-.6,2.1,2.1,0,0,0,.4-1.1A1.7,1.7,0,0,0,44.5,23ZM63.7,84.7l-.7-.2a1.2,1.2,0,0,1,0-1.4l2.7-2.6-1-.9a1.2,1.2,0,0,1-.2-1l2.6-6.4.2-.3,2.5-2.4,33.7-33.9-.8-.9a3.1,3.1,0,0,0-4.4,0L86.1,46.9a.9.9,0,0,1-1.3,0,1,1,0,0,1,0-1.3L97,33.4a5,5,0,0,1,3.5-1.4,4.9,4.9,0,0,1,3.5,1.5l.8.8,3.8-3.7a2.6,2.6,0,0,1,1.9-.8h0a2.7,2.7,0,0,1,1.9.8l4.3,4.4a2.8,2.8,0,0,1,0,3.8L106.5,49c0,.1-.1.2-.1.3h-.3l-28,28.1h0L75.6,80l-.3.2-6.4,2.6a.8.8,0,0,1-1-.2l-.9-.8-2.7,2.7Zm2.8-6,2.3,2.2,5.6-2.3L76,77l-5.5-5.6-1.7,1.7Zm5.3-8.6,5.5,5.6,27.1-27.1L98.8,43Zm28.3-28.4,5.6,5.6,9.7-9.8a.9.9,0,0,0,0-1.2l-4.3-4.4a.7.7,0,0,0-.6-.2h0c-.2,0-.5,0-.6.2L105.8,36c-.1.2-.1.3-.2.4l-.4.2Z" style="fill:#20427c"/></g></g></svg>