<svg xmlns="http://www.w3.org/2000/svg" viewBox="0 0 120 120"><title>ICONO</title><g id="Capa_8" data-name="Capa 8"><path d="M60,115a55,55,0,1,1,55-55A55.1,55.1,0,0,1,60,115ZM60,10a50,50,0,1,0,50,50A50,50,0,0,0,60,10Z" style="fill:#333"/><path d="M82.8,34.8a16.2,16.2,0,0,1,1.7-1.9,1.8,1.8,0,0,1,2.7-.2,1.9,1.9,0,0,1-.1,2.8l-1.8,1.7,2.5,1.3c2.8,1.4,3.2,4.2,1,6.4l-.9.7a31,31,0,0,1-4.1,34.8,1.1,1.1,0,0,0-.1,1.5l3.6,6.4c.7,1.2.5,2.3-.5,2.9a2,2,0,0,1-2.7-1L80.6,84C66.9,94,53.3,94,39.5,84l-.4.6c-1.1,1.9-2.1,3.8-3.2,5.6a1.9,1.9,0,0,1-2.7,1,1.9,1.9,0,0,1-.5-2.8c1.3-2.4,2.7-4.8,4-7-1.5-2.3-3.2-4.4-4.4-6.7A31.4,31.4,0,0,1,53.9,29.1a30.8,30.8,0,0,1,19.6,2.6,1,1,0,0,0,1.4-.3,4.5,4.5,0,0,1,2.5-1.6,3.7,3.7,0,0,1,3.9,2Zm-11.3,0a27.9,27.9,0,1,0,5.9,47.1C88.7,72.7,89.9,58,85.3,48.8a15.4,15.4,0,0,1-3.4,1.7,21.3,21.3,0,0,1-3.7.3,20.4,20.4,0,1,1-36.5.2,19.8,19.8,0,0,1,9.1-9.2,20.1,20.1,0,0,1,18.5.1C69.1,39.2,69.1,36.6,71.5,34.8Zm-3.8,20a9.4,9.4,0,0,1-2,12.5A9.3,9.3,0,0,1,52.2,54.9a9.3,9.3,0,0,1,13-2.6c1.3-1.4,2.6-2.6,3.8-4s.3-2-.3-2.4c-10.2-6.6-24.2.3-25.3,12.5A16.7,16.7,0,0,0,63,76.3c11.5-2,17.4-15.3,11.2-24.9a1.8,1.8,0,0,0-2.5-.5Zm-5.2.2a5.8,5.8,0,0,0-7.2,1.8,5.7,5.7,0,0,0,8.2,7.6,5.4,5.4,0,0,0,1.4-6.8L61.6,61a3.7,3.7,0,0,1-1.2.7,1.6,1.6,0,0,1-2-.8,1.8,1.8,0,0,1,.3-2.2ZM78.1,33.6l-4.7,4.5a1.5,1.5,0,0,0-.4.8v5.3h.2l6.5-6.4a1.1,1.1,0,0,0,0-.8Zm8.3,8.3-3.1-1.6a.9.9,0,0,0-1.2.2c-1.4,1.5-2.9,2.9-4.4,4.4L75.6,47H81a1.2,1.2,0,0,0,.8-.4Z" style="fill:#333"/></g></svg>