<svg xmlns="http://www.w3.org/2000/svg" viewBox="0 0 150 134"><title>ICONO</title><g id="Capa_9" data-name="Capa 9"><path d="M17.9,108.2h-.5v-4.6h1.5a1.4,1.4,0,0,1,1.4,1.4,1.9,1.9,0,0,1-.2.8,1.8,1.8,0,0,1-.7.5l1.2,1.9H20l-1.1-1.8h-1Zm0-4.1v1.8h1l.6-.2a.9.9,0,0,0,.3-.7,1.4,1.4,0,0,0-.2-.7l-.7-.2Z" style="fill:#20427c"/><path d="M20.8,106.6h0a1.7,1.7,0,0,1,.5-1.3,1.3,1.3,0,0,1,1.2-.5,1.3,1.3,0,0,1,1.1.5,1.5,1.5,0,0,1,.4,1.1v.3H21.3a.9.9,0,0,0,.4.8.9.9,0,0,0,.8.4h.6l.4-.4.4.3a1.8,1.8,0,0,1-1.4.6,1.7,1.7,0,0,1-1.7-1.7Zm.6-.4h2.1a1.1,1.1,0,0,0-.3-.7.9.9,0,0,0-.7-.3,1.1,1.1,0,0,0-.8.3A1.1,1.1,0,0,0,21.4,106.2Z" style="fill:#20427c"/><path d="M26.2,104.8h.7l.4.5v-1.8h.5v4.2c0,.1.1.1.2.1h.2v.3h-.7a.8.8,0,0,1-.2-.5,1.4,1.4,0,0,1-1.2.6,1.7,1.7,0,0,1-1.7-1.7,1.5,1.5,0,0,1,.5-1.3A1.7,1.7,0,0,1,26.2,104.8Zm0,3.1a1.2,1.2,0,0,0,.8-.4,1.2,1.2,0,0,0,.4-.9,1.3,1.3,0,0,0-.4-1,1.2,1.2,0,0,0-.8-.4,1.3,1.3,0,0,0-.9.4,1.7,1.7,0,0,0-.3,1,1.6,1.6,0,0,0,.3.9A1.3,1.3,0,0,0,26.2,107.9Z" style="fill:#20427c"/><path d="M33,104.8h.7c.2.2.4.3.5.5v-1.8h.4v4.2c0,.1.1.1.2.1h.2v.3h-.7a.8.8,0,0,1-.2-.5,1.4,1.4,0,0,1-1.2.6,1.3,1.3,0,0,1-1.2-.5,1.7,1.7,0,0,1-.5-1.2,1.9,1.9,0,0,1,.5-1.3A1.7,1.7,0,0,1,33,104.8Zm0,3.1a1.8,1.8,0,0,0,.9-.4,1.6,1.6,0,0,0,.3-.9,1.7,1.7,0,0,0-.3-1,1.8,1.8,0,0,0-.9-.4,1.3,1.3,0,0,0-.9.4,1.7,1.7,0,0,0-.3,1,1.6,1.6,0,0,0,.3.9A1.3,1.3,0,0,0,33,107.9Z" style="fill:#20427c"/><path d="M35.4,106.6h0a1.4,1.4,0,0,1,.5-1.3,1.3,1.3,0,0,1,1.2-.5,1.3,1.3,0,0,1,1.1.5,2.1,2.1,0,0,1,.4,1.1v.3H35.9a1.1,1.1,0,0,0,.3.8,1,1,0,0,0,.9.4h.5l.5-.4.3.3a1.6,1.6,0,0,1-1.3.6,2.1,2.1,0,0,1-1.3-.5A1.6,1.6,0,0,1,35.4,106.6Zm.5-.4h2.2a1,1,0,0,0-1-1,1.1,1.1,0,0,0-.8.3A.9.9,0,0,0,35.9,106.2Z" style="fill:#20427c"/><path d="M42,107.3v-2h-.4v-.4H42v-1.3h.5v1.3h.7v.4h-.7v2c0,.2,0,.3.1.4l.3.2h.3v.5h-.3C42.3,108.3,42,108,42,107.3Z" style="fill:#20427c"/><path d="M44.3,108.2h-.5v-3.3h.5v.5c.1-.1.2-.3.4-.4l.6-.2h.2v.6h-.3a.9.9,0,0,0-.7.3,1.4,1.4,0,0,0-.2.7Z" style="fill:#20427c"/><path d="M47.4,104.8h.8l.4.5v-.5h.5v2.6a.4.4,0,0,0,.1.3c0,.1.1.1.2.1h.1v.3h-.6c-.2-.1-.2-.3-.3-.5a1.2,1.2,0,0,1-1.2.6,1.6,1.6,0,0,1-1.2-.5,1.7,1.7,0,0,1-.5-1.2,1.9,1.9,0,0,1,.5-1.3A2.1,2.1,0,0,1,47.4,104.8Zm0,3.1a1.3,1.3,0,0,0,.9-.4,1.2,1.2,0,0,0,.4-.9,1.3,1.3,0,0,0-.4-1,1.3,1.3,0,0,0-.9-.4,1.2,1.2,0,0,0-.8.4,1.3,1.3,0,0,0-.4,1,1.2,1.2,0,0,0,.4.9A1.2,1.2,0,0,0,47.4,107.9Z" style="fill:#20427c"/><path d="M50.5,108.2H50v-4.6h.5v1.8c.1-.2.3-.3.5-.5h.7a1.7,1.7,0,0,1,1.2.5,1.9,1.9,0,0,1,.5,1.3,1.7,1.7,0,0,1-.5,1.2,1.3,1.3,0,0,1-1.2.5H51l-.5-.5Zm1.2-.3a1.5,1.5,0,0,0,.9-.4,1.6,1.6,0,0,0,.3-.9,1.7,1.7,0,0,0-.3-1,1.5,1.5,0,0,0-.9-.4,1.8,1.8,0,0,0-.9.4,1.7,1.7,0,0,0-.3,1,1.6,1.6,0,0,0,.3.9A1.8,1.8,0,0,0,51.7,107.9Z" style="fill:#20427c"/><path d="M55.6,104.8h.7l.4.5v-.5h.5v2.6a.4.4,0,0,0,.1.3c0,.1.1.1.2.1h.1v.3H57a.8.8,0,0,1-.2-.5,1.4,1.4,0,0,1-1.2.6,1.7,1.7,0,0,1-1.7-1.7,1.5,1.5,0,0,1,.5-1.3A1.7,1.7,0,0,1,55.6,104.8Zm0,3.1a1.2,1.2,0,0,0,.8-.4,1.2,1.2,0,0,0,.4-.9,1.3,1.3,0,0,0-.4-1,1.2,1.2,0,0,0-.8-.4,1.3,1.3,0,0,0-.9.4,1.7,1.7,0,0,0-.3,1,1.6,1.6,0,0,0,.3.9A1.3,1.3,0,0,0,55.6,107.9Z" style="fill:#20427c"/><path d="M58.2,108.6v-3.7h.5v3.7a.9.9,0,0,1-1,1h-.2v-.5h.6C58.1,108.9,58.2,108.8,58.2,108.6Zm.4-4.4h-.4c-.1,0-.1-.1-.1-.2s0-.2.1-.2h.4c.1,0,.1.1.1.2S58.7,104.2,58.6,104.2Z" style="fill:#20427c"/><path d="M59.8,107.8a1.3,1.3,0,0,1-.5-1.2,1.4,1.4,0,0,1,.5-1.3,1.7,1.7,0,0,1,1.2-.5,1.9,1.9,0,0,1,1.3.5,1.7,1.7,0,0,1,.5,1.3,1.7,1.7,0,0,1-.5,1.2,1.5,1.5,0,0,1-1.3.5A1.3,1.3,0,0,1,59.8,107.8Zm.3-2.2a1.7,1.7,0,0,0-.3,1,1.6,1.6,0,0,0,.3.9,1.8,1.8,0,0,0,.9.4,1.8,1.8,0,0,0,1-.4,1.6,1.6,0,0,0,.3-.9,1.7,1.7,0,0,0-.3-1,1.8,1.8,0,0,0-1-.4A1.8,1.8,0,0,0,60.1,105.6Z" style="fill:#20427c"/><path d="M67.6,104.8a1.7,1.7,0,0,1,1.3.5l-.3.3a1.5,1.5,0,0,0-1-.4,1.8,1.8,0,0,0-.9.4,1.7,1.7,0,0,0-.3,1,1.6,1.6,0,0,0,.3.9,1.8,1.8,0,0,0,.9.4,1.5,1.5,0,0,0,1-.4l.3.3a1.4,1.4,0,0,1-1.3.5,1.7,1.7,0,0,1-1.7-1.7,1.4,1.4,0,0,1,.5-1.3A1.8,1.8,0,0,1,67.6,104.8Z" style="fill:#20427c"/><path d="M69.7,107.8a1.7,1.7,0,0,1-.5-1.2,1.7,1.7,0,0,1,.5-1.3,1.9,1.9,0,0,1,2.6,0,1.7,1.7,0,0,1,.5,1.3,1.8,1.8,0,0,1-3.1,1.2Zm.4-2.2a1.3,1.3,0,0,0-.4,1,1.2,1.2,0,0,0,.4.9,1.2,1.2,0,0,0,1.8,0,1.2,1.2,0,0,0,.4-.9,1.3,1.3,0,0,0-.4-1,1.2,1.2,0,0,0-1.8,0Z" style="fill:#20427c"/><path d="M73.9,108.2h-.5v-3.3h.5v.5c.1-.1.2-.3.4-.4l.6-.2a1,1,0,0,1,.9.4,1.2,1.2,0,0,1,.3.9v1.4c0,.1,0,.2.1.2h.3v.4h-.6c0-.1-.1-.1-.1-.2a.3.3,0,0,1-.1-.2v-1.6a.8.8,0,0,0-.2-.7l-.6-.2a.9.9,0,0,0-.7.3c-.2.1-.2.4-.2.6Z" style="fill:#20427c"/><path d="M80.2,109.5h-.4v-4.6h.4v.5c.1-.2.3-.3.5-.5h.7a1.7,1.7,0,0,1,1.2.5,1.5,1.5,0,0,1,.5,1.3,1.7,1.7,0,0,1-1.7,1.7h-.7c-.2-.2-.4-.3-.5-.5Zm1.2-1.6a1.3,1.3,0,0,0,.9-.4,1.6,1.6,0,0,0,.3-.9,1.7,1.7,0,0,0-.3-1,1.3,1.3,0,0,0-.9-.4,1.8,1.8,0,0,0-.9.4,1.7,1.7,0,0,0-.3,1,1.6,1.6,0,0,0,.3.9A1.8,1.8,0,0,0,81.4,107.9Z" style="fill:#20427c"/><path d="M85.3,104.8H86c.2.2.4.3.5.5v-.5h.4v2.9c0,.1.1.1.2.1h.2v.3h-.7a.8.8,0,0,1-.2-.5,1.4,1.4,0,0,1-1.2.6,1.7,1.7,0,0,1-1.7-1.7,1.5,1.5,0,0,1,.5-1.3A1.7,1.7,0,0,1,85.3,104.8Zm0,3.1a1.8,1.8,0,0,0,.9-.4,1.6,1.6,0,0,0,.3-.9,1.7,1.7,0,0,0-.3-1,1.8,1.8,0,0,0-.9-.4,1.3,1.3,0,0,0-.9.4,1.7,1.7,0,0,0-.3,1,1.6,1.6,0,0,0,.3.9A1.3,1.3,0,0,0,85.3,107.9Z" style="fill:#20427c"/><path d="M88.4,108.2h-.5v-3.3h.5v.5c.1-.1.2-.3.4-.4l.6-.2h.2v.6h-.3a.9.9,0,0,0-.7.3,1.4,1.4,0,0,0-.2.7Z" style="fill:#20427c"/><path d="M89.8,106.6h0a1.7,1.7,0,0,1,.5-1.3,1.3,1.3,0,0,1,1.2-.5,1.3,1.3,0,0,1,1.1.5,1.5,1.5,0,0,1,.4,1.1v.3H90.3a1.4,1.4,0,0,0,1.2,1.2h.6l.4-.4.4.3a1.8,1.8,0,0,1-1.4.6,1.7,1.7,0,0,1-1.7-1.7Zm.5-.4h2.2a1.1,1.1,0,0,0-.3-.7.9.9,0,0,0-.7-.3,1.1,1.1,0,0,0-.8.3A2.5,2.5,0,0,0,90.3,106.2Z" style="fill:#20427c"/><path d="M93.4,107.5l.4-.2c0,.2.1.3.3.4h1.1c.1-.1.1-.2.1-.4s0-.3-.1-.3l-.7-.4-.7-.4a.8.8,0,0,1-.2-.5.9.9,0,0,1,.3-.7l.7-.2a1,1,0,0,1,1,.6l-.4.2a.5.5,0,0,0-.6-.4h-.4c-.1.1-.1.2-.1.4l.2.3.5.3.8.4a.7.7,0,0,1,.2.6.9.9,0,0,1-.3.7,1.2,1.2,0,0,1-.9.3l-.8-.2C93.6,107.9,93.4,107.8,93.4,107.5Z" style="fill:#20427c"/><path d="M98.9,109.5v-.4h.6a.5.5,0,0,0,.2-.4l.2-.4-1.4-3.4H99l1.1,2.8,1.1-2.8h.5l-1.5,3.9a1,1,0,0,1-.4.5.6.6,0,0,1-.6.3Z" style="fill:#20427c"/><path d="M105.4,108.2h-.5v-2.9h-.5v-.4h.5v-.3a1,1,0,0,1,.4-.9.8.8,0,0,1,.6-.2h.3v.5h-.7c0,.1-.1.2-.1.4v.4h.7v.4h-.7Z" style="fill:#20427c"/><path d="M106.3,106.6h0a1.7,1.7,0,0,1,.5-1.3,1.3,1.3,0,0,1,1.2-.5,1.3,1.3,0,0,1,1.1.5,1.5,1.5,0,0,1,.4,1.1v.3h-2.7a1.1,1.1,0,0,0,.3.8,1,1,0,0,0,.9.4h.5l.5-.4.3.3a1.6,1.6,0,0,1-1.3.6,1.7,1.7,0,0,1-1.7-1.7Zm.5-.4H109a1,1,0,0,0-1-1,1.1,1.1,0,0,0-.8.3A1.3,1.3,0,0,0,106.8,106.2Z" style="fill:#20427c"/><path d="M109.9,106.6h0a1.7,1.7,0,0,1,.5-1.3,1.3,1.3,0,0,1,1.2-.5,1.2,1.2,0,0,1,1.1.5,1.5,1.5,0,0,1,.4,1.1v.3h-2.7a1.2,1.2,0,0,0,.4.8.9.9,0,0,0,.8.4h.6l.4-.4.4.3a1.8,1.8,0,0,1-1.4.6,1.7,1.7,0,0,1-1.7-1.7Zm.6-.4h2.1a1.1,1.1,0,0,0-.3-.7.9.9,0,0,0-.7-.3,1.1,1.1,0,0,0-.8.3A1.1,1.1,0,0,0,110.5,106.2Z" style="fill:#20427c"/><path d="M115.3,104.8h.7c.2.2.4.3.5.5v-1.8h.4v4.2c0,.1.1.1.2.1h.2v.3h-.7a.8.8,0,0,1-.2-.5,1.4,1.4,0,0,1-1.2.6,1.7,1.7,0,0,1-1.7-1.7,1.5,1.5,0,0,1,.5-1.3A1.7,1.7,0,0,1,115.3,104.8Zm0,3.1a1.8,1.8,0,0,0,.9-.4,1.6,1.6,0,0,0,.3-.9,1.7,1.7,0,0,0-.3-1,1.8,1.8,0,0,0-.9-.4,1.3,1.3,0,0,0-.9.4,1.7,1.7,0,0,0-.3,1,1.6,1.6,0,0,0,.3.9A1.3,1.3,0,0,0,115.3,107.9Z" style="fill:#20427c"/><path d="M118.4,108.2h-.5v-4.6h.5v1.8l.4-.5h.8a2.1,2.1,0,0,1,1.2.5,1.8,1.8,0,0,1,.4,1.3,1.5,1.5,0,0,1-1.6,1.7h-.8l-.4-.5Zm1.2-.3a1.2,1.2,0,0,0,.8-.4,1.8,1.8,0,0,0,.4-.9,1.8,1.8,0,0,0-.4-1,1.2,1.2,0,0,0-.8-.4,1.3,1.3,0,0,0-.9.4,1.3,1.3,0,0,0-.4,1,1.2,1.2,0,0,0,.4.9A1.3,1.3,0,0,0,119.6,107.9Z" style="fill:#20427c"/><path d="M123.4,104.8h.7c.2.2.4.3.5.5v-.5h.5v2.9h.4v.3h-.7a.8.8,0,0,1-.2-.5,1.3,1.3,0,0,1-1.2.6,1.3,1.3,0,0,1-1.2-.5,1.7,1.7,0,0,1-.5-1.2,1.9,1.9,0,0,1,.5-1.3A1.7,1.7,0,0,1,123.4,104.8Zm0,3.1a1.5,1.5,0,0,0,.9-.4,1.6,1.6,0,0,0,.3-.9,1.7,1.7,0,0,0-.3-1,1.5,1.5,0,0,0-.9-.4,1.8,1.8,0,0,0-.9.4,1.7,1.7,0,0,0-.3,1,1.6,1.6,0,0,0,.3.9A1.8,1.8,0,0,0,123.4,107.9Z" style="fill:#20427c"/><path d="M127.5,104.8a2.1,2.1,0,0,1,1.3.5l-.3.3a1.8,1.8,0,0,0-1-.4,1.3,1.3,0,0,0-.9.4,1.3,1.3,0,0,0-.4,1,1.2,1.2,0,0,0,.4.9,1.3,1.3,0,0,0,.9.4,1.8,1.8,0,0,0,1-.4l.3.3a1.7,1.7,0,0,1-1.3.5,1.3,1.3,0,0,1-1.2-.5,1.4,1.4,0,0,1-.6-1.2,1.5,1.5,0,0,1,.6-1.3A1.7,1.7,0,0,1,127.5,104.8Z" style="fill:#20427c"/><path d="M129.8,108.2h-.5v-4.6h.5v2.9l1.4-1.6h.6l-1.3,1.4,1.5,1.9h-.6l-1.2-1.5-.4.5Z" style="fill:#20427c"/><path d="M132.4,108.2a.4.4,0,0,1-.1-.3c0-.1,0-.1.1-.2h.5c0,.1.1.1.1.2s-.1.2-.1.3h-.5Z" style="fill:#20427c"/><g id="surface1"><g id="svg_7" data-name="svg 7"><path d="M117.1,95.4H32.9a.8.8,0,1,1,0-1.6H116l-6.7-19.3H102a.8.8,0,1,1,0-1.6h7.9a.8.8,0,0,1,.8.5l7.2,20.9a.8.8,0,0,1-.1.8A.9.9,0,0,1,117.1,95.4Z" style="fill:#20427c"/></g><g id="svg_5" data-name="svg 5"><path d="M56.7,71.5,49.3,59.3l4-8.6L56.7,54l3.5-3.3L64,59.3ZM51,59.2l5.7,9.3,5.6-9.3-2.6-5.9-3,2.8-2.9-2.8Z" style="fill:#20427c"/></g><g id="svg_4" data-name="svg 4"><path d="M98.6,81.2H83.2a.8.8,0,0,1-.8-.8.7.7,0,0,1,.8-.8H98l14.2-28.1H80.7L64.3,80.8a.7.7,0,0,1-.7.4H40.1A8.2,8.2,0,0,1,32,72.9v-16a.6.6,0,0,1,.3-.6L43.9,45.6a.8.8,0,0,1,1.2.1.7.7,0,0,1-.1,1.1L33.7,57.2V72.9a6.6,6.6,0,0,0,6.4,6.7h23L79.5,50.2a.8.8,0,0,1,.7-.4h33.4a1,1,0,0,1,.7.4,1.1,1.1,0,0,1,0,.8l-15,29.8A.8.8,0,0,1,98.6,81.2ZM74.7,52.9l-.5-.2-6.1-5.5A.8.8,0,0,1,68,46a.9.9,0,0,1,1.2,0l6.1,5.5a.8.8,0,0,1,0,1.1A.7.7,0,0,1,74.7,52.9Zm-18-4.8C48.5,48.1,41.9,40,41.9,30s6.6-18.1,14.8-18.1S71.5,20,71.5,30,64.9,48.1,56.7,48.1Zm0-34.6c-7.2,0-13.1,7.4-13.1,16.5s5.9,16.5,13.1,16.5S69.9,39.1,69.9,30,64,13.5,56.7,13.5Zm24,28.3h-.3a.7.7,0,0,1-.6-.7V17.1a6.6,6.6,0,0,1,6.5-6.7h19.4a6.6,6.6,0,0,1,6.4,6.7V29.6a6.6,6.6,0,0,1-6.4,6.7H86.5l-5.2,5.3Zm5.6-29.7a4.9,4.9,0,0,0-4.8,5V39l4.1-4.1c.1-.2.4-.2.6-.2h19.5a4.9,4.9,0,0,0,4.7-5.1V17.1a4.8,4.8,0,0,0-4.7-5Zm20.5,12.3h-21a.9.9,0,0,1-.8-.8.9.9,0,0,1,.8-.9h21a.8.8,0,0,1,.8.9A.8.8,0,0,1,106.8,24.4Z" style="fill:#20427c"/></g></g></g></svg>