<svg xmlns="http://www.w3.org/2000/svg" viewBox="0 0 150 134"><title>ICONO</title><g id="Capa_10" data-name="Capa 10"><path d="M21.2,103.5a2.5,2.5,0,0,1,1.8.8l-.4.3a1.7,1.7,0,0,0-1.4-.6,1.9,1.9,0,0,0-1.3.5,2,2,0,0,0-.6,1.4,1.8,1.8,0,0,0,.6,1.4,1.5,1.5,0,0,0,1.3.5,1.7,1.7,0,0,0,1.4-.6l.4.3a2.5,2.5,0,0,1-1.8.8,2.2,2.2,0,0,1-1.7-.7,2.1,2.1,0,0,1-.7-1.7,2.2,2.2,0,0,1,.7-1.7A2.8,2.8,0,0,1,21.2,103.5Z" style="fill:#20427c"/><path d="M23.9,107.8a1.3,1.3,0,0,1-.5-1.2,1.4,1.4,0,0,1,.5-1.3,1.8,1.8,0,0,1,1.2-.5,1.9,1.9,0,0,1,1.3.5,1.7,1.7,0,0,1,.5,1.3,1.7,1.7,0,0,1-.5,1.2,1.5,1.5,0,0,1-1.3.5A1.5,1.5,0,0,1,23.9,107.8Zm.3-2.2a1.7,1.7,0,0,0-.3,1,1.6,1.6,0,0,0,.3.9,1.8,1.8,0,0,0,.9.4,1.8,1.8,0,0,0,1-.4,1.6,1.6,0,0,0,.3-.9,1.7,1.7,0,0,0-.3-1,1.8,1.8,0,0,0-1-.4A1.8,1.8,0,0,0,24.2,105.6Z" style="fill:#20427c"/><path d="M28,108.2h-.5v-3.3H28v.5c.1-.1.2-.3.4-.4l.7-.2a1.2,1.2,0,0,1,1.2,1.3v1.6h.3v.4h-.5l-.2-.2v-1.8a1.4,1.4,0,0,0-.2-.7l-.7-.2a1.1,1.1,0,0,0-.9.9Z" style="fill:#20427c"/><path d="M31.3,107.3v-2h-.4v-.4h.4v-1.3h.5v1.3h.7v.4h-.7v2c0,.2,0,.3.1.4l.3.2h.3v.5h-.3C31.6,108.3,31.3,108,31.3,107.3Z" style="fill:#20427c"/><path d="M32.9,106.6h0a1.4,1.4,0,0,1,.5-1.3,1.3,1.3,0,0,1,1.1-.5,1.3,1.3,0,0,1,1.2.5,2.1,2.1,0,0,1,.4,1.1v.3H33.4a1.1,1.1,0,0,0,.3.8,1,1,0,0,0,.9.4h.5l.5-.4.3.3a1.6,1.6,0,0,1-1.3.6,2.1,2.1,0,0,1-1.3-.5A1.6,1.6,0,0,1,32.9,106.6Zm.5-.4h2.2a1.1,1.1,0,0,0-.3-.7,1.1,1.1,0,0,0-.8-.3,1.1,1.1,0,0,0-.7.3A.9.9,0,0,0,33.4,106.2Z" style="fill:#20427c"/><path d="M37.2,108.2h-.5v-3.3h.5v.5c0-.1.2-.3.4-.4l.6-.2a1,1,0,0,1,.9.4,1.2,1.2,0,0,1,.3.9v1.4c0,.1,0,.2.1.2h.3v.4h-.6c0-.1-.1-.1-.1-.2s-.1-.1-.1-.2v-1.6a.8.8,0,0,0-.2-.7l-.6-.2a.9.9,0,0,0-.7.3c-.2.1-.2.4-.2.6Z" style="fill:#20427c"/><path d="M40.8,104.2h-.4c-.1,0-.1-.1-.1-.2s0-.2.1-.2h.4c.1,0,.1.1.1.2S40.9,104.2,40.8,104.2Zm-.5,3.4v-2.7h.5v2.6a.4.4,0,0,0,.1.3h.4v.4h-.4C40.5,108.3,40.3,108.1,40.3,107.6Z" style="fill:#20427c"/><path d="M43.2,104.8h.7c.2.2.4.3.5.5v-1.8h.5v4.2h.4v.3h-.7a.8.8,0,0,1-.2-.5,1.2,1.2,0,0,1-1.2.6,1.3,1.3,0,0,1-1.2-.5,1.7,1.7,0,0,1-.5-1.2,1.9,1.9,0,0,1,.5-1.3A1.7,1.7,0,0,1,43.2,104.8Zm0,3.1a1.3,1.3,0,0,0,.9-.4,1.8,1.8,0,0,0,.4-.9,1.8,1.8,0,0,0-.4-1,1.3,1.3,0,0,0-.9-.4,1.2,1.2,0,0,0-.8.4,1.3,1.3,0,0,0-.4,1,1.2,1.2,0,0,0,.4.9A1.2,1.2,0,0,0,43.2,107.9Z" style="fill:#20427c"/><path d="M46.1,107.8a1.3,1.3,0,0,1-.5-1.2,1.4,1.4,0,0,1,.5-1.3,1.7,1.7,0,0,1,1.2-.5,2.1,2.1,0,0,1,1.3.5,1.7,1.7,0,0,1,.5,1.3,1.7,1.7,0,0,1-1.8,1.7A1.3,1.3,0,0,1,46.1,107.8Zm.3-2.2a1.8,1.8,0,0,0-.4,1,1.8,1.8,0,0,0,.4.9,1.5,1.5,0,0,0,.9.4,1.3,1.3,0,0,0,.9-.4,1.2,1.2,0,0,0,.4-.9,1.3,1.3,0,0,0-.4-1,1.3,1.3,0,0,0-.9-.4A1.5,1.5,0,0,0,46.4,105.6Z" style="fill:#20427c"/><path d="M52.2,109.5v-.4h.6l.3-.4v-.4l-1.3-3.4h.5l1.1,2.8,1-2.8H55l-1.5,3.9-.3.5a.9.9,0,0,1-.7.3Z" style="fill:#20427c"/><path d="M58.5,108.2H58v-3.3h.5v.5c.1-.1.2-.3.4-.4l.6-.2h.2v.6h-.3a.6.6,0,0,0-.6.3.9.9,0,0,0-.3.7Z" style="fill:#20427c"/><path d="M60,106.6h0a1.7,1.7,0,0,1,.4-1.3,1.5,1.5,0,0,1,1.2-.5c.5,0,.9.1,1.1.5a1.6,1.6,0,0,1,.5,1.1v.3H60.5a1.1,1.1,0,0,0,.3.8.9.9,0,0,0,.8.4h.6l.5-.4.3.3a1.8,1.8,0,0,1-1.4.6,1.7,1.7,0,0,1-1.2-.5A1.6,1.6,0,0,1,60,106.6Zm.5-.4h2.1a1.1,1.1,0,0,0-.3-.7.9.9,0,0,0-.7-.3,1.3,1.3,0,0,0-.8.3A1.1,1.1,0,0,0,60.5,106.2Z" style="fill:#20427c"/><path d="M65.4,104.8a1.7,1.7,0,0,1,1.2.5l-.3.3a1.2,1.2,0,0,0-1.8,0,1.3,1.3,0,0,0-.4,1,1.2,1.2,0,0,0,.4.9,1.2,1.2,0,0,0,1.8,0l.3.3a1.3,1.3,0,0,1-1.2.5,1.7,1.7,0,0,1-1.8-1.7,1.7,1.7,0,0,1,.5-1.3A2.1,2.1,0,0,1,65.4,104.8Z" style="fill:#20427c"/><path d="M67.1,107v-2.1h.5v2a1.4,1.4,0,0,0,.2.7l.6.2.7-.2a.9.9,0,0,0,.3-.7v-2h.4v2.5c0,.2.1.3.1.4h.4v.4H70l-.5-.2c0-.1-.1-.2-.1-.3a1.3,1.3,0,0,1-1.1.5.9.9,0,0,1-.8-.4A1,1,0,0,1,67.1,107Z" style="fill:#20427c"/><path d="M71.3,108.2h-.5v-3.3h.5v.5c.1-.1.2-.3.4-.4l.6-.2h.2v.6h-.3a.9.9,0,0,0-.7.3,1.4,1.4,0,0,0-.2.7Z" style="fill:#20427c"/><path d="M72.8,107.5l.4-.2c0,.2.1.3.3.4h1.1c.1-.1.1-.2.1-.4s0-.3-.1-.3l-.7-.4-.7-.4a.8.8,0,0,1-.2-.5.9.9,0,0,1,.3-.7l.7-.2a1,1,0,0,1,1,.6l-.4.2a.5.5,0,0,0-.6-.4h-.4c-.1.1-.1.2-.1.4s0,.2.2.3l.5.3.8.4a.7.7,0,0,1,.2.6.9.9,0,0,1-.3.7,1.2,1.2,0,0,1-.9.3l-.8-.2C73,107.9,72.8,107.8,72.8,107.5Z" style="fill:#20427c"/><path d="M76.1,107.8a1.7,1.7,0,0,1-.5-1.2,1.7,1.7,0,0,1,.5-1.3,2.1,2.1,0,0,1,1.3-.5,1.7,1.7,0,0,1,1.2.5,1.4,1.4,0,0,1,.5,1.3,1.7,1.7,0,0,1-1.7,1.7A1.7,1.7,0,0,1,76.1,107.8Zm.4-2.2a1.3,1.3,0,0,0-.4,1,1.2,1.2,0,0,0,.4.9,1.3,1.3,0,0,0,.9.4,1.4,1.4,0,0,0,1.3-1.3,1.8,1.8,0,0,0-.4-1,1.8,1.8,0,0,0-.9-.4A1.3,1.3,0,0,0,76.5,105.6Z" style="fill:#20427c"/><path d="M79.5,107.5l.4-.2.3.4h1.1a.5.5,0,0,0,.2-.4c0-.1-.1-.3-.2-.3l-.6-.4c-.4-.1-.6-.2-.7-.4a.5.5,0,0,1-.3-.5.9.9,0,0,1,.3-.7l.8-.2a1,1,0,0,1,.9.6l-.4.2a.5.5,0,0,0-.5-.4h-.4a.5.5,0,0,0-.2.4l.2.3.6.3.7.4a.9.9,0,0,1,.3.6.9.9,0,0,1-.3.7,1.6,1.6,0,0,1-.9.3l-.9-.2A1.3,1.3,0,0,1,79.5,107.5Z" style="fill:#20427c"/><path d="M86.6,104.8h.8l.4.5v-1.8h.5v3.9a.4.4,0,0,0,.1.3.1.1,0,0,0,.1.1h.2v.3h-.6c-.2-.1-.2-.3-.3-.5a1.2,1.2,0,0,1-1.2.6,1.3,1.3,0,0,1-1.2-.5,1.7,1.7,0,0,1-.5-1.2,1.9,1.9,0,0,1,.5-1.3A2.1,2.1,0,0,1,86.6,104.8Zm0,3.1a1.3,1.3,0,0,0,.9-.4,1.8,1.8,0,0,0,.4-.9,1.8,1.8,0,0,0-.4-1,1.3,1.3,0,0,0-.9-.4,1.2,1.2,0,0,0-.8.4,1.3,1.3,0,0,0-.4,1,1.2,1.2,0,0,0,.4.9A1.2,1.2,0,0,0,86.6,107.9Z" style="fill:#20427c"/><path d="M89,106.6h0a1.7,1.7,0,0,1,.5-1.3,1.3,1.3,0,0,1,1.2-.5,1.2,1.2,0,0,1,1.1.5,1.5,1.5,0,0,1,.4,1.1v.3H89.5a1.4,1.4,0,0,0,1.2,1.2h.6l.4-.4.4.3a1.8,1.8,0,0,1-1.4.6,1.7,1.7,0,0,1-1.7-1.7Zm.6-.4h2.1a1.1,1.1,0,0,0-.3-.7.9.9,0,0,0-.7-.3,1.1,1.1,0,0,0-.8.3A1.1,1.1,0,0,0,89.6,106.2Z" style="fill:#20427c"/><path d="M97,104.8h.8l.4.5v-.5h.5v2.9h.4v.3h-.6a.5.5,0,0,1-.3-.5,1.2,1.2,0,0,1-1.2.6,1.3,1.3,0,0,1-1.2-.5,1.7,1.7,0,0,1-.5-1.2,1.9,1.9,0,0,1,.5-1.3A1.7,1.7,0,0,1,97,104.8Zm0,3.1a1.3,1.3,0,0,0,.9-.4,1.8,1.8,0,0,0,.4-.9,1.8,1.8,0,0,0-.4-1,1.3,1.3,0,0,0-.9-.4,1.2,1.2,0,0,0-.8.4,1.3,1.3,0,0,0-.4,1,1.2,1.2,0,0,0,.4.9A1.2,1.2,0,0,0,97,107.9Z" style="fill:#20427c"/><path d="M100.1,109.5h-.5v-4.6h.5v.5l.5-.5h.7a1.7,1.7,0,0,1,1.2.5,1.9,1.9,0,0,1,.5,1.3,1.7,1.7,0,0,1-.5,1.2,1.3,1.3,0,0,1-1.2.5h-.7l-.5-.5Zm1.2-1.6a1.5,1.5,0,0,0,.9-.4,1.6,1.6,0,0,0,.3-.9,1.7,1.7,0,0,0-.3-1,1.5,1.5,0,0,0-.9-.4,1.8,1.8,0,0,0-.9.4,1.7,1.7,0,0,0-.3,1,1.6,1.6,0,0,0,.3.9A1.8,1.8,0,0,0,101.3,107.9Z" style="fill:#20427c"/><path d="M104.1,108.2h-.5v-3.3h.5v.5c.1-.1.2-.3.4-.4l.6-.2h.2v.6H105a.9.9,0,0,0-.7.3,1.4,1.4,0,0,0-.2.7Z" style="fill:#20427c"/><path d="M105.5,106.6h0a1.7,1.7,0,0,1,.5-1.3,1.3,1.3,0,0,1,1.2-.5,1.2,1.2,0,0,1,1.1.5,1.5,1.5,0,0,1,.4,1.1v.3H106a1.2,1.2,0,0,0,.4.8.9.9,0,0,0,.8.4h.6l.5-.4.3.3a1.8,1.8,0,0,1-1.4.6,1.7,1.7,0,0,1-1.7-1.7Zm.6-.4h2.1a1.1,1.1,0,0,0-.3-.7.9.9,0,0,0-.7-.3,1.3,1.3,0,0,0-.8.3A1.1,1.1,0,0,0,106.1,106.2Z" style="fill:#20427c"/><path d="M109.8,108.2h-.5v-3.3h.5v.5l.4-.4.7-.2a1.2,1.2,0,0,1,1.2,1.3v1.6h.3v.4h-.5V108l-.2-.2v-1.6a1.4,1.4,0,0,0-.2-.7l-.6-.2a.9.9,0,0,0-.7.3.7.7,0,0,0-.3.6Z" style="fill:#20427c"/><path d="M114.5,104.8h.7l.5.5v-1.8h.4v4.2c0,.1.1.1.2.1h.2v.3h-.7a.8.8,0,0,1-.2-.5,1.4,1.4,0,0,1-1.2.6,1.7,1.7,0,0,1-1.7-1.7,1.5,1.5,0,0,1,.5-1.3A1.7,1.7,0,0,1,114.5,104.8Zm0,3.1a1.8,1.8,0,0,0,.9-.4,1.6,1.6,0,0,0,.3-.9,1.7,1.7,0,0,0-.3-1,1.8,1.8,0,0,0-.9-.4,1.3,1.3,0,0,0-.9.4,1.7,1.7,0,0,0-.3,1,1.6,1.6,0,0,0,.3.9A1.3,1.3,0,0,0,114.5,107.9Z" style="fill:#20427c"/><path d="M117.6,104.2h-.5c-.1,0-.1-.1-.1-.2s0-.2.1-.2h.5v.4Zm-.5,3.4v-2.7h.5v2.9h.4v.4h-.3C117.3,108.3,117.1,108.1,117.1,107.6Z" style="fill:#20427c"/><path d="M121.1,108.2h-2.8v-.3l2-2.6h-1.8v-.4H121v.3l-2,2.6h2.1Z" style="fill:#20427c"/><path d="M123.1,104.8h.7c.2.2.4.3.5.5v-.5h.5v2.9h.4v.3h-.7a.8.8,0,0,1-.2-.5,1.2,1.2,0,0,1-1.2.6,1.3,1.3,0,0,1-1.2-.5,1.7,1.7,0,0,1-.5-1.2,1.9,1.9,0,0,1,.5-1.3A1.7,1.7,0,0,1,123.1,104.8Zm0,3.1a1.3,1.3,0,0,0,.9-.4,1.6,1.6,0,0,0,.3-.9,1.7,1.7,0,0,0-.3-1,1.3,1.3,0,0,0-.9-.4,1.8,1.8,0,0,0-.9.4,1.7,1.7,0,0,0-.3,1,1.6,1.6,0,0,0,.3.9A1.8,1.8,0,0,0,123.1,107.9Z" style="fill:#20427c"/><path d="M125.7,108.6v-3.7h.5v3.7a.9.9,0,0,1-1,1H125v-.5h.6C125.7,108.9,125.7,108.8,125.7,108.6Zm.5-4.4h-.5v-.4h.5c.1,0,.1.1.1.2S126.3,104.2,126.2,104.2Z" style="fill:#20427c"/><path d="M126.8,106.6h0a1.7,1.7,0,0,1,.5-1.3,1.3,1.3,0,0,1,1.2-.5,1.3,1.3,0,0,1,1.1.5,1.5,1.5,0,0,1,.4,1.1v.3h-2.7a1.1,1.1,0,0,0,.3.8,1.1,1.1,0,0,0,.9.4h.6l.4-.4.3.3a1.6,1.6,0,0,1-1.3.6,1.7,1.7,0,0,1-1.7-1.7Zm.5-.4h2.2a1.1,1.1,0,0,0-.3-.7.9.9,0,0,0-.7-.3,1.1,1.1,0,0,0-.8.3A2.5,2.5,0,0,0,127.3,106.2Z" style="fill:#20427c"/><path d="M130.4,109.1H130l.6-1.6h.6Z" style="fill:#20427c"/><path d="M18.9,111.2h-.4c-.1,0-.1-.1-.1-.2s0-.2.1-.2h.4c.1,0,.1.1.1.2S19,111.2,18.9,111.2Zm-.4,3.4v-2.7H19v2.9h.4v.4h-.3C18.7,115.3,18.5,115.1,18.5,114.6Z" style="fill:#20427c"/><path d="M20.3,115.2h-.4v-3.3h.4v.5l.5-.4.6-.2a1,1,0,0,1,.9.4,1.2,1.2,0,0,1,.3.9v1.4c0,.1,0,.2.1.2H23v.4h-.6c0-.1-.1-.1-.1-.2s-.1-.1-.1-.2a.4.4,0,0,1-.1-.3v-1.3a.8.8,0,0,0-.2-.7l-.6-.2a.9.9,0,0,0-.7.3.7.7,0,0,0-.3.6Z" style="fill:#20427c"/><path d="M25.1,111.8a1.7,1.7,0,0,1,1.2.5l-.2.3a1.8,1.8,0,0,0-1-.4,1.3,1.3,0,0,0-.9.4,1.3,1.3,0,0,0-.4,1,1.2,1.2,0,0,0,.4.9,1.3,1.3,0,0,0,.9.4,1.8,1.8,0,0,0,1-.4l.2.3a1.3,1.3,0,0,1-1.2.5,1.7,1.7,0,0,1-1.8-1.7,1.7,1.7,0,0,1,.5-1.3A2.1,2.1,0,0,1,25.1,111.8Z" style="fill:#20427c"/><path d="M26.9,114.4v-3.8h.5v3.7c0,.2,0,.4.1.4s.1.2.3.2.2,0,.2-.1v.5h-.8l-.2-.3A.9.9,0,0,1,26.9,114.4Z" style="fill:#20427c"/><path d="M28.4,114v-2.1h.5v2a1.4,1.4,0,0,0,.2.7l.6.2.7-.2a1.4,1.4,0,0,0,.2-.7v-2h.5v2.5c0,.2,0,.3.1.4h.3v.4h-.3a.5.5,0,0,1-.4-.2.4.4,0,0,1-.1-.3,1.4,1.4,0,0,1-1.1.5,1,1,0,0,1-.9-.4A1.2,1.2,0,0,1,28.4,114Z" style="fill:#20427c"/><path d="M31.9,116.5v-.4h.6l.3-.4.2-.4-1.4-3.4h.5l1.1,2.8,1-2.8h.5l-1.5,3.9-.3.5a.9.9,0,0,1-.6.3Z" style="fill:#20427c"/><path d="M35,113.6h0a1.7,1.7,0,0,1,.4-1.3,1.6,1.6,0,0,1,1.2-.5c.5,0,.9.1,1.1.5a1.6,1.6,0,0,1,.5,1.1v.3H35.5a1.1,1.1,0,0,0,.3.8.9.9,0,0,0,.8.4h.6l.5-.4.3.3a1.8,1.8,0,0,1-1.4.6,1.8,1.8,0,0,1-1.2-.5A1.6,1.6,0,0,1,35,113.6Zm.5-.4h2.1a1.1,1.1,0,0,0-.3-.7.9.9,0,0,0-.7-.3,1.3,1.3,0,0,0-.8.3A1.1,1.1,0,0,0,35.5,113.2Z" style="fill:#20427c"/><path d="M42.8,115.2h-.4L41,111.9h.5l1.1,2.5,1.1-2.5h.5Z" style="fill:#20427c"/><path d="M45.1,111.2h-.4c-.1,0-.1-.1-.1-.2s0-.2.1-.2h.4c.1,0,.1.1.1.2S45.2,111.2,45.1,111.2Zm-.4,3.4v-2.7h.5v2.9h.4v.4h-.3C44.9,115.3,44.7,115.1,44.7,114.6Z" style="fill:#20427c"/><path d="M47.5,111.8h.8l.4.5v-1.8h.5v3.9a.4.4,0,0,0,.1.3c0,.1.1.1.2.1h.1v.3H49c-.2-.1-.2-.3-.2-.5a1.5,1.5,0,0,1-1.3.6,1.5,1.5,0,0,1-1.6-1.7,1.8,1.8,0,0,1,.4-1.3A2.1,2.1,0,0,1,47.5,111.8Zm0,3.1a1.3,1.3,0,0,0,.9-.4,1.2,1.2,0,0,0,.4-.9,1.3,1.3,0,0,0-.4-1,1.3,1.3,0,0,0-.9-.4,1.2,1.2,0,0,0-.8.4,1.8,1.8,0,0,0-.4,1,1.8,1.8,0,0,0,.4.9A1.2,1.2,0,0,0,47.5,114.9Z" style="fill:#20427c"/><path d="M50,113.6h0a1.7,1.7,0,0,1,.4-1.3,1.3,1.3,0,0,1,1.2-.5,1.2,1.2,0,0,1,1.1.5,1.6,1.6,0,0,1,.5,1.1.4.4,0,0,1-.1.3H50.4a2,2,0,0,0,.4.8.9.9,0,0,0,.8.4h.6l.5-.4.3.3a1.8,1.8,0,0,1-1.4.6,1.7,1.7,0,0,1-1.2-.5A1.6,1.6,0,0,1,50,113.6Zm.5-.4h2.1a1.1,1.1,0,0,0-.3-.7.9.9,0,0,0-.7-.3,1.3,1.3,0,0,0-.8.3A1.1,1.1,0,0,0,50.5,113.2Z" style="fill:#20427c"/><path d="M54.1,114.8a1.7,1.7,0,0,1-.5-1.2,1.7,1.7,0,0,1,.5-1.3,2.1,2.1,0,0,1,1.3-.5,1.7,1.7,0,0,1,1.2.5,1.4,1.4,0,0,1,.5,1.3,1.7,1.7,0,0,1-1.7,1.7A1.7,1.7,0,0,1,54.1,114.8Zm.3-2.2a1.7,1.7,0,0,0-.3,1,1.6,1.6,0,0,0,.3.9,1.8,1.8,0,0,0,1,.4,1.4,1.4,0,0,0,1.3-1.3,1.8,1.8,0,0,0-.4-1,1.8,1.8,0,0,0-.9-.4A1.8,1.8,0,0,0,54.4,112.6Z" style="fill:#20427c"/><path d="M57.5,114.5l.4-.2c.1.2.1.3.3.4h1.1a.5.5,0,0,0,.2-.4c0-.1-.1-.3-.2-.3l-.7-.4a.9.9,0,0,1-.6-.4.5.5,0,0,1-.3-.5.9.9,0,0,1,.3-.7l.7-.2a1,1,0,0,1,1,.6l-.4.2a.5.5,0,0,0-.5-.4h-.4a.5.5,0,0,0-.2.4l.2.3.6.3.7.4a.9.9,0,0,1,.3.6.8.8,0,0,1-.4.7,1.2,1.2,0,0,1-.9.3l-.8-.2A1.3,1.3,0,0,1,57.5,114.5Z" style="fill:#20427c"/><path d="M64.6,111.8h.7a1.2,1.2,0,0,1,.5.5v-1.8h.5v4.2h.4v.3h-.6a.5.5,0,0,1-.3-.5,1.2,1.2,0,0,1-1.2.6,1.3,1.3,0,0,1-1.2-.5,1.7,1.7,0,0,1-.5-1.2,1.9,1.9,0,0,1,.5-1.3A1.7,1.7,0,0,1,64.6,111.8Zm0,3.1a1.3,1.3,0,0,0,.9-.4,1.8,1.8,0,0,0,.4-.9,1.8,1.8,0,0,0-.4-1,1.3,1.3,0,0,0-.9-.4,1.2,1.2,0,0,0-.8.4,1.3,1.3,0,0,0-.4,1,1.2,1.2,0,0,0,.4.9A1.2,1.2,0,0,0,64.6,114.9Z" style="fill:#20427c"/><path d="M67,113.6h0a1.7,1.7,0,0,1,.5-1.3,1.3,1.3,0,0,1,1.2-.5,1.3,1.3,0,0,1,1.1.5,1.5,1.5,0,0,1,.4,1.1v.3H67.5a1.4,1.4,0,0,0,1.2,1.2h.6l.4-.4.4.3a1.8,1.8,0,0,1-1.4.6,1.7,1.7,0,0,1-1.7-1.7Zm.5-.4h2.2a1.1,1.1,0,0,0-.3-.7.9.9,0,0,0-.7-.3,1.1,1.1,0,0,0-.8.3A2.5,2.5,0,0,0,67.5,113.2Z" style="fill:#20427c"/><path d="M74,116.5h-.5v-4.6H74v.5c.1-.2.3-.3.5-.5h.7a1.7,1.7,0,0,1,1.2.5,1.9,1.9,0,0,1,.5,1.3,1.7,1.7,0,0,1-.5,1.2,1.3,1.3,0,0,1-1.2.5h-.7c-.2-.2-.4-.3-.5-.5Zm1.2-1.6a1.5,1.5,0,0,0,.9-.4,1.6,1.6,0,0,0,.3-.9,1.7,1.7,0,0,0-.3-1,1.5,1.5,0,0,0-.9-.4,1.8,1.8,0,0,0-.9.4,1.7,1.7,0,0,0-.3,1,1.6,1.6,0,0,0,.3.9A1.8,1.8,0,0,0,75.2,114.9Z" style="fill:#20427c"/><path d="M78,115.2h-.5v-3.3H78v.5c.1-.1.2-.3.4-.4l.6-.2h.2v.6h-.3a.9.9,0,0,0-.7.3,1.4,1.4,0,0,0-.2.7Z" style="fill:#20427c"/><path d="M80,114.8a1.4,1.4,0,0,1-.6-1.2,1.5,1.5,0,0,1,.6-1.3,1.7,1.7,0,0,1,1.2-.5,2.1,2.1,0,0,1,1.3.5,1.7,1.7,0,0,1,.5,1.3,1.7,1.7,0,0,1-1.8,1.7A1.3,1.3,0,0,1,80,114.8Zm.3-2.2a1.8,1.8,0,0,0-.4,1,1.8,1.8,0,0,0,.4.9,1.5,1.5,0,0,0,.9.4,1.3,1.3,0,0,0,.9-.4,1.2,1.2,0,0,0,.4-.9,1.3,1.3,0,0,0-.4-1,1.3,1.3,0,0,0-.9-.4A1.5,1.5,0,0,0,80.3,112.6Z" style="fill:#20427c"/><path d="M84.4,115.2h-.5v-2.9h-.6v-.4h.6v-.3a1.2,1.2,0,0,1,.3-.9l.7-.2h.2v.5h-.6c-.1.1-.1.2-.1.4v.4H85v.4h-.6Z" style="fill:#20427c"/><path d="M85.2,113.6h0a1.7,1.7,0,0,1,.5-1.3,1.3,1.3,0,0,1,1.2-.5,1.3,1.3,0,0,1,1.1.5,1.5,1.5,0,0,1,.4,1.1v.3H85.7a1.4,1.4,0,0,0,1.2,1.2h.6l.4-.4.4.3a1.8,1.8,0,0,1-1.4.6,1.7,1.7,0,0,1-1.7-1.7Zm.5-.4h2.2a1.1,1.1,0,0,0-.3-.7.9.9,0,0,0-.7-.3,1.1,1.1,0,0,0-.8.3A2.5,2.5,0,0,0,85.7,113.2Z" style="fill:#20427c"/><path d="M88.8,114.5l.4-.2c0,.2.1.3.3.4h1.1c.1-.1.1-.2.1-.4s0-.3-.1-.3l-.7-.4-.7-.4a.8.8,0,0,1-.2-.5.9.9,0,0,1,.3-.7l.7-.2a1,1,0,0,1,1,.6l-.4.2a.5.5,0,0,0-.6-.4h-.4c-.1.1-.1.2-.1.4l.2.3.5.3.8.4a.7.7,0,0,1,.2.6.9.9,0,0,1-.3.7,1.2,1.2,0,0,1-.9.3l-.8-.2C89,114.9,88.8,114.8,88.8,114.5Z" style="fill:#20427c"/><path d="M92.1,114.8a1.7,1.7,0,0,1-.5-1.2,1.7,1.7,0,0,1,.5-1.3,2.1,2.1,0,0,1,1.3-.5,1.7,1.7,0,0,1,1.2.5,1.4,1.4,0,0,1,.5,1.3,1.7,1.7,0,0,1-1.7,1.7A1.7,1.7,0,0,1,92.1,114.8Zm.4-2.2a1.3,1.3,0,0,0-.4,1,1.2,1.2,0,0,0,.4.9,1.3,1.3,0,0,0,.9.4,1.5,1.5,0,0,0,.9-.4,1.8,1.8,0,0,0,.4-.9,1.8,1.8,0,0,0-.4-1,1.5,1.5,0,0,0-.9-.4A1.3,1.3,0,0,0,92.5,112.6Z" style="fill:#20427c"/><path d="M96.2,115.2h-.4v-3.3h.4v.5l.5-.4.6-.2h.2v.6h-.4l-.6.3a.9.9,0,0,0-.3.7Z" style="fill:#20427c"/><path d="M97.7,113.6h0a1.7,1.7,0,0,1,.5-1.3,1.3,1.3,0,0,1,1.2-.5,1.3,1.3,0,0,1,1.1.5,1.5,1.5,0,0,1,.4,1.1v.3H98.2a1.1,1.1,0,0,0,.3.8,1.1,1.1,0,0,0,.9.4h.5a1,1,0,0,0,.5-.4l.3.3a1.6,1.6,0,0,1-1.3.6,1.7,1.7,0,0,1-1.7-1.7Zm.5-.4h2.2a1,1,0,0,0-1-1,1.1,1.1,0,0,0-.8.3A1.3,1.3,0,0,0,98.2,113.2Z" style="fill:#20427c"/><path d="M101.2,114.5l.4-.2.3.4H103c.2-.1.2-.2.2-.4s0-.3-.2-.3l-.6-.4c-.3-.1-.6-.2-.7-.4a.8.8,0,0,1-.2-.5.9.9,0,0,1,.3-.7l.7-.2a1.1,1.1,0,0,1,1,.6l-.4.2a.7.7,0,0,0-.6-.4h-.4c-.1.1-.1.2-.1.4a.4.4,0,0,0,.1.3l.6.3.8.4a1.4,1.4,0,0,1,.2.6.9.9,0,0,1-.3.7,1.2,1.2,0,0,1-.9.3l-.8-.2A1,1,0,0,1,101.2,114.5Z" style="fill:#20427c"/><path d="M106.7,113.6h0a1.7,1.7,0,0,1,.5-1.3,1.3,1.3,0,0,1,1.2-.5,1.2,1.2,0,0,1,1.1.5,1.5,1.5,0,0,1,.4,1.1v.3h-2.7a1.2,1.2,0,0,0,.4.8.9.9,0,0,0,.8.4h.6l.4-.4.4.3a1.8,1.8,0,0,1-1.4.6,1.7,1.7,0,0,1-1.7-1.7Zm.6-.4h2.1a1.1,1.1,0,0,0-.3-.7.9.9,0,0,0-.7-.3,1.1,1.1,0,0,0-.8.3A1.1,1.1,0,0,0,107.3,113.2Z" style="fill:#20427c"/><path d="M110.6,115.2H110l1.3-1.8-1.1-1.5h.5l.9,1.2.9-1.2h.5l-1.2,1.5,1.3,1.8h-.5l-1-1.4Z" style="fill:#20427c"/><path d="M114.1,116.5h-.4v-4.6h.4v.5l.5-.5h.7a1.7,1.7,0,0,1,1.2.5,1.9,1.9,0,0,1,.5,1.3,1.7,1.7,0,0,1-.5,1.2,1.3,1.3,0,0,1-1.2.5h-.7l-.5-.5Zm1.2-1.6a1.3,1.3,0,0,0,.9-.4,1.6,1.6,0,0,0,.3-.9,1.7,1.7,0,0,0-.3-1,1.3,1.3,0,0,0-.9-.4,1.8,1.8,0,0,0-.9.4,1.7,1.7,0,0,0-.3,1,1.6,1.6,0,0,0,.3.9A1.8,1.8,0,0,0,115.3,114.9Z" style="fill:#20427c"/><path d="M117.5,113.6h0a1.7,1.7,0,0,1,.4-1.3,1.6,1.6,0,0,1,1.2-.5c.5,0,.9.1,1.1.5a1.6,1.6,0,0,1,.5,1.1v.3H118a1.1,1.1,0,0,0,.3.8,1,1,0,0,0,.9.4h.5l.5-.4.3.3a1.8,1.8,0,0,1-1.3.6,1.9,1.9,0,0,1-1.3-.5A1.6,1.6,0,0,1,117.5,113.6Zm.5-.4h2.2a1.1,1.1,0,0,0-.3-.7,1.1,1.1,0,0,0-.8-.3.9.9,0,0,0-.7.3A.9.9,0,0,0,118,113.2Z" style="fill:#20427c"/><path d="M121.7,115.2h-.4v-3.3h.4v.5l.5-.4.6-.2h.2v.6h-.3a1,1,0,0,0-1,1Z" style="fill:#20427c"/><path d="M123.9,114.3v-2h-.4v-.4h.4v-1.3h.4v1.3h.8v.4h-.8v2a.5.5,0,0,0,.2.4c0,.1.1.2.3.2h.3v.5h-.3C124.2,115.3,123.9,115,123.9,114.3Z" style="fill:#20427c"/><path d="M126,114.8a1.3,1.3,0,0,1-.5-1.2,1.4,1.4,0,0,1,.5-1.3,1.8,1.8,0,0,1,1.2-.5,1.9,1.9,0,0,1,1.3.5,1.7,1.7,0,0,1,.5,1.3,1.7,1.7,0,0,1-.5,1.2,1.5,1.5,0,0,1-1.3.5A1.3,1.3,0,0,1,126,114.8Zm.3-2.2a1.7,1.7,0,0,0-.3,1,1.6,1.6,0,0,0,.3.9,1.8,1.8,0,0,0,.9.4,1.8,1.8,0,0,0,1-.4,1.6,1.6,0,0,0,.3-.9,1.7,1.7,0,0,0-.3-1,1.8,1.8,0,0,0-1-.4A1.8,1.8,0,0,0,126.3,112.6Z" style="fill:#20427c"/><path d="M129.4,114.5l.4-.2c0,.2.1.3.3.4h1.1a.5.5,0,0,0,.2-.4c0-.1-.1-.3-.2-.3l-.7-.4-.7-.4a.8.8,0,0,1-.2-.5.9.9,0,0,1,.3-.7l.7-.2a1,1,0,0,1,1,.6l-.4.2a.5.5,0,0,0-.6-.4h-.3a.5.5,0,0,0-.2.4l.2.3.5.3.8.4a.7.7,0,0,1,.2.6.9.9,0,0,1-.3.7,1.2,1.2,0,0,1-.9.3l-.8-.2C129.6,114.9,129.4,114.8,129.4,114.5Z" style="fill:#20427c"/><path d="M58.2,120.6h0a1.4,1.4,0,0,1,.5-1.3,1.3,1.3,0,0,1,1.1-.5,1.3,1.3,0,0,1,1.2.5,2.1,2.1,0,0,1,.4,1.1v.3H58.7a1.1,1.1,0,0,0,.3.8,1,1,0,0,0,.9.4h.5l.5-.4.3.3a1.6,1.6,0,0,1-1.3.6,2.1,2.1,0,0,1-1.3-.5A1.6,1.6,0,0,1,58.2,120.6Zm.5-.4h2.2a1.1,1.1,0,0,0-.3-.7,1.1,1.1,0,0,0-.8-.3,1.1,1.1,0,0,0-.7.3A.9.9,0,0,0,58.7,120.2Z" style="fill:#20427c"/><path d="M62.5,122.2H62v-3.3h.5v.5c0-.1.2-.3.4-.4l.6-.2a1,1,0,0,1,.9.4,1.2,1.2,0,0,1,.3.9v1.4c0,.1,0,.2.1.2h.3v.4h-.6c0-.1-.1-.1-.1-.2s-.1-.1-.1-.2v-1.6a.7.7,0,0,0-.8-.9.9.9,0,0,0-.7.3c-.2.1-.2.4-.2.6Z" style="fill:#20427c"/><path d="M68.2,120.6h0a1.7,1.7,0,0,1,.5-1.3,1.3,1.3,0,0,1,1.2-.5,1.3,1.3,0,0,1,1.1.5,1.5,1.5,0,0,1,.4,1.1v.3H68.7a1.1,1.1,0,0,0,.3.8,1.1,1.1,0,0,0,.9.4h.6l.4-.4.3.3a1.6,1.6,0,0,1-1.3.6,1.7,1.7,0,0,1-1.7-1.7Zm.5-.4h2.2a1.1,1.1,0,0,0-.3-.7.9.9,0,0,0-.7-.3,1.1,1.1,0,0,0-.8.3A2.5,2.5,0,0,0,68.7,120.2Z" style="fill:#20427c"/><path d="M72,121.4v-3.8h.5v3.7c0,.2,0,.4.1.4l.3.2c.1,0,.2,0,.2-.1v.5h-.8l-.2-.3A.9.9,0,0,1,72,121.4Z" style="fill:#20427c"/><path d="M76.3,121.3v-2h-.4v-.4h.4v-1.3h.4v1.3h.8v.4h-.8v2a.5.5,0,0,0,.2.4c0,.1.1.2.3.2h.3v.5h-.4C76.5,122.3,76.3,122,76.3,121.3Z" style="fill:#20427c"/><path d="M77.9,120.6h0a1.7,1.7,0,0,1,.4-1.3,1.3,1.3,0,0,1,1.2-.5c.5,0,.9.1,1.1.5a1.6,1.6,0,0,1,.5,1.1v.3H78.4a1.1,1.1,0,0,0,.3.8.9.9,0,0,0,.8.4h.6l.5-.4.3.3a1.8,1.8,0,0,1-1.4.6,1.7,1.7,0,0,1-1.2-.5A1.6,1.6,0,0,1,77.9,120.6Zm.5-.4h2.1a1.1,1.1,0,0,0-.3-.7.9.9,0,0,0-.7-.3,1.3,1.3,0,0,0-.8.3A1.1,1.1,0,0,0,78.4,120.2Z" style="fill:#20427c"/><path d="M82.1,122.2h-.4v-3.3h.4v.5c.1-.1.2-.3.4-.4l.6-.2a1.1,1.1,0,0,1,1,.7,1.1,1.1,0,0,1,1-.7.9.9,0,0,1,.8.4,1.2,1.2,0,0,1,.3.9v1.6h.3v.4H86l-.2-.2v-1.8a1.4,1.4,0,0,0-.2-.7l-.5-.2a.6.6,0,0,0-.6.3c-.2.1-.2.4-.2.6v2h-.5v-2a1.4,1.4,0,0,0-.2-.7l-.6-.2a.5.5,0,0,0-.5.3.7.7,0,0,0-.3.6Z" style="fill:#20427c"/><path d="M88.6,118.8h.7l.5.5v-.5h.4v2.9c0,.1.1.1.2.1h.2v.3H90a.8.8,0,0,1-.2-.5,1.4,1.4,0,0,1-1.2.6,1.7,1.7,0,0,1-1.7-1.7,1.5,1.5,0,0,1,.5-1.3A1.7,1.7,0,0,1,88.6,118.8Zm0,3.1a1.8,1.8,0,0,0,.9-.4,1.6,1.6,0,0,0,.3-.9,1.7,1.7,0,0,0-.3-1,1.8,1.8,0,0,0-.9-.4,1.3,1.3,0,0,0-.9.4,1.7,1.7,0,0,0-.3,1,1.6,1.6,0,0,0,.3.9A1.3,1.3,0,0,0,88.6,121.9Z" style="fill:#20427c"/><path d="M91.2,122.2a.4.4,0,0,1-.1-.3c0-.1,0-.1.1-.2h.5c0,.1.1.1.1.2s-.1.2-.1.3h-.5Z" style="fill:#20427c"/><g id="svg_4" data-name="svg 4"><path d="M74.3,42V25.3l14.1,8.4Zm1.5-14.1V39.4l9.6-5.7Z" style="fill:#20427c"/></g><g id="svg_3" data-name="svg 3"><path d="M114.3,95.4H45.6a3.4,3.4,0,0,1-3-1.7,3.6,3.6,0,0,1-.1-3.5l6.3-11.3a.9.9,0,0,1,.8-.5h60.7a.9.9,0,0,1,.8.5l6.3,11.3a3.6,3.6,0,0,1-.1,3.5A3.4,3.4,0,0,1,114.3,95.4ZM50.2,80.3l-6,10.8a1.5,1.5,0,0,0,0,1.6,1.6,1.6,0,0,0,1.4.8h68.7a1.6,1.6,0,0,0,1.4-.8,1.5,1.5,0,0,0,0-1.6l-6-10.8ZM101.6,74H58.3a.9.9,0,0,1-.8-.4.9.9,0,0,1-.1-.9l2.8-6.9H49.3A6.3,6.3,0,0,1,43,59.5V16.7a6.3,6.3,0,0,1,6.3-6.3h61.3a6.3,6.3,0,0,1,6.3,6.3V59.5a6.3,6.3,0,0,1-6.3,6.3H99.7l2.8,6.9a.9.9,0,0,1-.1.9A.9.9,0,0,1,101.6,74ZM59.7,72.1h40.5l-2.5-6.3H62.2Zm38.6-8.2h12.3a4.4,4.4,0,0,0,4.4-4.4V16.7a4.4,4.4,0,0,0-4.4-4.4H49.3a4.3,4.3,0,0,0-4.4,4.4V59.5a4.4,4.4,0,0,0,4.4,4.4h49ZM64.8,59.6a4,4,0,0,1-4-4,3.9,3.9,0,0,1,4-3.9,4,4,0,0,1,3.9,3h33.5a.9.9,0,0,1,1,.9.9.9,0,0,1-1,1H68.7A4,4,0,0,1,64.8,59.6Zm0-6a2,2,0,0,0-2,2,2,2,0,0,0,2,2.1,2.1,2.1,0,0,0,2.1-2.1A2,2,0,0,0,64.8,53.6Zm15.1-5.2A14.7,14.7,0,1,1,94.6,33.8,14.7,14.7,0,0,1,79.9,48.4Zm0-27.4A12.8,12.8,0,1,0,92.7,33.8,12.7,12.7,0,0,0,79.9,21Z" style="fill:#20427c"/></g></g></svg>